<?xml version="1.0" standalone="no"?>
<!DOCTYPE svg PUBLIC "-//W3C//DTD SVG 1.1//EN" "http://www.w3.org/Graphics/SVG/1.1/DTD/svg11.dtd" >
<svg xmlns="http://www.w3.org/2000/svg" xmlns:xlink="http://www.w3.org/1999/xlink" version="1.1">
<metadata>
Created by FontForge 20170731 at Fri Jan  1 02:30:17 1904
 By Aleksey,,,
</metadata>
<defs>
<font id="Untit" horiz-adv-x="1024" >
  <font-face 
    font-family="Untit"
    font-weight="400"
    font-stretch="normal"
    units-per-em="1024"
    panose-1="2 11 6 9 0 1 1 1 1 1"
    ascent="1024"
    descent="0"
    x-height="635"
    cap-height="866"
    bbox="0 4 1019 1023"
    underline-thickness="36"
    underline-position="-18"
    unicode-range="U+0001-FFE6"
  />
<missing-glyph 
d="M48 912h432v-768h-432v768zM120 864l144 -288l144 288h-288zM432 816l-144 -288l144 -288v576zM120 192h288l-144 288zM96 816v-576l144 288z" />
    <glyph glyph-name=".notdef" 
d="M48 912h432v-768h-432v768zM120 864l144 -288l144 288h-288zM432 816l-144 -288l144 -288v576zM120 192h288l-144 288zM96 816v-576l144 288z" />
    <glyph glyph-name="glyph1" horiz-adv-x="512" 
d="M512 512z" />
    <glyph glyph-name="glyph1" horiz-adv-x="512" 
d="M512 512z" />
    <glyph glyph-name="uni000D" unicode="&#xd;" horiz-adv-x="512" 
d="M48 912h432v-768h-432v768zM120 864l144 -288l144 288h-288zM432 816l-144 -288l144 -288v576zM120 192h288l-144 288zM96 816v-576l144 288z" />
    <glyph glyph-name="uni0001" horiz-adv-x="512" 
d="M48 912h432v-768h-432v768zM120 864l144 -288l144 288h-288zM432 816l-144 -288l144 -288v576zM120 192h288l-144 288zM96 816v-576l144 288z" />
    <glyph glyph-name="uni0002" horiz-adv-x="512" 
d="M48 912h432v-768h-432v768zM120 864l144 -288l144 288h-288zM432 816l-144 -288l144 -288v576zM120 192h288l-144 288zM96 816v-576l144 288z" />
    <glyph glyph-name="uni0003" horiz-adv-x="512" 
d="M48 912h432v-768h-432v768zM120 864l144 -288l144 288h-288zM432 816l-144 -288l144 -288v576zM120 192h288l-144 288zM96 816v-576l144 288z" />
    <glyph glyph-name="uni0004" horiz-adv-x="512" 
d="M48 912h432v-768h-432v768zM120 864l144 -288l144 288h-288zM432 816l-144 -288l144 -288v576zM120 192h288l-144 288zM96 816v-576l144 288z" />
    <glyph glyph-name="uni0005" horiz-adv-x="512" 
d="M48 912h432v-768h-432v768zM120 864l144 -288l144 288h-288zM432 816l-144 -288l144 -288v576zM120 192h288l-144 288zM96 816v-576l144 288z" />
    <glyph glyph-name="uni0006" horiz-adv-x="512" 
d="M48 912h432v-768h-432v768zM120 864l144 -288l144 288h-288zM432 816l-144 -288l144 -288v576zM120 192h288l-144 288zM96 816v-576l144 288z" />
    <glyph glyph-name="uni0007" horiz-adv-x="512" 
d="M48 912h432v-768h-432v768zM120 864l144 -288l144 288h-288zM432 816l-144 -288l144 -288v576zM120 192h288l-144 288zM96 816v-576l144 288z" />
    <glyph glyph-name="uni0008" horiz-adv-x="512" 
d="M48 912h432v-768h-432v768zM120 864l144 -288l144 288h-288zM432 816l-144 -288l144 -288v576zM120 192h288l-144 288zM96 816v-576l144 288z" />
    <glyph glyph-name="uni0009" unicode="&#x9;" horiz-adv-x="512" 
d="M48 912h432v-768h-432v768zM120 864l144 -288l144 288h-288zM432 816l-144 -288l144 -288v576zM120 192h288l-144 288zM96 816v-576l144 288z" />
    <glyph glyph-name="uni000A" unicode="&#xa;" horiz-adv-x="512" 
d="M48 912h432v-768h-432v768zM120 864l144 -288l144 288h-288zM432 816l-144 -288l144 -288v576zM120 192h288l-144 288zM96 816v-576l144 288z" />
    <glyph glyph-name="uni000B" horiz-adv-x="512" 
d="M48 912h432v-768h-432v768zM120 864l144 -288l144 288h-288zM432 816l-144 -288l144 -288v576zM120 192h288l-144 288zM96 816v-576l144 288z" />
    <glyph glyph-name="uni000C" horiz-adv-x="512" 
d="M48 912h432v-768h-432v768zM120 864l144 -288l144 288h-288zM432 816l-144 -288l144 -288v576zM120 192h288l-144 288zM96 816v-576l144 288z" />
    <glyph glyph-name="uni000E" horiz-adv-x="512" 
d="M48 912h432v-768h-432v768zM120 864l144 -288l144 288h-288zM432 816l-144 -288l144 -288v576zM120 192h288l-144 288zM96 816v-576l144 288z" />
    <glyph glyph-name="uni000F" horiz-adv-x="512" 
d="M48 912h432v-768h-432v768zM120 864l144 -288l144 288h-288zM432 816l-144 -288l144 -288v576zM120 192h288l-144 288zM96 816v-576l144 288z" />
    <glyph glyph-name="uni0010" horiz-adv-x="512" 
d="M48 912h432v-768h-432v768zM120 864l144 -288l144 288h-288zM432 816l-144 -288l144 -288v576zM120 192h288l-144 288zM96 816v-576l144 288z" />
    <glyph glyph-name="uni0011" horiz-adv-x="512" 
d="M48 912h432v-768h-432v768zM120 864l144 -288l144 288h-288zM432 816l-144 -288l144 -288v576zM120 192h288l-144 288zM96 816v-576l144 288z" />
    <glyph glyph-name="uni0012" horiz-adv-x="512" 
d="M48 912h432v-768h-432v768zM120 864l144 -288l144 288h-288zM432 816l-144 -288l144 -288v576zM120 192h288l-144 288zM96 816v-576l144 288z" />
    <glyph glyph-name="uni0013" horiz-adv-x="512" 
d="M48 912h432v-768h-432v768zM120 864l144 -288l144 288h-288zM432 816l-144 -288l144 -288v576zM120 192h288l-144 288zM96 816v-576l144 288z" />
    <glyph glyph-name="uni0014" horiz-adv-x="512" 
d="M48 912h432v-768h-432v768zM120 864l144 -288l144 288h-288zM432 816l-144 -288l144 -288v576zM120 192h288l-144 288zM96 816v-576l144 288z" />
    <glyph glyph-name="uni0015" horiz-adv-x="512" 
d="M48 912h432v-768h-432v768zM120 864l144 -288l144 288h-288zM432 816l-144 -288l144 -288v576zM120 192h288l-144 288zM96 816v-576l144 288z" />
    <glyph glyph-name="uni0016" horiz-adv-x="512" 
d="M48 912h432v-768h-432v768zM120 864l144 -288l144 288h-288zM432 816l-144 -288l144 -288v576zM120 192h288l-144 288zM96 816v-576l144 288z" />
    <glyph glyph-name="uni0017" horiz-adv-x="512" 
d="M48 912h432v-768h-432v768zM120 864l144 -288l144 288h-288zM432 816l-144 -288l144 -288v576zM120 192h288l-144 288zM96 816v-576l144 288z" />
    <glyph glyph-name="uni0018" horiz-adv-x="512" 
d="M48 912h432v-768h-432v768zM120 864l144 -288l144 288h-288zM432 816l-144 -288l144 -288v576zM120 192h288l-144 288zM96 816v-576l144 288z" />
    <glyph glyph-name="uni0019" horiz-adv-x="512" 
d="M48 912h432v-768h-432v768zM120 864l144 -288l144 288h-288zM432 816l-144 -288l144 -288v576zM120 192h288l-144 288zM96 816v-576l144 288z" />
    <glyph glyph-name="uni001A" horiz-adv-x="512" 
d="M48 912h432v-768h-432v768zM120 864l144 -288l144 288h-288zM432 816l-144 -288l144 -288v576zM120 192h288l-144 288zM96 816v-576l144 288z" />
    <glyph glyph-name="uni001B" horiz-adv-x="512" 
d="M48 912h432v-768h-432v768zM120 864l144 -288l144 288h-288zM432 816l-144 -288l144 -288v576zM120 192h288l-144 288zM96 816v-576l144 288z" />
    <glyph glyph-name="uni001C" horiz-adv-x="512" 
d="M48 912h432v-768h-432v768zM120 864l144 -288l144 288h-288zM432 816l-144 -288l144 -288v576zM120 192h288l-144 288zM96 816v-576l144 288z" />
    <glyph glyph-name="uni001D" horiz-adv-x="512" 
d="M48 912h432v-768h-432v768zM120 864l144 -288l144 288h-288zM432 816l-144 -288l144 -288v576zM120 192h288l-144 288zM96 816v-576l144 288z" />
    <glyph glyph-name="uni001E" horiz-adv-x="512" 
d="M48 912h432v-768h-432v768zM120 864l144 -288l144 288h-288zM432 816l-144 -288l144 -288v576zM120 192h288l-144 288zM96 816v-576l144 288z" />
    <glyph glyph-name="uni001F" horiz-adv-x="512" 
d="M48 912h432v-768h-432v768zM120 864l144 -288l144 288h-288zM432 816l-144 -288l144 -288v576zM120 192h288l-144 288zM96 816v-576l144 288z" />
    <glyph glyph-name="space" unicode=" " horiz-adv-x="512" 
d="M512 512z" />
    <glyph glyph-name="exclam" unicode="!" horiz-adv-x="512" 
d="M192 575v342h128v-342l-39 -256h-47zM200 191v107h107v-107h-107z" />
    <glyph glyph-name="quotedbl" unicode="&#x22;" horiz-adv-x="512" 
d="M59 712l103 273l94 -47l-163 -243zM204 712l103 273l94 -47l-163 -243z" />
    <glyph glyph-name="numbersign" unicode="#" horiz-adv-x="512" 
d="M136 699l17 162h51l-17 -162h154l17 162h51l-17 -162h68v-60h-76l-18 -209h77v-68h-85l-17 -179h-51l17 179h-154l-17 -179h-51l17 179h-68v68h76l18 209h-77v60h85zM332 639h-153l-17 -209h153z" />
    <glyph glyph-name="dollar" unicode="$" horiz-adv-x="512" 
d="M213 861v56h85v-56q21 0 41 -5q21 -5 39 -15q19 -11 34 -28q16 -17 27 -41l-73 -73q-10 16 -20 26t-20 15t-17 6q-7 2 -11 0v-166q100 -26 144 -87q44 -62 39 -132q-6 -71 -53 -125q-48 -54 -130 -66v-43h-85v47q-23 -1 -52 10q-30 11 -59 34q-29 22 -51 57
q-22 34 -30 79l115 21q2 -13 9 -24q7 -12 18 -22t24 -17t26 -10v180q-24 7 -48 15t-47 23q-22 15 -42 43q-19 29 -34 76q-11 55 2 96q13 42 40 70q28 28 62 42t67 14zM213 746q-29 -4 -44 -21q-15 -18 -15 -41q-1 -23 14 -43q15 -21 45 -31v136zM298 298q24 1 40 22
q15 20 18 49q2 28 -11 52q-14 24 -47 31v-154z" />
    <glyph glyph-name="percent" unicode="%" horiz-adv-x="512" 
d="M29 251l431 593l56 -42l-427 -593zM213 311q27 70 77 106q50 35 101 36t80 -33q29 -33 15 -101q-26 -66 -77 -103t-103 -42q-52 -4 -81 29t-12 108zM418 319q12 35 4 53t-29 18q-20 0 -46 -18t-49 -53q-23 -41 -19 -63q5 -22 28 -23q22 -1 52 20q31 21 59 66zM51 742
q27 70 77 106q50 35 101 36q50 1 80 -33q29 -33 15 -101q-26 -66 -77 -103q-51 -38 -103 -42t-81 29t-12 108zM251 750q12 35 4 53t-28 18q-21 0 -46 -18q-26 -18 -49 -53q-23 -42 -19 -64q5 -21 28 -22q22 -1 52 20t58 66z" />
    <glyph glyph-name="ampersand" unicode="&#x26;" horiz-adv-x="512" 
d="M140 827q82 23 135 -9q53 -31 71 -91q17 -60 -6 -121q-23 -60 -93 -95l85 -136q6 5 11 11q5 7 9 15t6 19q3 10 4 23l103 -13q0 -14 -7 -33q-6 -19 -17 -38q-11 -20 -25 -38t-28 -31l68 -90l-102 -47l-52 73q-42 -22 -85 -29q-43 -6 -82 3q-39 8 -68 30t-42 55
q-9 24 -10 57q0 32 11 68q11 35 33 68q23 33 60 59q-43 42 -58 87q-16 44 -10 85t30 72q23 31 59 46zM217 738q-29 9 -46 -2q-18 -11 -21 -36q-4 -24 9 -56t45 -64q27 15 38 39q12 24 11 49q-2 26 -11 45q-10 19 -25 25zM256 302l-99 150q-38 -44 -46 -82q-7 -38 9 -63
q17 -25 52 -28q36 -3 84 23z" />
    <glyph glyph-name="quotesingle" unicode="'" horiz-adv-x="512" 
d="M42 981h154v-115q-2 -39 -16 -65t-36 -42q-23 -15 -48 -21q-26 -7 -50 -5q23 11 39 25q17 14 29 28q11 14 16 27q6 13 6 23h-94v145z" />
    <glyph glyph-name="parenleft" unicode="(" horiz-adv-x="512" 
d="M422 42q-125 94 -187 214q-62 119 -61 245q1 127 64 244q63 116 188 206l43 -47q-114 -87 -170 -192t-56 -215q1 -110 57 -214q57 -104 169 -190z" />
    <glyph glyph-name="parenright" unicode=")" horiz-adv-x="512" 
d="M42 900l47 51q123 -95 186 -211q62 -115 61 -237q0 -123 -64 -241q-63 -118 -191 -220l-39 51q111 89 167 194q55 105 56 214q0 110 -55 212q-56 103 -168 187z" />
    <glyph glyph-name="asterisk" unicode="*" horiz-adv-x="512" 
d="M213 691q-2 27 11 41q13 13 32 13q18 0 31 -13q14 -14 11 -41l-25 -137l8 -8l94 98q21 17 41 13q19 -4 30 -20t7 -35q-5 -20 -31 -35l-132 -43v-13l132 -34q25 -10 31 -30q6 -19 -3 -37q-9 -19 -28 -25t-43 11l-102 94l-9 -8l22 -124q4 -30 -9 -46q-13 -15 -32 -15
q-18 0 -31 15q-13 16 -9 46l29 124l-8 8l-111 -89q-18 -12 -32 -6q-14 5 -21 21t-4 32t19 25l140 34v13l-115 51q-28 11 -34 32q-6 20 4 39q9 19 28 25q19 5 41 -15l89 -106l9 8z" />
    <glyph glyph-name="plus" unicode="+" horiz-adv-x="512" 
d="M217 554v171h73v-171h170v-72h-170v-184h-73v184h-171v72h171z" />
    <glyph glyph-name="comma" unicode="," horiz-adv-x="512" 
d="M42 149v128h128v-132q0 -18 -10 -33q-9 -15 -27 -26q-17 -11 -40 -17t-51 -6q18 11 30 21q12 9 20 19q7 9 11 20q3 12 3 26h-64z" />
    <glyph glyph-name="hyphen" unicode="-" horiz-adv-x="512" 
d="M42 477v69h427v-69h-427z" />
    <glyph glyph-name="period" unicode="." horiz-adv-x="512" 
d="M42 149v128h128v-128h-128z" />
    <glyph glyph-name="slash" unicode="/" horiz-adv-x="512" 
d="M25 63l401 896l64 -21l-405 -896z" />
    <glyph glyph-name="zero" unicode="0" horiz-adv-x="512" 
d="M38 533q1 88 9 155t30 112q21 45 65 68q43 23 114 23q67 0 109 -23q43 -23 67 -70q23 -46 32 -116q9 -69 9 -162q-1 -77 -10 -140q-9 -62 -31 -107q-23 -45 -65 -70q-43 -24 -111 -24q-71 0 -114 25q-44 24 -65 70q-22 46 -30 112q-8 65 -9 147zM256 772q-38 -1 -60 -22
q-21 -22 -30 -58q-9 -35 -11 -77t-2 -82q0 -37 2 -77t11 -75t30 -57q22 -21 60 -22q38 1 59 22q21 22 30 57t11 75t2 77q0 42 -2 84t-11 77t-30 56t-59 22z" />
    <glyph glyph-name="one" unicode="1" horiz-adv-x="512" 
d="M85 793q32 5 53 12q21 6 33 16q12 9 18 22t7 31h119v-683h-115v525h-115v77z" />
    <glyph glyph-name="two" unicode="2" horiz-adv-x="512" 
d="M38 648q-3 140 77 195q79 56 178 39t154 -97q56 -79 5 -210q-33 -57 -73 -98q-40 -40 -78 -70q-38 -31 -67 -56q-28 -26 -38 -53h281v-107h-443q1 76 24 128t60 90t78 72t77 73q67 84 61 135t-49 66q-42 15 -84 -11q-41 -26 -44 -96h-119z" />
    <glyph glyph-name="three" unicode="3" horiz-adv-x="512" 
d="M38 661q0 75 24 127q24 51 67 79t101 31q59 2 128 -20q55 -22 85 -67t32 -97q1 -52 -30 -93q-31 -42 -100 -58q78 -13 114 -59q37 -45 36 -105q-2 -59 -36 -114t-97 -85q-60 -23 -117 -25t-103 17q-47 20 -76 61q-28 41 -32 105h128q5 -30 26 -46q22 -15 50 -17
q29 -1 57 10q28 12 46 36q16 26 19 54q2 28 -14 52q-15 24 -53 39q-38 14 -101 13v98q43 0 71 7q27 6 43 18t24 27t11 33q4 56 -25 82q-30 27 -71 24q-42 -3 -72 -34q-31 -32 -28 -93h-107z" />
    <glyph glyph-name="four" unicode="4" horiz-adv-x="512" 
d="M285 874h111v-461h90v-119h-90v-103h-115v103h-247v119zM281 665l-132 -252h132v252z" />
    <glyph glyph-name="five" unicode="5" horiz-adv-x="512" 
d="M29 490l30 384h401v-119h-290l-13 -145q68 30 132 27q63 -3 111 -36q49 -32 73 -90q23 -57 13 -136q-19 -99 -85 -149q-67 -51 -149 -53q-83 -2 -148 42q-66 44 -83 134l124 17q20 -39 52 -55t66 -10q34 5 60 27q26 23 35 60q9 53 -11 86q-20 34 -56 47q-35 13 -72 5
q-37 -7 -62 -36h-128z" />
    <glyph glyph-name="six" unicode="6" horiz-adv-x="512" 
d="M59 746q25 77 91 113q67 37 144 32q76 -5 132 -52q56 -46 60 -136h-124q-8 42 -41 62t-72 8q-40 -12 -67 -63q-28 -52 -25 -152q48 51 107 63q60 11 113 -15t82 -88q30 -61 18 -156q-16 -91 -75 -137q-58 -46 -132 -48t-137 39q-62 42 -87 125q-7 19 -10 66q-4 47 -4 108
t7 122q6 61 20 109zM358 422q-6 49 -36 70q-29 20 -66 18t-66 -21q-28 -19 -33 -50q-5 -62 24 -97t70 -39q41 -5 73 24q32 30 34 95z" />
    <glyph glyph-name="seven" unicode="7" horiz-adv-x="512" 
d="M34 772v102h439v-102l-260 -581h-124l265 581h-320z" />
    <glyph glyph-name="eight" unicode="8" horiz-adv-x="512" 
d="M179 550q-26 1 -51 12q-24 11 -43 32q-20 21 -31 54q-12 32 -12 77q1 29 13 58q13 30 38 54t65 39t98 15q87 -1 139 -47t63 -109q12 -64 -22 -117q-35 -53 -121 -68q96 -20 136 -78t30 -126q-11 -68 -68 -118q-58 -50 -157 -54q-36 0 -73 8q-37 9 -70 27q-33 19 -56 48
q-24 29 -32 71q-5 37 -1 71q5 33 22 62t49 52q33 22 84 37zM341 708q0 42 -28 62q-27 21 -64 21t-64 -21q-28 -20 -28 -62q1 -42 27 -61q27 -20 62 -19t62 21q28 20 33 59zM349 375q-3 48 -35 68q-32 21 -72 18t-69 -27q-30 -23 -28 -63q0 -37 30 -57t70 -21t71 19t33 63z
" />
    <glyph glyph-name="nine" unicode="9" horiz-adv-x="512" 
d="M25 652q1 69 27 121q27 51 71 82q45 31 100 37q56 7 114 -14q76 -33 111 -111t41 -171t-5 -172t-28 -113q-33 -72 -100 -105q-68 -34 -142 -28q-75 6 -129 52t-60 132h124q7 -39 41 -55q34 -17 75 -6t69 56q29 45 24 129q-41 -48 -97 -60q-56 -13 -110 9q-53 21 -89 76
t-37 141zM354 648q-2 61 -32 91q-31 31 -71 31t-72 -31q-31 -30 -34 -91q2 -58 33 -85t72 -26q40 2 71 30t33 81z" />
    <glyph glyph-name="colon" unicode=":" horiz-adv-x="512" 
d="M192 639v128h128v-128h-128zM192 255v128h128v-128h-128z" />
    <glyph glyph-name="semicolon" unicode=";" horiz-adv-x="512" 
d="M192 639v128h128v-128h-128zM192 255v128h128v-128q-5 -25 -14 -42q-8 -17 -23 -26t-37 -13t-54 -4q22 8 36 17q14 10 23 21q8 10 12 22t5 25h-76z" />
    <glyph glyph-name="less" unicode="&#x3c;" horiz-adv-x="512" 
d="M64 511l341 448l64 -21l-329 -427l329 -426l-64 -22z" />
    <glyph glyph-name="equal" unicode="=" horiz-adv-x="512" 
d="M42 511v82h427v-82h-427zM42 324v81h427v-81h-427z" />
    <glyph glyph-name="greater" unicode="&#x3e;" horiz-adv-x="512" 
d="M42 938l64 21l342 -448l-342 -448l-64 22l320 426z" />
    <glyph glyph-name="question" unicode="?" horiz-adv-x="512" 
d="M25 699q0 45 12 83t40 67q27 28 72 43q46 16 111 16q92 -1 144 -38q52 -36 67 -92q15 -57 -3 -116q-19 -60 -67 -108q-26 -26 -45 -49q-20 -23 -32 -49q-13 -26 -20 -61q-6 -36 -6 -88h-106q1 63 7 105t19 74q14 31 37 60q23 30 60 68q41 44 51 81q9 38 -7 66
q-17 28 -55 40t-91 5q-81 -4 -90 -107h-98zM192 106v107h106v-107h-106z" />
    <glyph glyph-name="at" unicode="@" horiz-adv-x="512" 
d="M102 844h196q65 0 102 -7q37 -6 54 -18q18 -12 23 -27q6 -15 9 -33v-363q-8 -30 -23 -48q-15 -17 -36 -21t-45 5q-24 10 -50 34q-29 -26 -62 -35t-64 2t-52 47q-21 37 -26 102q-3 54 10 91q13 36 40 56q26 19 63 23q38 3 83 -8q3 3 9 6q5 3 13 5q7 2 17 3q10 0 21 -1
v-231q3 -24 9 -38q6 -13 13 -17q7 -3 15 3t14 22v162q0 73 -1 119q0 45 -6 69q-6 25 -20 35q-15 10 -42 12h-251q-10 -2 -18 -7q-9 -5 -15 -14q-7 -9 -10 -21q-4 -12 -4 -26v-452q3 -11 10 -21q7 -9 16 -17q10 -7 22 -12q11 -4 24 -6h346v-43h-350q-24 2 -44 8q-21 6 -36 18
q-16 11 -26 29t-13 44v456q3 25 9 45q7 19 17 33q11 14 25 23q15 9 34 14zM328 490q2 59 -19 89q-21 29 -50 29t-52 -31q-23 -30 -24 -91q1 -56 22 -85q20 -29 48 -30q27 0 49 29t26 90z" />
    <glyph glyph-name="A" unicode="A" horiz-adv-x="512" 
d="M25 209l188 635h89l180 -635h-124l-43 170h-123l-60 -170h-107zM302 443l-46 158l-52 -158h98z" />
    <glyph glyph-name="B" unicode="B" horiz-adv-x="512" 
d="M34 209v635h183q102 0 158 -37t71 -91q16 -53 -3 -103q-20 -50 -68 -76q52 -35 75 -89q24 -53 15 -107t-56 -92q-47 -37 -136 -40h-239zM247 738h-111v-163h81q59 0 92 23q33 22 38 54q5 31 -20 56q-24 25 -80 30zM256 482h-120v-171h102q67 0 96 24q29 25 27 58
q-3 33 -31 60q-27 26 -74 29z" />
    <glyph glyph-name="C" unicode="C" horiz-adv-x="512" 
d="M34 554q3 138 64 214q62 76 144 92q82 15 148 -30q66 -44 79 -148h-103q-5 50 -42 69q-36 19 -81 2t-76 -76q-30 -59 -22 -166q8 -95 40 -145q32 -49 72 -60t70 9q31 20 35 64h107q-8 -89 -74 -139t-150 -42t-147 92q-63 85 -64 264z" />
    <glyph glyph-name="D" unicode="D" horiz-adv-x="512" 
d="M34 209v635h153q72 -5 125 -23q52 -18 87 -54q34 -35 51 -92q18 -57 19 -138q0 -89 -15 -150q-16 -60 -48 -97t-81 -56t-116 -25h-175zM366 520q-2 75 -13 119q-10 45 -34 67q-25 23 -69 30t-114 6v-431q58 -2 100 1t70 22t42 63q15 44 18 123z" />
    <glyph glyph-name="E" unicode="E" horiz-adv-x="512" 
d="M42 209v635h401v-94h-298v-162h290v-106h-290v-171h315v-102h-418z" />
    <glyph glyph-name="F" unicode="F" horiz-adv-x="512" 
d="M42 209v635h418v-94h-315v-170h290v-107h-290v-264h-103z" />
    <glyph glyph-name="G" unicode="G" horiz-adv-x="512" 
d="M25 550q3 147 65 225q63 79 147 93q85 14 155 -31q71 -45 90 -146h-107q-20 50 -60 69q-40 20 -83 4q-44 -16 -75 -73q-31 -56 -34 -158q2 -82 23 -134t55 -76q35 -25 80 -24q44 1 94 25v141h-85v98h187v-303q-90 -50 -171 -61q-82 -10 -145 23q-63 34 -99 115t-37 213z
" />
    <glyph glyph-name="H" unicode="H" horiz-adv-x="512" 
d="M38 209v635h102v-256h231v256h102v-635h-102v273h-231v-273h-102z" />
    <glyph glyph-name="I" unicode="I" horiz-adv-x="512" 
d="M196 209v635h111v-635h-111z" />
    <glyph glyph-name="J" unicode="J" horiz-adv-x="512" 
d="M358 482v362h102v-286q0 -80 -6 -136q-7 -57 -22 -96q-16 -39 -42 -64t-66 -41q-47 -14 -94 -10t-87 28t-67 67t-34 107h107q3 -55 36 -81t75 -21q42 6 71 48q30 42 27 123z" />
    <glyph glyph-name="K" unicode="K" horiz-adv-x="512" 
d="M34 209v635h102v-234l179 234h137l-218 -273l235 -362h-128l-192 302l-13 -12v-290h-102z" />
    <glyph glyph-name="L" unicode="L" horiz-adv-x="512" 
d="M42 209v635h103v-533h324v-102h-427z" />
    <glyph glyph-name="M" unicode="M" horiz-adv-x="512" 
d="M25 209v635h120l111 -414l102 414h119v-635h-98v388l-98 -388h-55l-103 388v-388h-98z" />
    <glyph glyph-name="N" unicode="N" horiz-adv-x="512" 
d="M34 209v635h81l251 -414v414h103v-635h-94l-239 396v-396h-102z" />
    <glyph glyph-name="O" unicode="O" horiz-adv-x="512" 
d="M34 520q0 171 65 257q66 86 153 86q88 0 155 -86q66 -86 70 -257q-3 -162 -69 -242q-66 -81 -152 -81q-87 0 -153 81q-66 80 -69 242zM251 767q-61 -4 -91 -74t-30 -163t30 -164t91 -76q64 5 96 76t32 164t-32 163t-96 74z" />
    <glyph glyph-name="P" unicode="P" horiz-adv-x="512" 
d="M42 209v635h184q118 -1 175 -54q57 -54 58 -125q0 -71 -50 -126q-51 -54 -149 -57h-115v-273h-103zM256 750h-111v-170h111q50 -1 75 23t26 57q0 33 -25 59q-25 27 -76 31z" />
    <glyph glyph-name="Q" unicode="Q" horiz-adv-x="512" 
d="M46 405q-16 79 -12 156q3 77 27 142q23 64 66 104t107 46q103 3 158 -68q54 -71 69 -172q15 -100 -1 -188q-15 -87 -51 -118h60v-94h-90q-89 -3 -149 8q-60 12 -97 37t-58 62q-20 37 -29 85zM256 755q-64 -2 -96 -69t-32 -156q0 -90 32 -158q32 -69 96 -74q59 7 88 75
q30 69 30 157t-30 155q-29 67 -88 70z" />
    <glyph glyph-name="R" unicode="R" horiz-adv-x="512" 
d="M42 209v635h158q72 0 121 -10q49 -11 80 -32q30 -21 44 -53t15 -75q0 -29 -8 -53t-23 -43q-15 -18 -37 -32t-51 -22q21 -9 36 -17q14 -7 25 -17q11 -9 19 -24q8 -14 14 -36l25 -221h-119v106q-3 66 -11 103q-7 36 -27 51q-19 15 -57 17t-101 0v-277h-103zM256 755h-111
v-171h72q67 -2 104 22q38 24 43 58q6 34 -21 61q-26 27 -87 30z" />
    <glyph glyph-name="S" unicode="S" horiz-adv-x="512" 
d="M93 780q34 48 93 67t120 9q62 -11 104 -52t42 -113h-98q1 27 -20 46q-20 19 -51 27t-62 3t-51 -25q-11 -25 -9 -48q2 -22 19 -44q17 -21 51 -44q33 -22 84 -48q68 -35 101 -75t39 -80q6 -39 -6 -72q-11 -33 -31 -54q-46 -45 -107 -61t-120 -2q-59 15 -102 62
q-42 47 -51 129h98q5 -34 20 -56q15 -23 38 -35q22 -12 50 -14q27 -1 58 7q23 12 36 35q13 22 8 52q-6 30 -37 63q-31 32 -96 63q-60 28 -94 59q-34 32 -46 67q-12 34 -6 68q7 34 26 66z" />
    <glyph glyph-name="T" unicode="T" horiz-adv-x="512" 
d="M34 750v94h435v-94h-162v-541h-111v541h-162z" />
    <glyph glyph-name="U" unicode="U" horiz-adv-x="512" 
d="M34 511v333h102v-303q-3 -120 32 -178t83 -57t83 60q35 60 32 175v303h103v-333q-1 -151 -69 -228q-69 -77 -158 -79q-90 -2 -153 74q-64 76 -55 233z" />
    <glyph glyph-name="V" unicode="V" horiz-adv-x="512" 
d="M209 213l-175 631h111l111 -443l102 443h111l-167 -631h-93z" />
    <glyph glyph-name="W" unicode="W" horiz-adv-x="512" 
d="M85 209l-77 635h98l30 -354l68 354h103l55 -354l43 354h89l-85 -635h-102l-56 430l-64 -430h-102z" />
    <glyph glyph-name="X" unicode="X" horiz-adv-x="512" 
d="M196 533l-154 311h107l107 -226l110 226h99l-154 -311l154 -324h-107l-107 238l-115 -238h-98z" />
    <glyph glyph-name="Y" unicode="Y" horiz-adv-x="512" 
d="M196 456l-175 388h124l111 -256l110 256h120l-179 -388v-247h-111v247z" />
    <glyph glyph-name="Z" unicode="Z" horiz-adv-x="512" 
d="M38 750v94h431v-55l-290 -487h290v-93h-427v59l273 482h-277z" />
    <glyph glyph-name="bracketleft" unicode="[" horiz-adv-x="512" 
d="M234 63v896h235v-85h-107v-725h107v-86h-235z" />
    <glyph glyph-name="backslash" unicode="\" horiz-adv-x="512" 
d="M12 669l-12 175h89l17 -175h77l21 175h94l22 -175h76l22 175h76l-21 -175h30v-64h-38l-13 -132h51v-60h-60l-25 -204h-111l-26 204h-60l-29 -204h-116l-34 204h-34v60h26l-17 141h-17v55h12zM256 729l-9 -60h13zM174 614h-59l13 -141h34zM264 614h-21l-17 -141h51z
M392 614h-64l13 -141h34zM153 413h-21l13 -68zM371 413h-22l13 -72z" />
    <glyph glyph-name="bracketright" unicode="]" horiz-adv-x="512" 
d="M42 874v85h235v-896h-235v86h107v725h-107z" />
    <glyph glyph-name="asciicircum" unicode="^" horiz-adv-x="512" 
d="M89 874l107 107h124l106 -107h-81l-85 51l-98 -51h-73z" />
    <glyph glyph-name="underscore" unicode="_" horiz-adv-x="512" 
d="M0 4v55h503v-55h-503z" />
    <glyph glyph-name="grave" unicode="`" horiz-adv-x="512" 
d="M341 874v128h128v-128h-64q4 -60 64 -85q-35 0 -60 4q-24 4 -39 13t-22 26t-7 42z" />
    <glyph glyph-name="a" unicode="a" horiz-adv-x="512" 
d="M89 541q-1 12 6 27t21 31t32 29t39 20q55 14 104 7q49 -6 86 -36q37 -29 57 -83q21 -53 18 -131v-196h-111v55q-44 -35 -90 -49q-47 -15 -88 -7t-69 39t-35 85q-1 46 23 76q23 30 64 46q40 16 91 20t104 -1q2 43 -16 69q-19 26 -45 34q-27 8 -50 0q-23 -9 -30 -35h-111z
M341 405q-55 17 -98 8q-44 -9 -67 -33q-24 -24 -21 -51q3 -28 41 -48q81 -21 145 43v81z" />
    <glyph glyph-name="b" unicode="b" horiz-adv-x="512" 
d="M42 209v635h111v-269q34 64 87 87q54 22 108 3t89 -80t32 -163q-3 -91 -39 -141q-36 -51 -89 -68q-52 -17 -103 -7q-52 10 -85 41v-38h-111zM366 418q3 85 -30 120q-32 34 -77 26q-46 -7 -80 -47q-34 -41 -34 -104q5 -57 37 -86q33 -29 75 -28q42 0 74 30t35 89z" />
    <glyph glyph-name="c" unicode="c" horiz-adv-x="512" 
d="M55 516q25 84 86 123t131 36q71 -4 124 -47q54 -42 64 -121h-111q-2 39 -31 57q-30 19 -69 13t-69 -41q-29 -34 -31 -101q3 -60 31 -92t66 -39q37 -6 66 9t33 49h111q-2 -47 -24 -81q-23 -34 -61 -55q-37 -20 -85 -24q-47 -3 -99 11q-51 20 -82 56q-31 35 -45 79t-14 88
q-1 44 9 80z" />
    <glyph glyph-name="d" unicode="d" horiz-adv-x="512" 
d="M358 605v239h111v-635h-111v46q-56 -35 -110 -41t-98 14q-45 19 -72 63q-28 44 -32 110q0 111 36 175t90 85q53 22 104 6q52 -15 82 -62zM366 418q2 69 -29 108q-32 40 -74 45q-43 4 -75 -31q-33 -35 -35 -114q0 -66 31 -100q31 -35 73 -37q41 -2 73 30q33 32 36 99z" />
    <glyph glyph-name="e" unicode="e" horiz-adv-x="512" 
d="M42 418q4 133 70 197t152 62q87 -3 151 -69q63 -67 62 -195h-324q1 -49 27 -78q26 -28 62 -35q35 -8 66 5q30 12 41 44h111q-3 -79 -65 -118q-61 -40 -142 -35q-82 5 -144 59t-67 163zM358 482q-3 43 -32 65q-30 21 -69 21q-38 0 -69 -21q-30 -22 -35 -65h205z" />
    <glyph glyph-name="f" unicode="f" horiz-adv-x="512" 
d="M196 712q-3 40 0 65q3 26 14 40q10 14 28 20t43 7h111v-85h-64q-21 -9 -21 -43v-59h77v-69h-77v-379h-111v379h-77v69h77v55z" />
    <glyph glyph-name="g" unicode="g" horiz-adv-x="512" 
d="M51 388q-10 87 17 153t74 101q47 34 99 26q51 -7 91 -67v60h111v-350q-2 -67 -12 -116t-27 -82q-18 -33 -42 -52q-25 -19 -55 -27q-51 -8 -94 -7q-42 1 -75 14t-57 42q-24 28 -39 74h120q17 -31 44 -42q28 -12 57 -1q30 11 50 50q21 39 24 109q-58 -32 -106 -39
q-48 -8 -85 8t-61 53t-34 93zM341 439q0 56 -26 89q-27 32 -63 36q-35 3 -64 -27q-28 -30 -31 -98q-3 -64 24 -97q26 -33 64 -34q37 -1 66 31q28 33 30 100z" />
    <glyph glyph-name="h" unicode="h" horiz-adv-x="512" 
d="M51 209v635h111v-264q22 53 69 77q46 23 98 14q51 -10 89 -55q37 -46 42 -130v-277h-111v256q-1 61 -27 87q-25 25 -60 17t-64 -49q-28 -41 -36 -115v-196h-111z" />
    <glyph glyph-name="i" unicode="i" horiz-adv-x="512" 
d="M200 742v102h107v-102h-107zM196 209v439h111v-439h-111z" />
    <glyph glyph-name="j" unicode="j" horiz-adv-x="512" 
d="M196 733v111h111v-111h-111zM196 166v482h111v-486q-3 -29 -14 -51q-12 -22 -35 -37q-24 -15 -64 -22t-101 -6v90q37 -6 57 -5q21 0 30 6q9 5 12 13t4 16z" />
    <glyph glyph-name="k" unicode="k" horiz-adv-x="512" 
d="M55 209v635h111v-333l154 150h145l-201 -196l209 -256h-136l-150 187l-21 -13v-174h-111z" />
    <glyph glyph-name="l" unicode="l" horiz-adv-x="512" 
d="M196 209v635h111v-635h-111z" />
    <glyph glyph-name="m" unicode="m" horiz-adv-x="512" 
d="M8 209v430h90v-76q16 37 40 55q23 19 49 18q25 0 48 -22q23 -21 38 -64q28 53 64 73t71 9q34 -11 58 -50t28 -105v-268h-89v217q1 66 -11 96q-11 30 -29 32q-18 1 -35 -18q-18 -19 -28 -50v-277h-98v217q1 65 -13 94q-14 30 -34 31t-37 -19q-17 -21 -22 -55v-268h-90z
" />
    <glyph glyph-name="n" unicode="n" horiz-adv-x="512" 
d="M51 209v452h111v-94q22 61 70 90q49 29 102 17q52 -12 89 -73t37 -179v-213h-111v238q0 65 -26 92t-63 19q-36 -7 -65 -45q-29 -37 -33 -100v-204h-111z" />
    <glyph glyph-name="o" unicode="o" horiz-adv-x="512" 
d="M42 418q5 128 68 192q64 64 147 64t146 -64t66 -192q-5 -107 -68 -161q-63 -53 -145 -53q-83 0 -146 53q-63 54 -68 161zM251 311q56 0 83 36t26 85t-28 87q-28 39 -81 44q-50 -4 -76 -40q-25 -37 -26 -85t24 -85t78 -42z" />
    <glyph glyph-name="p" unicode="p" horiz-adv-x="512" 
d="M42 4v657h111v-64q32 53 84 73q51 19 104 1q54 -17 90 -76q36 -58 38 -160q-5 -102 -43 -156t-91 -70t-103 -3q-50 12 -79 45v-247h-111zM354 422q0 80 -32 117q-31 38 -73 36q-42 -1 -73 -40t-31 -113q4 -55 32 -89q27 -33 64 -39q37 -5 69 25t44 103z" />
    <glyph glyph-name="q" unicode="q" horiz-adv-x="512" 
d="M46 392q-3 96 28 163q31 66 82 97q50 31 105 21q54 -11 97 -68v56h111v-657h-111v251q-43 -38 -94 -48t-99 8q-48 17 -80 62q-33 44 -39 115zM354 401q3 102 -27 145t-70 36q-41 -6 -73 -53q-31 -46 -31 -124q6 -55 35 -85q28 -31 64 -34t65 25t37 90z" />
    <glyph glyph-name="r" unicode="r" horiz-adv-x="512" 
d="M145 537q0 7 -2 16t-11 16q-9 8 -30 10q-22 2 -60 -4v69q158 34 214 17v-56q11 20 29 34q19 15 45 23q27 9 61 10q35 1 78 -7v-111l-60 9q-49 0 -80 -7q-30 -7 -46 -18q-16 -10 -22 -22q-5 -12 -5 -22v-285h-111v328z" />
    <glyph glyph-name="s" unicode="s" horiz-adv-x="512" 
d="M106 631q33 27 84 39t105 3q53 -8 95 -41t58 -95h-120q-8 21 -22 31q-14 11 -30 14t-28 0q-13 -2 -18 -7q-11 -7 -15 -20q-3 -12 4 -28t27 -31q19 -15 52 -27q57 -26 88 -57q30 -31 38 -62t-1 -58q-10 -27 -31 -45q-63 -46 -123 -57q-61 -12 -110 5t-78 56t-30 94h111
q-5 -60 85 -64q23 2 37 11q14 10 16 27q1 16 -14 37q-16 21 -52 45q-65 32 -102 62q-36 29 -48 58q-13 28 -6 55q7 28 28 55z" />
    <glyph glyph-name="t" unicode="t" horiz-adv-x="512" 
d="M183 750h111v-102h141v-98h-141v-209q1 -17 7 -28q6 -10 20 -15q14 -4 42 -5q27 -1 72 1l-64 -85h-64q-43 0 -68 3t-37 12t-16 26q-3 17 -3 44v256h-132v98h132v102z" />
    <glyph glyph-name="u" unicode="u" horiz-adv-x="512" 
d="M51 418v243h111v-209q-4 -77 20 -114q24 -38 59 -36q36 3 66 45q31 43 42 126v188h111v-452h-111v64q-36 -47 -86 -63q-51 -17 -100 -1q-49 17 -81 68q-32 52 -31 141z" />
    <glyph glyph-name="v" unicode="v" horiz-adv-x="512" 
d="M196 209l-158 452h128l85 -265l77 265h128l-158 -452h-102z" />
    <glyph glyph-name="w" unicode="w" horiz-adv-x="512" 
d="M72 209l-64 426h98l43 -252l55 252h86l68 -247l26 247h106l-51 -426h-128l-64 209l-43 -209h-132z" />
    <glyph glyph-name="x" unicode="x" horiz-adv-x="512" 
d="M196 435l-167 226h137l90 -128l81 128h128l-154 -222l162 -230h-128l-94 132l-98 -132h-128z" />
    <glyph glyph-name="y" unicode="y" horiz-adv-x="512" 
d="M179 238l-141 423h128l81 -265l107 252h128l-282 -644h-128z" />
    <glyph glyph-name="z" unicode="z" horiz-adv-x="512" 
d="M76 550v111h372v-107l-227 -235h227v-110h-389v93l231 248h-214z" />
    <glyph glyph-name="braceleft" unicode="{" horiz-adv-x="512" 
d="M320 716q-4 70 3 117q6 46 23 73q18 27 48 38t75 11v-34q-23 0 -39 -7q-17 -8 -27 -29q-11 -21 -15 -61q-3 -40 0 -103q2 -52 -1 -88t-12 -60q-10 -24 -28 -41q-19 -18 -49 -33q19 -6 34 -15q16 -9 27 -21t18 -28q8 -15 11 -34v-231q0 -24 5 -40q6 -17 16 -27
q11 -10 26 -15q15 -6 34 -7v-35q-32 0 -59 8t-47 23q-21 15 -32 38q-11 22 -11 51v230q-3 15 -9 27q-6 13 -16 22t-25 15q-15 5 -36 5v68q30 3 48 13q17 10 25 31q9 20 11 54t2 85z" />
    <glyph glyph-name="bar" unicode="|" horiz-adv-x="512" 
d="M221 59v909h69v-909h-69z" />
    <glyph glyph-name="braceright" unicode="}" horiz-adv-x="512" 
d="M42 921v34q40 0 68 -8t46 -25q18 -16 29 -42q10 -26 15 -61v-222q3 -15 10 -26q6 -11 16 -19t24 -13q13 -5 31 -6v-68q-18 0 -32 -5t-25 -14q-10 -9 -16 -23q-6 -13 -8 -31v-111q1 -65 -4 -109q-4 -43 -19 -69t-47 -39t-88 -18v35q19 0 34 6q16 6 27 17q11 12 18 27
q8 16 11 35v230q3 18 9 32q6 15 15 27q10 13 24 24q14 10 33 20q-39 17 -64 47q-6 10 -10 24q-3 14 -5 42q-1 28 -2 80v139q-3 23 -11 40q-7 17 -18 29t-27 17q-15 5 -34 4z" />
    <glyph glyph-name="asciitilde" unicode="~" horiz-adv-x="512" 
d="M29 524q20 53 47 80t59 31q31 4 65 -14q34 -17 68 -54q27 -29 53 -46t50 -19t46 15q22 16 43 54l22 -64q-22 -38 -47 -60q-24 -21 -52 -24q-28 -4 -61 11q-32 14 -71 48q-36 33 -61 51t-44 19q-18 1 -34 -16q-17 -17 -36 -54z" />
    <glyph glyph-name="uni007F" horiz-adv-x="512" 
d="M512 512z" />
    <glyph glyph-name="glyph129" unicode="&#x3000;" 
d="M512 512z" />
    <glyph glyph-name="uni3001" unicode="&#x3001;" 
d="M46 260l69 59q119 -110 196 -213l-77 -64q-81 103 -188 218z" />
    <glyph glyph-name="uni3002" unicode="&#x3002;" 
d="M42 191q0 32 11 60q12 27 32 47t47 32q28 11 60 11t59 -11q27 -12 47 -32q21 -20 32 -47q11 -28 11 -60t-11 -59t-32 -47q-20 -21 -47 -32t-59 -11t-60 11q-27 11 -47 32q-20 20 -32 47q-11 27 -11 59zM192 285q-23 0 -40 -8t-29 -21q-13 -14 -19 -30q-6 -17 -6 -35
q0 -24 9 -42q8 -17 22 -28q14 -12 30 -17q17 -6 33 -6q21 0 38 7q17 8 29 20q12 13 19 30t7 36q0 16 -6 33q-5 16 -16 30q-12 14 -29 22q-18 9 -42 9z" />
    <glyph glyph-name="periodcentered" unicode="&#xb7;" 
d="M452 452v119h124v-119h-124z" />
    <glyph glyph-name="twodotenleader" unicode="&#x2025;" 
d="M192 447v128h128v-128h-128zM704 447v128h128v-128h-128z" />
    <glyph glyph-name="uni22EF" unicode="&#x2026;" 
d="M128 447v128h128v-128h-128zM448 447v128h128v-128h-128zM768 447v128h128v-128h-128z" />
    <glyph glyph-name="uni22EF" unicode="&#x22ef;" 
d="M128 447v128h128v-128h-128zM448 447v128h128v-128h-128zM768 447v128h128v-128h-128z" />
    <glyph glyph-name="dieresis" unicode="&#xa8;" 
d="M349 874v111h99v-111h-99zM571 874v111h98v-111h-98z" />
    <glyph glyph-name="uni3003" unicode="&#x3003;" 
d="M341 460l51 209h107l-56 -209h-102zM550 460l47 209h102l-51 -209h-98z" />
    <glyph glyph-name="endash" unicode="&#xad;" 
d="M384 473v81h243v-81h-243z" />
    <glyph glyph-name="endash" unicode="&#x2013;" 
d="M384 473v81h243v-81h-243z" />
    <glyph glyph-name="emdash" unicode="&#x2014;" 
d="M55 473v81h909v-81h-909z" />
    <glyph glyph-name="emdash" unicode="&#x2015;" 
d="M55 473v81h909v-81h-909z" />
    <glyph glyph-name="uni2016" unicode="&#x2016;" 
d="M354 46v931h81v-931h-81zM588 46v931h81v-931h-81z" />
    <glyph glyph-name="uni2016" unicode="&#x2225;" 
d="M354 46v931h81v-931h-81zM588 46v931h81v-931h-81z" />
    <glyph glyph-name="uniFF3C" unicode="&#xff3c;" 
d="M51 913l59 64l862 -862l-59 -64z" />
    <glyph glyph-name="uniFF5E" unicode="&#x223c;" 
d="M115 473q49 67 90 106q42 39 82 51q41 12 88 -2t107 -53q65 -41 110 -59q45 -17 82 -12q37 6 77 34q40 29 93 80l52 -64q-54 -59 -104 -93q-49 -34 -99 -42q-49 -9 -104 7t-120 56q-48 31 -84 46q-37 15 -69 10q-32 -4 -65 -32t-72 -84z" />
    <glyph glyph-name="quoteleft" unicode="&#x2018;" 
d="M853 917q2 29 13 46q12 17 30 25q18 9 40 12q22 2 45 2q-64 -21 -60 -85h60v-128h-128v128z" />
    <glyph glyph-name="quoteright" unicode="&#x2019;" 
d="M42 981h128v-128q0 -22 -14 -38q-13 -16 -34 -26q-20 -10 -42 -15q-21 -5 -38 -7q64 43 64 86h-64v128z" />
    <glyph glyph-name="quotedblleft" unicode="&#x201c;" 
d="M853 917q2 29 13 46q12 17 30 25q18 9 40 12q22 2 45 2q-64 -21 -60 -85h60v-128h-128v128zM682 917q2 29 13 46q12 17 30 25q18 9 40 12q22 2 45 2q-64 -21 -60 -85h60v-128h-128v128z" />
    <glyph glyph-name="quotedblright" unicode="&#x201d;" 
d="M42 981h128v-128q0 -22 -14 -38q-13 -16 -34 -26q-20 -10 -42 -15q-21 -5 -38 -7q64 43 64 86h-64v128zM213 981h128v-128q0 -22 -14 -38q-13 -16 -34 -26q-20 -10 -42 -15q-21 -5 -38 -7q64 43 64 86h-64v128z" />
    <glyph glyph-name="uni3014" unicode="&#x3014;" 
d="M733 874l192 107l56 -64l-149 -86v-640l149 -85l-56 -64l-192 107v725z" />
    <glyph glyph-name="uni3015" unicode="&#x3015;" 
d="M42 917l56 64l192 -107v-725l-192 -107l-56 64l150 107v597z" />
    <glyph glyph-name="uni3008" unicode="&#x3008;" 
d="M588 511l312 470l81 -43l-277 -427l277 -426l-81 -43z" />
    <glyph glyph-name="uni3009" unicode="&#x3009;" 
d="M42 938l81 43l325 -470l-325 -469l-81 43l299 426z" />
    <glyph glyph-name="uni300A" unicode="&#x300a;" 
d="M537 494l226 453l73 -30l-209 -427l200 -418l-77 -30zM691 490l213 457l77 -30l-201 -423l201 -422l-77 -30z" />
    <glyph glyph-name="uni300B" unicode="&#x300b;" 
d="M42 917l77 30l222 -457l-222 -448l-77 30l209 418zM256 951l213 -461l-205 -448l-81 30l196 418l-196 423z" />
    <glyph glyph-name="uni300C" unicode="&#x300c;" 
d="M597 127v854h384v-107h-277v-747h-107z" />
    <glyph glyph-name="uni300D" unicode="&#x300d;" 
d="M320 149v746h106v-853h-384v107h278z" />
    <glyph glyph-name="uni300E" unicode="&#x300e;" 
d="M597 127v854h384v-192h-171v-662h-213zM917 917h-256v-726h85v662h171v64z" />
    <glyph glyph-name="uni300F" unicode="&#x300f;" 
d="M213 255v640h213v-853h-384v213h171zM362 831h-85v-640h-171v-85h256v725z" />
    <glyph glyph-name="uni3010" unicode="&#x3010;" 
d="M576 42v917h405q-125 -84 -187 -201q-63 -116 -63 -244q0 -129 63 -252q62 -122 187 -220h-405z" />
    <glyph glyph-name="uni3011" unicode="&#x3011;" 
d="M42 42q123 101 186 221q62 120 62 246q1 125 -61 241q-62 117 -187 209h406v-917h-406z" />
    <glyph glyph-name="plusminus" unicode="&#xb1;" 
d="M469 639v282h85v-282h307v-85h-307v-260h-85v260h-333v85h333zM145 149v77h725v-77h-725z" />
    <glyph glyph-name="multiply" unicode="&#xd7;" 
d="M200 750l51 60l252 -247l256 260l55 -56l-260 -260l260 -256l-55 -55l-256 256l-252 -252l-51 55l248 248z" />
    <glyph glyph-name="divide" unicode="&#xf7;" 
d="M456 631v102h107v-102h-107zM170 477v64h674v-64h-674zM456 277v102h107v-102h-107z" />
    <glyph glyph-name="notequal" unicode="&#x2260;" 
d="M315 823l56 26l111 -222h362v-64h-328l55 -116h273v-64h-239l99 -196l-60 -25l-111 221h-359v64h329l-60 116h-269v64h239z" />
    <glyph glyph-name="lessequal" unicode="&#x2264;" 
d="M170 601l674 256v-64l-499 -192l499 -200v-64zM166 127v64h678v-64h-678z" />
    <glyph glyph-name="greaterequal" unicode="&#x2265;" 
d="M183 793v64l657 -256l-657 -260v60l486 200zM183 127v64h666v-64h-666z" />
    <glyph glyph-name="infinity" unicode="&#x221e;" 
d="M123 533q13 63 52 102q39 40 94 48q55 9 118 -21q63 -29 125 -104q51 79 119 107q68 27 132 10q64 -16 104 -67q39 -50 33 -126q-8 -76 -53 -116q-46 -41 -109 -46q-63 -4 -125 29q-61 34 -101 107q-50 -77 -116 -111t-129 -25q-64 9 -105 62q-40 54 -39 151zM469 511
q-53 61 -104 88q-51 28 -92 25q-41 -4 -65 -36q-24 -31 -25 -89q6 -57 35 -90q30 -32 73 -35t90 30q47 32 88 107zM840 520q-6 47 -36 75q-31 28 -76 30q-44 3 -91 -26q-48 -29 -87 -96q47 -69 98 -100q50 -30 94 -26q43 4 70 41q27 36 28 102z" />
    <glyph glyph-name="therefore" unicode="&#x2234;" 
d="M443 695v128h128v-128h-128zM162 204v128h128v-128h-128zM725 204v128h128v-128h-128z" />
    <glyph glyph-name="degree" unicode="&#xb0;" 
d="M42 827q0 32 11 60q12 27 32 47t47 32q28 11 60 11t59 -11q27 -12 47 -32q21 -20 32 -47q11 -28 11 -60t-11 -59t-32 -47q-20 -21 -47 -32t-59 -11t-60 11q-27 11 -47 32q-20 20 -32 47q-11 27 -11 59zM192 925q-23 0 -40 -8t-29 -21q-13 -14 -19 -30q-6 -17 -6 -35
q0 -24 9 -42q8 -17 22 -28q14 -12 30 -17q17 -6 33 -6q21 0 38 7q17 8 29 20q12 13 19 30t7 36q0 16 -6 33q-5 16 -16 30q-12 14 -29 22q-18 9 -42 9z" />
    <glyph glyph-name="minute" unicode="&#x2032;" 
d="M759 712l119 269l99 -51l-184 -235z" />
    <glyph glyph-name="second" unicode="&#x2033;" 
d="M759 712l119 269l99 -51l-184 -235zM593 712l119 269l98 -51l-183 -235z" />
    <glyph glyph-name="uni2103" unicode="&#x2103;" 
d="M196 934q61 -2 91 -38q31 -36 31 -83q0 -48 -31 -84q-30 -36 -91 -38q-61 2 -91 38t-30 84q0 47 30 83t91 38zM200 883q-34 -1 -51 -21q-16 -21 -16 -47q0 -27 16 -48q17 -20 51 -21q32 1 48 21q16 21 16 48q0 26 -16 47q-16 20 -48 21zM541 853q57 15 113 13
q56 -1 105 -22t86 -65t55 -114l-94 -38q-12 62 -49 99q-38 36 -87 45q-50 9 -100 -11t-88 -69q-43 -62 -54 -138q-12 -76 3 -149q15 -74 49 -126q35 -53 83 -69q57 -16 103 -8q45 8 79 35q33 27 53 69q21 43 29 96l94 -35q-8 -48 -26 -89t-46 -73q-27 -33 -64 -55
q-36 -23 -81 -34q-28 -7 -71 -6q-42 0 -90 13t-91 44t-73 85q-42 82 -51 175t12 181t72 153q51 66 129 93z" />
    <glyph glyph-name="uni212B" unicode="&#x212b;" 
d="M149 51l303 644h94l324 -644h-107l-94 192h-328l-85 -192h-107zM499 605l-128 -290h260zM503 981q59 -2 89 -37t30 -80q0 -46 -30 -81t-89 -37q-59 2 -89 37q-29 35 -29 81q0 45 29 80q30 35 89 37zM503 934q-35 -1 -53 -21q-17 -21 -17 -47q0 -27 17 -48q18 -20 53 -21
q34 1 51 21q17 21 17 48q0 26 -17 47q-17 20 -51 21z" />
    <glyph glyph-name="uniFFE0" unicode="&#xffe0;" 
d="M546 802l25 111h73l-26 -124q24 -11 45 -27t38 -37q16 -21 27 -47t14 -56l-73 -29q-6 21 -14 39q-7 18 -16 33q-8 15 -19 26q-10 11 -23 17l-111 -431q32 -1 57 8q26 10 46 29q19 20 33 47t22 61l81 -39q-13 -45 -35 -81q-23 -36 -56 -60q-33 -25 -76 -37q-44 -12 -98 -9
l-30 -124h-72l34 145q-24 13 -48 34q-23 22 -42 53q-19 32 -30 73q-12 41 -12 92q0 69 18 130q17 62 53 108q36 47 89 72q54 25 126 23zM524 721q-58 2 -100 -45t-60 -118q-18 -72 -5 -142q12 -70 63 -114z" />
    <glyph glyph-name="uniFFE1" unicode="&#xffe1;" 
d="M469 878q64 13 116 7q53 -7 91 -31q39 -25 63 -66q25 -41 33 -97l-86 -34q-4 46 -17 77t-35 49q-21 17 -52 23q-30 5 -70 0q-34 -6 -57 -24t-35 -48t-13 -73q0 -42 11 -98h200v-81h-183q5 -20 10 -45t9 -53q4 -29 6 -57t0 -54q12 -10 27 -20q14 -10 34 -20q19 -10 47 -18
q28 -9 67 -15q46 6 75 23q28 16 45 45q16 28 25 69q10 42 17 98l77 -34q-6 -47 -16 -90q-9 -43 -27 -79t-49 -63q-30 -27 -78 -42q-32 -8 -64 -5t-64 15q-33 11 -68 27q-35 17 -73 36q-33 -44 -78 -65q-45 -20 -90 -18q-46 2 -80 23q-35 22 -47 60q-7 50 7 84q15 34 48 50
q32 17 77 12q46 -4 99 -31q8 68 -17 167h-150v81h124q-12 53 -12 103t15 93t49 73q33 31 89 46zM260 277q-16 -5 -27 -13q-10 -8 -15 -18t-4 -19q1 -10 7 -18q15 -13 34 -18t39 -1t37 17q17 14 27 36q-68 38 -98 34z" />
    <glyph glyph-name="uniFFE5" unicode="&#xffe5;" 
d="M422 529l-205 358h107l188 -350l196 350h111l-218 -358h209v-86h-252v-81h252v-85h-252v-192h-85v192h-256v85h256v81h-256v86h205z" />
    <glyph glyph-name="male" unicode="&#x2642;" 
d="M277 614l235 303l226 -299l-22 -25l-175 187v-307q87 -14 129 -73t39 -132t-52 -129t-145 -63q-98 6 -147 62q-50 55 -53 129q-3 73 38 133q42 59 127 73v307l-179 -187zM512 409q-66 -2 -98 -41q-33 -40 -33 -92t33 -94q32 -41 98 -46q67 4 101 44q33 41 33 94t-33 93
q-34 40 -101 42z" />
    <glyph glyph-name="female" unicode="&#x2640;" 
d="M477 520q-83 11 -125 69q-42 59 -40 133q2 73 52 130q49 57 148 65q100 -8 150 -65q49 -57 50 -130q1 -74 -42 -133q-44 -58 -129 -69v-94h261v-64h-261v-286h-64v286h-260v64h260v94zM512 853q-69 -2 -102 -43q-34 -40 -33 -93q1 -54 35 -94q34 -41 100 -43q65 2 99 43
q34 40 35 94q1 53 -32 93q-33 41 -102 43z" />
    <glyph glyph-name="angle" unicode="&#x2220;" 
d="M166 174l678 640l43 -42l-567 -534h524v-64h-678z" />
    <glyph glyph-name="perpendicular" unicode="&#x22a5;" 
d="M477 238v576h64v-576h303v-64h-674v64h307z" />
    <glyph glyph-name="uni2312" unicode="&#x2312;" 
d="M4 797q67 50 129 84q62 35 122 56q59 22 120 32q60 11 124 12q72 -1 137 -11t127 -31t125 -56q62 -35 127 -86l-38 -47q-62 45 -119 77q-56 32 -111 52q-56 19 -115 29q-58 9 -125 9q-60 -1 -115 -9q-54 -8 -108 -25q-54 -18 -113 -49t-129 -79z" />
    <glyph glyph-name="partialdiff" unicode="&#x2202;" 
d="M392 733q21 35 48 63q27 27 58 43q32 16 68 19q35 4 74 -9q48 -26 75 -71t35 -104q7 -58 -3 -125q-9 -67 -35 -136q-32 -91 -74 -156q-41 -65 -90 -102t-104 -44q-54 -8 -112 16q-36 12 -56 58q-21 45 -20 109q0 64 27 133q28 68 88 127q42 35 83 50q42 15 80 8
q39 -7 72 -36t59 -82q7 23 11 53q4 29 4 63q0 33 -5 66t-18 62q-18 30 -41 42t-50 6q-27 -5 -56 -26q-29 -22 -58 -57zM622 396q0 35 -9 63q-10 28 -28 47t-44 26t-59 1q-36 -10 -67 -38q-30 -27 -52 -68q-22 -40 -29 -89q-8 -48 3 -100q26 -48 64 -56q37 -9 79 15
q41 24 78 75q38 52 64 124z" />
    <glyph glyph-name="gradient" unicode="&#x2207;" 
d="M494 132l-324 742h679l-325 -742h-30zM729 780h-409l204 -469z" />
    <glyph glyph-name="equivalence" unicode="&#x2261;" 
d="M174 678v64h679v-64h-679zM174 477v64h679v-64h-679zM174 277v64h679v-64h-679z" />
    <glyph glyph-name="uni2252" unicode="&#x2252;" 
d="M251 682v111h115v-111h-115zM174 567v64h670v-64h-670zM174 392v64h670v-64h-670zM665 230v111h111v-111h-111z" />
    <glyph glyph-name="section" unicode="&#xa7;" 
d="M418 874q41 11 88 12q47 0 92 -13t78 -43t45 -80l-73 -42q-6 27 -19 47q-12 20 -32 33t-48 20q-29 6 -67 6q-29 -2 -50 -12q-21 -11 -31 -28q-11 -17 -10 -36q2 -20 18 -39q20 -19 50 -31q31 -12 67 -20q35 -9 68 -19t58 -24q32 -21 48 -51q15 -31 11 -64q-5 -33 -30 -64
q-26 -30 -76 -51q48 -18 73 -46q26 -28 30 -61q5 -32 -11 -63q-15 -32 -49 -56q-41 -24 -94 -29q-52 -4 -104 9q-53 12 -93 41q-39 29 -55 73l73 34q20 -40 53 -63t72 -28t75 9q35 14 60 48q14 35 -12 56q-27 21 -74 34q-48 14 -97 26q-48 12 -77 29q-42 26 -62 57
q-20 32 -17 64q3 33 31 61t82 48q-48 25 -72 60t-23 73t27 70q26 33 77 53zM512 580q-60 4 -94 -16q-35 -21 -39 -51q-4 -31 28 -59q32 -29 105 -41q56 0 89 22q32 22 36 54q3 31 -27 57t-98 34z" />
    <glyph glyph-name="uni203B" unicode="&#x203b;" 
d="M110 861l47 47l355 -354l349 354l47 -42l-354 -355l354 -349l-47 -47l-349 350l-359 -350l-43 47l355 349zM512 900q48 -2 72 -31t24 -67q0 -39 -24 -68t-72 -31q-48 2 -72 31t-24 68q0 38 24 67t72 31zM512 328q48 -2 72 -31t24 -67t-24 -67t-72 -31q-48 2 -72 31
t-24 67t24 67t72 31zM226 614q48 -2 72 -31t24 -67t-24 -67t-72 -31q-48 2 -72 31t-24 67t24 67t72 31zM797 614q48 -2 72 -31t24 -67t-24 -67t-72 -31q-48 2 -72 31t-24 67t24 67t72 31z" />
    <glyph glyph-name="uni2606" unicode="&#x2606;" 
d="M384 627l123 358l124 -358h350l-277 -209l123 -376l-320 235l-320 -235l124 376l-273 209h346zM601 588l-94 278l-98 -278h-252l201 -158l-98 -290l252 188l243 -183l-98 285l209 158h-265z" />
    <glyph glyph-name="uni2605" unicode="&#x2605;" 
d="M384 627l123 358l124 -358h350l-277 -209l123 -376l-320 235l-320 -235l124 376l-273 209h346z" />
    <glyph glyph-name="circle" unicode="&#x25cb;" 
d="M512 959q97 0 178 -34q82 -33 142 -94q61 -60 94 -142q34 -81 34 -178q0 -96 -34 -178q-33 -81 -94 -142q-60 -60 -142 -94q-81 -33 -178 -34q-96 1 -178 34q-81 34 -142 94q-60 61 -94 142q-33 82 -34 178q1 97 34 178q34 82 94 142q61 61 142 94q82 34 178 34zM512 913
q-88 -1 -161 -34t-126 -90q-52 -57 -81 -129q-29 -71 -29 -149q2 -87 35 -160q34 -73 90 -127t126 -84t146 -30q90 1 163 34q74 33 127 90t82 128q29 72 29 149q0 78 -29 149q-29 72 -82 129t-127 90q-73 33 -163 34z" />
    <glyph glyph-name="H18533" unicode="&#x25cf;" 
d="M512 959q97 0 178 -34q82 -33 142 -94q61 -60 94 -142q34 -81 34 -178q0 -96 -34 -178q-33 -81 -94 -142q-60 -60 -142 -94q-81 -33 -178 -34q-96 1 -178 34q-81 34 -142 94q-60 61 -94 142q-33 82 -34 178q1 97 34 178q34 82 94 142q61 61 142 94q82 34 178 34z" />
    <glyph glyph-name="uni25CE" unicode="&#x25ce;" 
d="M512 772q128 -4 192 -80t64 -176t-64 -176t-192 -80q-128 4 -192 80t-64 176t64 176t192 80zM512 729q-104 -3 -156 -67q-52 -63 -52 -146q0 -84 52 -147q52 -64 156 -67q104 3 156 67q52 63 52 147q0 83 -52 146q-52 64 -156 67zM512 959q97 0 178 -34q82 -33 142 -94
q61 -60 94 -142q34 -81 34 -178q0 -96 -34 -178q-33 -81 -94 -142q-60 -60 -142 -94q-81 -33 -178 -34q-96 1 -178 34q-81 34 -142 94q-60 61 -94 142q-33 82 -34 178q1 97 34 178q34 82 94 142q61 61 142 94q82 34 178 34zM512 913q-88 -1 -161 -34t-126 -90
q-52 -57 -81 -129q-29 -71 -29 -149q2 -87 35 -160q34 -73 90 -127t126 -84t146 -30q90 1 163 34q74 33 127 90t82 128q29 72 29 149q0 78 -29 149q-29 72 -82 129t-127 90q-73 33 -163 34z" />
    <glyph glyph-name="uni25C7" unicode="&#x25c7;" 
d="M34 511l478 478l473 -478l-473 -473zM512 934l-423 -423l423 -418l418 418z" />
    <glyph glyph-name="uni25C6" unicode="&#x25c6;" 
d="M34 511l478 478l473 -478l-473 -473z" />
    <glyph glyph-name="H22073" unicode="&#x25a1;" 
d="M55 68v896h909v-896h-909zM921 921h-823v-811h823v811z" />
    <glyph glyph-name="filledbox" unicode="&#x25a0;" 
d="M55 68v896h909v-896h-909z" />
    <glyph glyph-name="uni25B3" unicode="&#x25b3;" 
d="M42 119l465 815l470 -815h-935zM900 157l-393 696l-388 -696h781z" />
    <glyph glyph-name="triagup" unicode="&#x25b2;" 
d="M42 119l465 815l470 -815h-935z" />
    <glyph glyph-name="uni25BD" unicode="&#x25bd;" 
d="M512 98l-474 815h939zM900 874h-781l393 -691z" />
    <glyph glyph-name="triagdn" unicode="&#x25bc;" 
d="M512 98l-474 815h939z" />
    <glyph glyph-name="arrowright" unicode="&#x2192;" 
d="M588 657l13 17l354 -158l-354 -162l-13 17l171 119h-759v43h759z" />
    <glyph glyph-name="arrowleft" unicode="&#x2190;" 
d="M64 516l349 158l17 -17l-174 -124h763v-43h-763l174 -115l-12 -17z" />
    <glyph glyph-name="arrowup" unicode="&#x2191;" 
d="M349 614l163 358l157 -358l-21 -13l-115 184v-781h-43v781l-119 -180z" />
    <glyph glyph-name="arrowdown" unicode="&#x2193;" 
d="M490 247v776h43v-776l115 179l17 -13l-153 -350l-163 350l22 9z" />
    <glyph glyph-name="arrowboth" unicode="&#x2194;" 
d="M46 511l346 163l17 -22l-175 -119h555l-179 119l17 17l345 -158l-345 -153l-17 17l179 115h-555l171 -111l-17 -21z" />
    <glyph glyph-name="uni3013" unicode="&#x3013;" 
d="M162 588v47h695v-47h-695zM162 383v47h695v-47h-695z" />
    <glyph glyph-name="guillemotleft" unicode="&#xab;" 
d="M46 511l619 367v-51l-537 -316l537 -307v-51zM358 511l623 367v-51l-538 -316l538 -307v-51z" />
    <glyph glyph-name="guillemotleft" unicode="&#x226a;" 
d="M46 511l619 367v-51l-537 -316l537 -307v-51zM358 511l623 367v-51l-538 -316l538 -307v-51z" />
    <glyph glyph-name="guillemotright" unicode="&#xbb;" 
d="M38 827v51l623 -367l-623 -358v51l538 307zM354 827v51l623 -367l-623 -358v51l537 307z" />
    <glyph glyph-name="guillemotright" unicode="&#x226b;" 
d="M38 827v51l623 -367l-623 -358v51l538 307zM354 827v51l623 -367l-623 -358v51l537 307z" />
    <glyph glyph-name="radical" unicode="&#x221a;" 
d="M281 221l252 802h486v-42h-456l-303 -939h-39l-89 320l-68 -47l-26 34l166 120z" />
    <glyph glyph-name="uni223D" unicode="&#x223d;" 
d="M106 563q15 45 41 75q27 29 63 43q37 14 82 10q44 -4 96 -26l-30 -60q-39 15 -72 16q-34 1 -61 -11q-26 -11 -42 -35q-15 -24 -17 -59q0 -42 18 -71q17 -29 46 -42q30 -13 67 -7t78 34l205 197q64 59 149 64q43 0 80 -17q36 -18 60 -49q25 -32 35 -74q9 -43 0 -95
q-10 -41 -32 -71q-22 -31 -58 -48q-35 -17 -86 -15t-118 27l30 60q54 -24 95 -23t67 22q26 20 36 57t2 85q-10 32 -32 51q-22 18 -52 23q-30 4 -66 -6q-35 -11 -72 -38l-196 -192q-51 -51 -132 -60q-48 0 -88 16q-39 17 -65 47q-26 31 -35 74q-8 43 4 98z" />
    <glyph glyph-name="proportional" unicode="&#x221d;" 
d="M550 567q27 40 60 70q34 31 73 48t84 19q44 3 94 -13l-17 -60q-32 8 -64 9q-32 0 -64 -11q-32 -12 -64 -40t-64 -78q34 -46 65 -74t61 -40t61 -11q31 2 65 15l26 -56q-46 -20 -89 -21t-82 15t-75 47t-70 74q-43 -59 -90 -93q-46 -34 -92 -44q-46 -11 -88 0q-42 10 -76 39
q-34 28 -51 71q-16 43 -13 91q4 48 32 90t84 68q43 15 79 15q37 0 71 -15q34 -14 69 -43t75 -72zM512 511q-45 70 -102 98q-58 29 -109 19t-77 -53q-27 -43 -11 -115q20 -45 53 -64t74 -12q41 6 86 38q44 32 86 89z" />
    <glyph glyph-name="uni2235" unicode="&#x2235;" 
d="M192 695v128h128v-128h-128zM704 695v128h128v-128h-128zM443 191v128h128v-128h-128z" />
    <glyph glyph-name="integral" unicode="&#x222b;" 
d="M477 785q19 73 55 112q37 39 79 49t78 -4t53 -47q22 -46 5 -70q-16 -24 -45 -25q-29 0 -45 24q-15 25 8 76q-18 18 -40 19t-42 -19t-33 -63q-13 -44 -13 -116q-1 -74 1 -134q3 -61 7 -114q4 -52 6 -100t-1 -96q-10 -83 -33 -132q-23 -50 -56 -73t-71 -24q-39 -2 -79 11
q-29 12 -43 33q-14 22 -13 44q1 23 16 39q15 15 44 16q24 -3 34 -16t10 -31q1 -17 -6 -33q-6 -16 -16 -26q32 -3 56 3t41 21t26 39q10 24 13 56q4 106 1 192q-3 87 -7 158q-4 70 -3 128q1 57 13 103z" />
    <glyph glyph-name="uni222C" unicode="&#x222c;" 
d="M260 785q19 73 55 112q37 39 79 49t78 -4q35 -14 52 -47q22 -46 5 -70q-16 -24 -45 -25q-29 0 -44 24q-16 25 8 76q-18 18 -40 19t-42 -19t-33 -63q-13 -44 -13 -116q-2 -74 1 -134q3 -61 7 -114q3 -52 5 -100t-1 -96q-10 -83 -33 -132q-23 -50 -56 -73t-71 -24
q-39 -2 -79 11q-28 12 -42 33q-14 22 -13 44q1 23 16 39q15 15 44 16q24 -3 34 -16t10 -31q0 -17 -6 -33q-7 -16 -17 -26q32 -3 56 3t41 21t27 39t13 56q4 106 1 192q-3 87 -7 158q-4 70 -3 128q1 57 13 103zM699 785q19 73 55 112q37 39 79 49t78 -4t53 -47q20 -46 3 -70
q-16 -24 -45 -25q-28 0 -43 24q-15 25 8 76q-18 18 -40 19t-42 -19t-33 -63q-13 -44 -13 -116q-1 -74 1 -134q3 -61 7 -114q4 -52 6 -100t-1 -96q-10 -83 -33 -132q-23 -50 -56 -73t-71 -24q-39 -2 -79 11q-29 12 -43 33q-14 22 -13 44q1 23 16 39q15 15 44 16q24 -3 34 -16
t10 -31q0 -17 -6 -33q-7 -16 -17 -26q32 -3 56 3q25 6 41 21q17 15 27 39t13 56q4 106 1 192q-3 87 -7 158q-4 70 -3 128q1 57 13 103z" />
    <glyph glyph-name="element" unicode="&#x2208;" 
d="M358 814h512v-42h-478q-42 2 -76 -12q-35 -13 -60 -42t-40 -75q-14 -46 -16 -110h670v-43h-670q0 -34 11 -72q11 -39 33 -73t57 -57q35 -22 83 -24h486v-43h-499q-109 3 -163 90q-54 88 -55 204q0 115 51 204q52 89 154 95z" />
    <glyph glyph-name="suchthat" unicode="&#x220b;" 
d="M149 772v42h495q114 -3 169 -91q56 -88 55 -205q0 -117 -56 -205q-55 -89 -164 -92h-499v43h491q48 5 82 26q34 22 56 54q21 32 31 69q10 38 10 77h-670v43h670q0 43 -8 84t-29 74t-58 54q-38 22 -97 27h-478z" />
    <glyph glyph-name="reflexsubset" unicode="&#x2286;" 
d="M345 844h525v-42h-486q-96 -3 -143 -67t-45 -148q1 -84 49 -147t143 -65h482v-43h-495q-113 2 -169 77q-55 75 -56 175q-1 99 49 176t146 84zM157 149v42h713v-42h-713z" />
    <glyph glyph-name="reflexsuperset" unicode="&#x2287;" 
d="M149 802v42h512q110 -5 165 -82q55 -76 53 -175q-2 -100 -61 -176q-60 -75 -178 -79h-491v43h478q102 5 153 68q51 64 52 147t-48 146q-48 63 -144 66h-491zM149 170v21h712v-42h-712v21z" />
    <glyph glyph-name="propersubset" unicode="&#x2282;" 
d="M358 806h512v-43h-478q-102 -2 -153 -77t-51 -174q-1 -99 49 -175q49 -76 147 -82h486v-42h-499q-114 6 -171 94q-57 89 -58 204t53 203q54 87 163 92z" />
    <glyph glyph-name="propersuperset" unicode="&#x2283;" 
d="M149 763v43h491q117 -6 175 -94t59 -202q0 -115 -57 -203q-58 -88 -173 -94h-495v42h482q99 6 148 81q49 76 48 175q-2 99 -53 173q-51 75 -152 79h-473z" />
    <glyph glyph-name="union" unicode="&#x222a;" 
d="M213 354v507h43v-507q4 -83 79 -125q75 -41 175 -39q99 1 174 46t79 135v490h43v-490q-6 -112 -94 -168q-88 -57 -202 -58q-115 -2 -203 51q-88 52 -94 158z" />
    <glyph glyph-name="intersection" unicode="&#x2229;" 
d="M213 605q5 128 93 192q88 65 204 65q115 0 203 -65q88 -64 93 -192v-465h-43v465q-4 104 -79 156q-75 53 -174 53q-100 0 -175 -53q-75 -52 -79 -156v-465h-43v465z" />
    <glyph glyph-name="logicaland" unicode="&#x2227;" 
d="M157 170l355 661l349 -661h-51l-298 568l-303 -568h-52z" />
    <glyph glyph-name="logicalor" unicode="&#x2228;" 
d="M512 170l-355 661h52l303 -563l298 563h51z" />
    <glyph glyph-name="uniFFE2" unicode="&#xffe2;" 
d="M110 511v47h786v-379h-43v332h-743z" />
    <glyph glyph-name="arrowdblright" unicode="&#x21d2;" 
d="M614 776v55l367 -320l-367 -311v55l136 120h-712v43h764l115 93l-111 99h-768v42h717z" />
    <glyph glyph-name="arrowdblboth" unicode="&#x21d4;" 
d="M38 511l303 291v-60l-103 -98h538l-98 94v64l303 -291l-303 -285v64l98 93h-533l98 -93v-60zM823 601h-627l-90 -90l90 -85h627l90 85z" />
    <glyph glyph-name="universal" unicode="&#x2200;" 
d="M512 110l-384 730h55l124 -230h405l124 230h55zM695 567h-367l184 -350z" />
    <glyph glyph-name="existential" unicode="&#x2203;" 
d="M247 814v43h529v-683h-529v43h486v273h-486v43h486v281h-486z" />
    <glyph glyph-name="acute" unicode="&#xb4;" 
d="M750 721l116 256l98 -56l-179 -222z" />
    <glyph glyph-name="tilde" unicode="&#x2dc;" 
d="M128 844q47 59 91 91q43 31 89 38q46 6 100 -9q55 -16 125 -51q52 -29 91 -39q40 -10 73 -1q34 8 70 34t82 70l55 -52q-40 -43 -80 -74q-41 -30 -83 -45q-41 -16 -86 -14q-44 2 -92 22q-86 50 -144 71q-57 21 -97 16q-40 -4 -72 -32q-33 -28 -67 -76z" />
    <glyph glyph-name="tilde" unicode="&#xff5e;" 
d="M128 844q47 59 91 91q43 31 89 38q46 6 100 -9q55 -16 125 -51q52 -29 91 -39q40 -10 73 -1q34 8 70 34t82 70l55 -52q-40 -43 -80 -74q-41 -30 -83 -45q-41 -16 -86 -14q-44 2 -92 22q-86 50 -144 71q-57 21 -97 16q-40 -4 -72 -32q-33 -28 -67 -76z" />
    <glyph glyph-name="caron" unicode="&#x2c7;" 
d="M251 921l56 56l200 -94l205 94l56 -56l-256 -119z" />
    <glyph glyph-name="breve" unicode="&#x2d8;" 
d="M251 942l64 35q33 -45 83 -69q49 -23 106 -24q56 -1 110 22q53 23 94 71l60 -35q-49 -64 -116 -97t-141 -34q-73 -1 -141 32q-68 32 -119 99z" />
    <glyph glyph-name="hungarumlaut" unicode="&#x2dd;" 
d="M469 635l200 342l86 -56l-239 -324zM695 627l205 350l89 -60l-247 -324z" />
    <glyph glyph-name="ring" unicode="&#x2da;" 
d="M810 703q-67 2 -101 42q-33 40 -33 93q0 52 33 92q34 40 101 42q67 -2 101 -42q33 -40 33 -92q0 -53 -33 -93q-34 -40 -101 -42zM810 917q-37 -1 -55 -25q-18 -23 -18 -54t18 -54q18 -24 55 -25q40 1 60 25q20 23 20 54t-20 54q-20 24 -60 25z" />
    <glyph glyph-name="dotaccent" unicode="&#x2d9;" 
d="M844 853v124h120v-124h-120z" />
    <glyph glyph-name="cedilla" unicode="&#xb8;" 
d="M422 115l30 106h30l-17 -72q72 14 105 -2q32 -16 25 -45q-8 -28 -56 -50q-48 -21 -138 -18v21q54 1 86 13q31 12 44 27q12 15 7 27q-4 11 -22 10z" />
    <glyph glyph-name="ogonek" unicode="&#x2db;" 
d="M546 153l-17 68h34l30 -106q-59 21 -90 14q-30 -6 -29 -25t35 -35q35 -16 105 -14v-21q-47 -2 -82 1q-36 4 -62 13q-25 9 -39 25q-15 15 -18 37q-1 19 13 29q14 9 36 12t45 3q22 -1 39 -1z" />
    <glyph glyph-name="exclamdown" unicode="&#xa1;" 
d="M456 819v102h115v-102h-115zM456 465l34 243h51l30 -243v-355h-115v355z" />
    <glyph glyph-name="questiondown" unicode="&#xbf;" 
d="M452 819v102h119v-102h-119zM302 443q28 27 55 52q28 25 50 54q23 28 35 67q13 38 10 92h98q-2 -53 -12 -94t-26 -73q-17 -32 -40 -58t-50 -48q-28 -20 -48 -45q-21 -25 -29 -53t2 -55q9 -28 41 -52q51 -32 100 -35q48 -3 87 17t64 60q25 39 30 94l94 -42
q-7 -74 -46 -122q-39 -47 -96 -71q-58 -23 -121 -24q-64 -1 -121 20q-44 17 -77 53q-34 35 -49 81q-16 46 -5 94q10 48 54 88z" />
    <glyph glyph-name="uni2236" unicode="&#x2d0;" 
d="M507 648l-98 137h201zM507 379l103 -136h-201z" />
    <glyph glyph-name="uni2236" unicode="&#x2236;" 
d="M507 648l-98 137h201zM507 379l103 -136h-201z" />
    <glyph glyph-name="uni222E" unicode="&#x222e;" 
d="M418 721q-20 97 -3 155q16 58 54 83q37 25 79 21q42 -3 74 -29q31 -32 25 -57q-5 -24 -28 -33q-22 -9 -42 4t-19 56q-14 26 -34 31q-21 5 -39 -15q-19 -20 -25 -68q-6 -47 9 -127l4 -4q98 6 161 -40q63 -47 84 -119q21 -73 -7 -146q-27 -73 -110 -122q14 -68 8 -122
t-31 -89q-25 -34 -67 -43q-42 -8 -98 15q-41 23 -42 48q0 25 20 39q21 14 42 6t23 -50q18 -27 41 -30q23 -2 41 20q18 23 22 70t-14 119q-94 -6 -159 39q-66 44 -91 115t3 146q27 74 119 127zM588 362q59 34 79 90q20 57 4 114q-15 58 -62 94q-48 37 -123 31zM430 674
q-62 -37 -84 -94q-22 -56 -7 -113q16 -56 65 -93q49 -36 129 -33z" />
    <glyph glyph-name="summation" unicode="&#x2211;" 
d="M490 490l-273 401h533l30 -183h-34q-11 33 -26 58q-14 25 -32 43q-18 17 -40 27t-47 13h-252l222 -320l-251 -312h443v128h30v-209h-584z" />
    <glyph glyph-name="product" unicode="&#x220f;" 
d="M192 878v39h631v-39q-90 0 -94 -17v-635q13 -26 94 -22v-38h-273v38q81 0 90 22v635q0 17 -30 17h-205q-30 -4 -30 -12v-645q4 -17 90 -17v-38h-273v38q81 -4 93 17v640q-1 5 -7 8q-5 3 -15 5q-11 2 -28 3q-18 1 -43 1z" />
    <glyph glyph-name="currency" unicode="&#xa4;" 
d="M110 836l39 42l128 -106q46 48 111 69t135 18q69 -3 129 -26q59 -24 94 -66l132 111l35 -42l-124 -111q29 -43 46 -91q16 -49 18 -100q1 -52 -15 -106t-53 -109l132 -123l-43 -43l-132 124q-47 -43 -106 -67q-59 -23 -122 -24t-124 21t-113 70l-132 -124l-39 43l132 123
q-29 42 -46 92q-17 51 -19 105q-3 55 13 109t52 104zM512 802q-139 -4 -209 -87q-70 -82 -70 -190q0 -109 70 -191q70 -83 209 -87q134 4 203 87q69 82 70 191q2 108 -66 190q-68 83 -207 87z" />
    <glyph glyph-name="uni2109" unicode="&#x2109;" 
d="M430 166v747h461v-86h-375v-234h328v-86h-328v-341h-86zM179 738q-66 2 -98 41q-33 39 -33 91t33 91q32 39 98 41q66 -2 98 -41q33 -39 33 -91t-33 -91q-32 -39 -98 -41zM174 951q-37 -1 -55 -25q-18 -23 -18 -54t18 -54q18 -24 55 -25q40 1 60 25q20 23 20 54t-20 54
q-20 24 -60 25z" />
    <glyph glyph-name="perthousand" unicode="&#x2030;" 
d="M64 89l524 896l34 -26l-524 -891zM827 34q-74 2 -111 68q-37 67 -37 156q-1 88 36 155t112 69q74 -3 110 -70q37 -66 37 -154q0 -87 -37 -154q-36 -66 -110 -70zM832 456q-35 0 -53 -60t-19 -140q0 -80 15 -139q16 -60 48 -58q37 -1 53 59q17 60 17 141q-1 81 -17 140
q-15 60 -44 57zM482 34q-74 2 -111 68q-38 67 -38 156q-1 88 37 155q37 67 112 69q74 -3 110 -70q37 -66 37 -154q0 -87 -37 -154q-36 -66 -110 -70zM486 456q-35 0 -53 -60t-19 -140q0 -80 15 -139q16 -60 48 -58q37 -1 54 59t17 141q-1 81 -17 140q-16 60 -45 57zM200 546
q-74 2 -111 68q-37 67 -37 156q-1 88 36 155t112 69q74 -3 110 -70q37 -66 37 -154q0 -87 -37 -154q-36 -66 -110 -70zM204 968q-35 0 -53 -60t-18 -140q-1 -80 15 -139q16 -60 48 -58q37 -1 53 59q17 60 17 141q-1 81 -17 140q-16 60 -45 57z" />
    <glyph glyph-name="uni25C1" unicode="&#x25c1;" 
d="M115 511l772 466v-922zM840 895l-636 -384l636 -375v759z" />
    <glyph glyph-name="uni25C0" unicode="&#x25c0;" 
d="M115 511l772 466v-922z" />
    <glyph glyph-name="uni25B7" unicode="&#x25b7;" 
d="M132 55v917l776 -461zM814 511l-635 384v-759z" />
    <glyph glyph-name="uni25B6" unicode="&#x25b6;" 
d="M132 55v917l776 -461z" />
    <glyph glyph-name="uni2664" unicode="&#x2664;" 
d="M157 490q49 61 102 129q52 67 102 132q49 65 88 120q38 56 58 93q27 -46 66 -100t87 -117q49 -62 106 -134q57 -71 121 -153q47 -119 -4 -196q-24 -35 -59 -54q-34 -19 -75 -21t-84 13q-43 16 -85 49q6 -29 12 -52t13 -44t15 -44q9 -23 20 -52h-256q8 23 17 50t17 55
q8 27 14 51q5 24 7 40q-18 -16 -39 -30t-47 -24q-27 -10 -59 -13q-33 -3 -73 3q-34 10 -59 38q-26 28 -38 68q-12 41 -5 90q7 50 38 103zM507 849q-37 -55 -71 -102q-35 -47 -68 -90q-34 -43 -67 -83t-67 -80q-25 -32 -38 -65q-13 -32 -14 -63q-1 -30 10 -56q11 -27 34 -46
q30 -16 62 -16q31 -1 62 14q31 14 60 43q29 28 55 70h34l-4 -48q-2 -25 -5 -54t-8 -66q-5 -36 -13 -84h81q-6 45 -11 81q-4 36 -6 67q-3 30 -5 56q-2 27 -4 52h39q5 -13 15 -29q9 -17 24 -34q15 -18 36 -34t48 -27q45 -12 79 -2t55 37q20 26 24 61q4 36 -12 75
q-18 32 -54 78q-37 47 -83 103t-95 117q-49 62 -93 125z" />
    <glyph glyph-name="spade" unicode="&#x2660;" 
d="M157 490q49 61 102 129q52 67 102 132q49 65 88 120q38 56 58 93q27 -46 66 -100t87 -117q49 -62 106 -134q57 -71 121 -153q47 -119 -4 -196q-24 -35 -59 -54q-34 -19 -75 -21t-84 13q-43 16 -85 49q6 -29 12 -52t13 -44t15 -44q9 -23 20 -52h-256q8 23 17 50t17 55
q8 27 14 51q5 24 7 40q-18 -16 -39 -30t-47 -24q-27 -10 -59 -13q-33 -3 -73 3q-34 10 -59 38q-26 28 -38 68q-12 41 -5 90q7 50 38 103z" />
    <glyph glyph-name="uni2661" unicode="&#x2661;" 
d="M209 947q42 16 85 21q43 4 83 -10t72 -52q33 -39 54 -109h13q11 44 36 81q24 38 62 62q37 24 86 29q49 4 110 -18q55 -31 85 -80t32 -113t-26 -137q-29 -73 -91 -152q-64 -77 -116 -145t-90 -122q-39 -54 -62 -90t-30 -49q-59 86 -106 150q-48 65 -88 116t-77 98t-75 97
q-45 64 -64 126q-19 61 -12 116q6 55 36 101t83 80zM465 712q-8 53 -23 92t-38 63t-56 32q-32 9 -75 1q-33 -10 -61 -35q-29 -25 -46 -62t-15 -83q1 -46 28 -98q25 -37 64 -90q39 -52 86 -112t95 -121q47 -61 88 -116q39 57 74 103t69 91q35 44 75 96t89 120q29 48 41 94
q11 45 5 85q-7 40 -32 73q-25 32 -70 55q-43 9 -79 0q-35 -10 -62 -35q-27 -26 -44 -64q-18 -39 -24 -89h-89z" />
    <glyph glyph-name="heart" unicode="&#x2665;" 
d="M209 947q42 16 85 21q43 4 83 -10t72 -52q33 -39 54 -109h13q11 44 36 81q24 38 62 62q37 24 86 29q49 4 110 -18q55 -31 85 -80t32 -113t-26 -137q-29 -73 -91 -152q-64 -77 -116 -145t-90 -122q-39 -54 -62 -90t-30 -49q-59 86 -106 150q-48 65 -88 116t-77 98t-75 97
q-45 64 -64 126q-19 61 -12 116q6 55 36 101t83 80z" />
    <glyph glyph-name="uni2667" unicode="&#x2667;" 
d="M345 631q-35 52 -43 109q-7 57 13 107q20 51 67 84t121 37q72 -2 123 -31q50 -29 75 -77q24 -48 20 -109q-5 -60 -43 -124l4 -5q71 27 127 15q55 -11 91 -51t48 -99q11 -60 -6 -129q-26 -58 -68 -89q-43 -31 -93 -39q-51 -8 -102 6q-51 13 -95 45q1 -16 4 -34
q3 -19 9 -44t17 -60q10 -35 26 -84h-261q5 17 15 45q9 28 18 62q9 33 14 63q5 31 0 52q-44 -41 -98 -52q-55 -11 -107 5q-53 15 -92 51q-39 37 -53 90q-12 60 1 115q14 55 50 94q37 40 92 53t126 -10v4zM507 904q-62 -4 -99 -35q-36 -31 -43 -79t18 -102q26 -54 86 -104
l-47 -55q-38 38 -89 48t-99 -6q-47 -17 -76 -58q-29 -42 -22 -108q22 -62 64 -89q43 -27 91 -22t89 39q40 33 59 93h47v-35t-2 -52q-1 -32 -3 -83q-3 -51 -8 -129h73q-3 33 -6 73q-2 41 -4 83q-1 42 -2 80q-1 37 -1 63h43q20 -61 60 -94q39 -33 86 -38q47 -6 89 16
q42 21 67 69q15 63 -1 110q-17 47 -57 71q-41 24 -98 18q-56 -6 -121 -49l-43 55q56 50 80 104t16 102q-7 48 -44 79t-103 35z" />
    <glyph glyph-name="club" unicode="&#x2663;" 
d="M345 631q-35 52 -43 109q-7 57 13 107q20 51 67 84t121 37q72 -2 123 -31q50 -29 75 -77q24 -48 20 -109q-5 -60 -43 -124l4 -5q71 27 127 15q55 -11 91 -51t48 -99q11 -60 -6 -129q-26 -58 -68 -89q-43 -31 -93 -39q-51 -8 -102 6q-51 13 -95 45q1 -16 4 -34
q3 -19 9 -44t17 -60q10 -35 26 -84h-261q5 17 15 45q9 28 18 62q9 33 14 63q5 31 0 52q-44 -41 -98 -52q-55 -11 -107 5q-53 15 -92 51q-39 37 -53 90q-12 60 1 115q14 55 50 94q37 40 92 53t126 -10v4z" />
    <glyph glyph-name="uni25C9" unicode="&#x2299;" 
d="M512 708q93 -5 139 -59t46 -124q0 -71 -46 -124t-139 -56q-96 3 -144 57t-48 125q0 70 48 124t144 57zM512 959q97 0 178 -34q82 -33 142 -94q61 -60 94 -142q34 -81 34 -178q0 -96 -34 -178q-33 -81 -94 -142q-60 -60 -142 -94q-81 -33 -178 -34q-96 1 -178 34
q-81 34 -142 94q-60 61 -94 142q-33 82 -34 178q1 97 34 178q34 82 94 142q61 61 142 94q82 34 178 34zM512 913q-88 -1 -161 -34t-126 -90q-52 -57 -81 -129q-29 -71 -29 -149q2 -87 35 -160q34 -73 90 -127t126 -84t146 -30q90 1 163 34q74 33 127 90t82 128q29 72 29 149
q0 78 -29 149q-29 72 -82 129t-127 90q-73 33 -163 34z" />
    <glyph glyph-name="uni25C9" unicode="&#x25c9;" 
d="M512 708q93 -5 139 -59t46 -124q0 -71 -46 -124t-139 -56q-96 3 -144 57t-48 125q0 70 48 124t144 57zM512 959q97 0 178 -34q82 -33 142 -94q61 -60 94 -142q34 -81 34 -178q0 -96 -34 -178q-33 -81 -94 -142q-60 -60 -142 -94q-81 -33 -178 -34q-96 1 -178 34
q-81 34 -142 94q-60 61 -94 142q-33 82 -34 178q1 97 34 178q34 82 94 142q61 61 142 94q82 34 178 34zM512 913q-88 -1 -161 -34t-126 -90q-52 -57 -81 -129q-29 -71 -29 -149q2 -87 35 -160q34 -73 90 -127t126 -84t146 -30q90 1 163 34q74 33 127 90t82 128q29 72 29 149
q0 78 -29 149q-29 72 -82 129t-127 90q-73 33 -163 34z" />
    <glyph glyph-name="uni25C8" unicode="&#x25c8;" 
d="M29 511l483 487l486 -487l-486 -486zM512 930l-414 -419l414 -418l418 418zM226 511l286 291l285 -291l-285 -281z" />
    <glyph glyph-name="uni25A3" unicode="&#x25a3;" 
d="M93 98v832h832v-832h-832zM883 887h-747v-747h747v747zM230 238v555h555v-555h-555z" />
    <glyph glyph-name="uni25D0" unicode="&#x25d0;" 
d="M512 917v-811q91 2 166 35q74 33 128 89q53 56 82 128q29 73 29 153q0 69 -25 139q-25 71 -75 132q-50 60 -127 97q-76 37 -178 38zM512 959q97 0 178 -34q82 -33 142 -94q61 -60 94 -142q34 -81 34 -178q0 -96 -34 -178q-33 -81 -94 -142q-60 -60 -142 -94
q-81 -33 -178 -34q-96 1 -178 34q-81 34 -142 94q-60 61 -94 142q-33 82 -34 178q1 97 34 178q34 82 94 142q61 61 142 94q82 34 178 34z" />
    <glyph glyph-name="uni25D1" unicode="&#x25d1;" 
d="M512 917q-87 0 -161 -31q-74 -30 -129 -85t-85 -129q-31 -74 -31 -161q1 -87 33 -160q32 -74 88 -129q57 -55 130 -85q73 -31 155 -31v811zM512 959q97 0 178 -34q82 -33 142 -94q61 -60 94 -142q34 -81 34 -178q0 -96 -34 -178q-33 -81 -94 -142q-60 -60 -142 -94
q-81 -33 -178 -34q-96 1 -178 34q-81 34 -142 94q-60 61 -94 142q-33 82 -34 178q1 97 34 178q34 82 94 142q61 61 142 94q82 34 178 34z" />
    <glyph glyph-name="shade" unicode="&#x2592;" 
d="M85 89v853h849v-853h-849zM891 900h-763v-768h763v768zM256 831q26 -1 38 -17q13 -15 13 -36t-13 -36q-12 -16 -38 -17q-27 1 -41 17q-14 15 -14 36t14 36q14 16 41 17zM507 831q26 -1 39 -17q13 -15 13 -36t-13 -36q-13 -16 -39 -17q-27 1 -40 17q-14 15 -14 36t14 36
q13 16 40 17zM384 703q26 -1 38 -17q13 -15 13 -36t-13 -36q-12 -16 -38 -17q-27 1 -41 17q-14 15 -14 36t14 36q14 16 41 17zM763 831q26 -1 39 -17q13 -15 13 -36t-13 -36q-13 -16 -39 -17q-27 1 -40 17q-14 15 -14 36t14 36q13 16 40 17zM256 575q26 -1 38 -17
q13 -15 13 -36t-13 -36q-12 -16 -38 -17q-27 1 -41 17q-14 15 -14 36t14 36q14 16 41 17zM507 575q26 -1 39 -17q13 -15 13 -36t-13 -36q-13 -16 -39 -17q-27 1 -40 17q-14 15 -14 36t14 36q13 16 40 17zM635 703q26 -1 39 -17q13 -15 13 -36t-13 -36q-13 -16 -39 -17
q-27 1 -40 17q-14 15 -14 36t14 36q13 16 40 17zM763 575q26 -1 39 -17q13 -15 13 -36t-13 -36q-13 -16 -39 -17q-27 1 -40 17q-14 15 -14 36t14 36q13 16 40 17zM256 319q26 -1 38 -17q13 -15 13 -36t-13 -36q-12 -16 -38 -17q-27 1 -41 17q-14 15 -14 36t14 36
q14 16 41 17zM507 319q26 -1 39 -17q13 -15 13 -36t-13 -36q-13 -16 -39 -17q-27 1 -40 17q-14 15 -14 36t14 36q13 16 40 17zM384 447q26 -1 38 -17q13 -15 13 -36t-13 -36q-12 -16 -38 -17q-27 1 -41 17q-14 15 -14 36t14 36q14 16 41 17zM763 319q26 -1 39 -17
q13 -15 13 -36t-13 -36q-13 -16 -39 -17q-27 1 -40 17q-14 15 -14 36t14 36q13 16 40 17zM635 447q26 -1 39 -17q13 -15 13 -36t-13 -36q-13 -16 -39 -17q-27 1 -40 17q-14 15 -14 36t14 36q13 16 40 17z" />
    <glyph glyph-name="uni25A4" unicode="&#x25a4;" 
d="M85 89v853h849v-853h-849zM891 900h-763v-158h763v158zM891 699h-763v-162h763v162zM891 494h-763v-162h763v162zM891 290h-763v-158h763v158z" />
    <glyph glyph-name="uni25A5" unicode="&#x25a5;" 
d="M85 89v849h849v-849h-849zM298 895h-170v-763h170v763zM494 895h-153v-763h153v763zM695 895h-158v-763h158v763zM891 895h-153v-763h153v763z" />
    <glyph glyph-name="uni25A8" unicode="&#x25a8;" 
d="M85 81v857h857v-857h-857zM494 895h-366v-366zM857 895h-303l-426 -426v-316zM896 866l-730 -739h303l427 419v320zM896 486l-367 -359h367v359z" />
    <glyph glyph-name="uni25A7" unicode="&#x25a7;" 
d="M85 89v849h849v-849h-849zM477 895h-311l725 -716v294zM891 895h-350l350 -358v358zM128 866v-303l430 -431h312zM499 132l-371 371v-371h371z" />
    <glyph glyph-name="uni25A6" unicode="&#x25a6;" 
d="M85 89v849h849v-849h-849zM298 895h-170v-153h170v153zM494 895h-153v-153h153v153zM695 895h-158v-153h158v153zM891 895h-153v-153h153v153zM298 699h-170v-162h170v162zM494 699h-153v-162h153v162zM695 699h-158v-162h158v162zM891 699h-153v-162h153v162zM298 494
h-170v-162h170v162zM494 494h-153v-162h153v162zM695 494h-158v-162h158v162zM891 494h-153v-162h153v162zM298 290h-170v-158h170v158zM494 290h-153v-158h153v158zM695 290h-158v-158h158v158zM891 290h-153v-158h153v158z" />
    <glyph glyph-name="uni25A9" unicode="&#x25a9;" 
d="M85 85v853h853v-853h-853zM494 895h-324l162 -162zM302 699l-174 175v-350zM891 874l-170 -171l157 -157l13 12v316zM665 703l-153 154l-150 -149l154 -154zM691 674l-145 -150l158 -158l145 150zM328 669l-154 -153l154 -150l154 154zM507 490l-149 -153l158 -158
l153 153zM294 332l-149 154l-17 -17v-307zM891 473l-13 13l-145 -145l158 -158v290zM324 302l-171 -170h316l13 13zM695 302l-154 -157l13 -13h316zM857 895h-324l162 -162z" />
    <glyph glyph-name="uni2668" unicode="&#x2668;" 
d="M448 729q7 28 17 60q11 32 22 67q12 34 21 67t12 62q23 -19 28 -56t0 -80q-6 -43 -14 -79q-7 -37 -10 -54q2 -19 12 -46q9 -26 20 -57q12 -32 21 -66q9 -35 11 -70q-6 -28 -17 -58q-10 -31 -24 -63q-14 -33 -31 -69q-18 -37 -39 -78q-17 15 -18 43q0 27 8 62t18 71t14 67
q-2 37 -10 75q-7 37 -16 73t-16 69t-9 60zM311 627q-6 47 -3 84t13 71q10 33 25 68q15 36 33 80q13 -12 17 -35q5 -22 4 -52q-1 -29 -7 -60t-14 -58q-1 -23 6 -53q8 -31 18 -66q10 -34 18 -70q9 -35 9 -67q-3 -17 -13 -46q-9 -30 -23 -66t-30 -72q-16 -37 -32 -68
q-9 11 -13 29t-3 44q1 25 7 59q7 34 18 77q3 27 3 50t-4 46q-3 22 -11 48q-7 25 -18 57zM618 644q-9 30 -9 63q1 32 8 67q8 35 19 74q12 39 25 82q17 -20 25 -46q7 -27 8 -55q0 -29 -5 -56q-4 -27 -11 -48q8 -29 17 -55q10 -27 18 -54q9 -27 14 -57q6 -30 6 -65
q-7 -33 -20 -74q-14 -41 -32 -82q-17 -41 -35 -74q-17 -32 -32 -47q-12 14 -11 41q1 26 10 61t22 76q12 42 22 87q0 6 -1 17q-2 12 -6 30q-4 19 -12 47q-7 28 -20 68zM281 452q13 -5 9 -17q-62 -40 -96 -71t-45 -55q-11 -25 -4 -46q8 -21 29 -42q41 -27 104 -47
q64 -19 145 -26q80 -6 170 6q90 11 183 46q56 25 84 50q29 24 29 51q-1 26 -30 58q-30 31 -91 71q0 13 25 9q74 -29 114 -67q41 -38 49 -80t-16 -83q-25 -41 -83 -77q-80 -48 -180 -71t-206 -19t-203 36q-97 31 -170 92q-36 36 -37 77q0 40 28 80t77 73q50 32 115 52z" />
    <glyph glyph-name="uni260F" unicode="&#x260f;" 
d="M456 874q98 2 180 -4t147 -25q65 -20 113 -60q47 -40 76 -107q8 -26 8 -45t-9 -31q-9 -13 -26 -18q-18 -6 -45 -4q-53 8 -85 19q-33 11 -48 25q-16 14 -17 31q-1 16 9 36q17 38 -9 51l-55 4q-4 -15 -2 -39q1 -25 10 -55q8 -30 25 -61t44 -58q29 -23 52 -55q24 -32 41 -74
q17 -41 26 -90t9 -105q-1 -7 -5 -12q-3 -5 -8 -8q-5 -4 -13 -6q-7 -3 -17 -4h-687q-11 0 -20 2q-9 3 -15 7q-7 5 -11 12q-3 7 -5 17q-2 15 -2 42t6 63q5 35 20 75t44 80q45 44 72 78q28 33 42 61t20 58t7 68q-27 5 -44 2q-18 -4 -26 -12q-9 -9 -11 -22q-1 -13 4 -28
q10 -14 11 -28q1 -13 -9 -25q-10 -13 -32 -24t-59 -21q-40 -10 -68 -8q-27 2 -41 17t-13 43q1 29 19 72q26 48 67 78q41 31 93 48q52 18 113 27q60 8 124 13zM486 840q-307 4 -401 -149q-8 -22 -10 -39q-2 -16 1 -26t9 -14q7 -4 17 -2q35 3 59 8q24 4 39 10q14 5 22 11
q7 7 8 13q-15 32 -16 58q-1 25 15 42q15 17 50 24t92 4q-3 -49 -10 -87q-6 -37 -17 -67q-11 -31 -28 -57q-18 -26 -43 -53q-99 -86 -120 -218q-21 -89 30 -89h666q18 5 20 37q3 31 -9 77t-37 94q-26 49 -64 90q-27 21 -47 46q-19 26 -32 59q-13 32 -19 74q-7 41 -9 94
q51 0 81 -5q31 -6 45 -15q15 -10 20 -23q4 -13 4 -29q-30 -56 30 -77q44 -16 69 -19t34 5t7 26q-2 17 -12 43q-33 51 -74 82q-40 32 -92 48t-120 21q-69 5 -158 3zM405 759q0 13 13 17h183q13 -4 13 -21v-81q-4 -13 -21 -13h-175q-13 0 -13 21v77zM580 742h-141v-51h141v51z
M512 247q-91 3 -137 57t-46 125q0 70 46 124t137 57q91 -3 137 -57q45 -54 45 -124q0 -71 -45 -125q-46 -54 -137 -57zM512 273q75 2 113 48q37 46 37 106q0 59 -37 105q-38 46 -113 48q-75 -2 -113 -48t-38 -105q0 -60 38 -106t113 -48z" />
    <glyph glyph-name="uni260E" unicode="&#x260e;" 
d="M614 772h-209v-56h209v56zM456 866q98 1 181 -4t150 -23q66 -18 114 -56q48 -39 76 -105q6 -25 4 -44q-2 -18 -12 -29q-10 -12 -28 -16q-17 -4 -41 -1q-51 10 -81 20t-43 22t-14 27t6 34q25 51 -18 85h-55q-5 -26 -1 -56q3 -31 14 -61q10 -31 27 -58q16 -28 37 -47
q33 -30 60 -67q26 -37 43 -80q18 -43 26 -93q9 -49 7 -105q0 -8 -4 -15q-3 -6 -10 -11q-7 -4 -16 -7q-10 -2 -21 -2h-687q-19 0 -30 3q-11 2 -17 7q-5 5 -7 14q-1 8 -1 19q0 15 1 43q2 29 8 66t21 76t42 75q45 44 73 78t43 65t22 68q6 37 7 88q-38 6 -58 -2q-19 -8 -26 -24
q-6 -16 -4 -34q2 -19 7 -34q6 -14 5 -27t-11 -23q-10 -11 -31 -20q-20 -9 -52 -15q-40 -11 -68 -11q-28 -1 -42 12q-15 13 -15 40q-1 27 14 70q29 48 72 78q42 30 95 47t113 24q61 7 125 9zM512 234q-99 3 -149 62t-50 137q0 77 50 136t149 62q99 -3 149 -62q49 -59 49 -136
q0 -78 -49 -137q-50 -59 -149 -62z" />
    <glyph glyph-name="uni261C" unicode="&#x261c;" 
d="M46 703q0 26 22 26h563q14 -2 29 -7q14 -5 30 -14q15 -9 31 -21t34 -26q21 -4 81 -4q-4 38 25 51h94q13 -5 17 -22v-354q-4 -17 -21 -17h-98q-17 4 -17 51q-34 9 -81 0q-15 -11 -29 -20q-15 -10 -29 -18q-15 -8 -31 -15q-15 -6 -31 -11h-251q-35 -4 -35 26v166
q-13 5 -21 16t-11 26q-4 14 -3 30t6 31h-256q-18 0 -18 21v85zM627 691h-525q-8 -5 -12 -12t-4 -14q-1 -7 3 -14q3 -7 9 -12h414v-42h-146q-6 -7 -9 -15q-2 -9 -1 -18t5 -16t10 -11h141v-38h-111q-6 -5 -10 -13q-3 -8 -3 -17t3 -17q4 -8 10 -13h111v-43h-111q-6 -5 -9 -13
t-3 -16q1 -9 6 -16t14 -10h213q60 21 137 68h77v209q-77 0 -107 9q-13 11 -25 21q-13 10 -26 19q-13 8 -25 14q-13 7 -26 10zM934 657q-5 6 -12 10q-8 3 -16 3q-8 1 -16 -2q-7 -2 -12 -7v-295q5 -6 12 -10q8 -3 16 -3t16 3q7 4 12 10v291z" />
    <glyph glyph-name="uni261E" unicode="&#x261e;" 
d="M183 661q30 -4 57 3t50 20t43 25q20 13 38 20h580q13 -8 19 -27q7 -18 7 -39t-5 -39q-6 -19 -17 -27h-256v-86q-8 -12 -30 -12v-175q-8 -22 -34 -22h-256q-19 5 -34 11q-14 5 -28 13q-14 7 -30 16q-15 9 -36 20h-68q-4 -38 -26 -47h-98q-13 0 -13 13v363q5 12 18 17h102
q17 -13 17 -47zM917 691h-533q-33 -22 -59 -37q-25 -14 -46 -21q-22 -8 -45 -10q-23 -3 -51 -1v-221h68q43 -18 128 -60h239q6 5 10 12q3 8 3 16t-3 15q-4 7 -10 12h-115v43h115q8 5 12 12q5 8 5 17q0 8 -5 16q-4 9 -12 15h-115v38h149q6 4 10 12q3 8 3 18t-3 18
q-4 8 -10 12h-149v42h414q8 7 12 14t4 14t-4 13t-12 11zM140 661q-5 6 -12 10q-7 3 -15 3t-16 -3q-7 -4 -12 -10v-295q3 -8 10 -12q6 -4 14 -4t16 4t15 12v295z" />
    <glyph glyph-name="paragraph" unicode="&#xb6;" 
d="M460 977h282v-926h-43v883h-158v-883h-42v490q-123 8 -187 69q-65 62 -69 143q-5 80 49 145t168 79zM499 930q-102 -3 -154 -52q-51 -50 -51 -115t51 -116q52 -50 154 -54v337z" />
    <glyph glyph-name="dagger" unicode="&#x2020;" 
d="M469 772q-13 43 -19 81q-7 38 -4 67q2 29 16 46t41 19q32 0 48 -12q16 -13 20 -39q4 -27 -2 -68t-19 -99q49 19 83 24q34 4 54 -3q20 -8 29 -25q9 -18 9 -42q-5 -16 -16 -29q-11 -12 -31 -18q-19 -5 -49 -1q-30 5 -71 22q-1 -13 2 -26q3 -14 10 -27q8 -14 19 -28
q11 -13 25 -26q-33 -62 -50 -125q-16 -63 -22 -126t-7 -125q-2 -62 -6 -123q-2 -14 -7 -23t-10 -12q-6 -3 -11 -1t-7 10q-6 42 -9 91q-3 48 -5 100q-3 51 -6 100q-3 50 -9 93q-7 26 -15 49q-9 23 -18 42t-15 33t-8 22q8 4 17 13q9 8 18 20q8 12 15 29q7 18 10 40
q-32 -13 -62 -19q-30 -7 -54 -4q-24 2 -39 15q-14 13 -16 38q-3 18 5 34t28 25t54 7q35 -2 84 -19z" />
    <glyph glyph-name="daggerdbl" unicode="&#x2021;" 
d="M443 883q-13 94 60 102q18 2 32 -4q15 -5 25 -18q10 -12 15 -34q4 -21 1 -51q-18 -55 -26 -111q47 13 102 26q37 0 56 -18q20 -18 19 -42q0 -25 -21 -44q-22 -19 -66 -20q-47 17 -94 30v-89q47 12 111 25q38 -1 55 -20t13 -43q-3 -24 -27 -41t-67 -15l-73 25
q-4 -34 35 -76q12 -11 15 -21q2 -9 -2 -18q-5 -9 -12 -20q-7 -10 -14 -23q-13 -35 -20 -73t-12 -78q-4 -40 -9 -81q-4 -41 -10 -83q-5 -10 -10 -14q-6 -5 -11 -4q-5 0 -10 7q-5 6 -8 19l-8 86q-2 32 -6 65q-5 33 -11 63t-13 54t-13 39q-10 15 -15 25q-6 11 -8 20q-1 8 1 15
q3 7 9 13q30 34 34 81q-38 -8 -68 -21q-45 -4 -69 15t-26 45q-1 25 21 44t70 15q47 -13 81 -25v89q-43 -13 -85 -30q-39 -1 -61 16q-23 16 -26 40q-4 23 13 43q16 19 56 25q52 -8 99 -21q0 21 -22 111z" />
    <glyph glyph-name="arrowupdn" unicode="&#x2195;" 
d="M349 622l163 363l157 -363l-25 -12l-103 145v-482l99 140l21 -12l-149 -350l-163 350l26 12l102 -145v487l-102 -141z" />
    <glyph glyph-name="uni2197" unicode="&#x2197;" 
d="M605 836l359 132l-132 -358l-35 4l43 175l-730 -730l-46 43l721 734l-171 -30z" />
    <glyph glyph-name="uni2199" unicode="&#x2199;" 
d="M183 234l734 734l47 -43l-734 -738l179 39l4 -35l-349 -123l128 350l34 -13z" />
    <glyph glyph-name="uni2196" unicode="&#x2196;" 
d="M200 610l-141 354l359 -133l-5 -29l-175 34l717 -734l-47 -43l-712 721l34 -166z" />
    <glyph glyph-name="uni2198" unicode="&#x2198;" 
d="M51 921l42 47l734 -725l-34 170l34 5l133 -350l-355 128l9 30l166 -39z" />
    <glyph glyph-name="uni266D" unicode="&#x266d;" 
d="M362 51v930h43v-465q83 57 157 54t103 -63q28 -60 -27 -175q-54 -115 -229 -281h-47zM405 119q98 103 134 187q35 83 24 135q-11 51 -54 60q-44 9 -104 -36v-346z" />
    <glyph glyph-name="uni2669" unicode="&#x2669;" 
d="M601 285v692h43v-798q-13 -48 -56 -80q-43 -31 -98 -43q-54 -12 -100 -1q-47 11 -66 47q-17 42 -1 83q17 41 58 71t98 40q57 9 122 -11z" />
    <glyph glyph-name="musicalnote" unicode="&#x266a;" 
d="M473 285v692h47q6 -19 18 -43q12 -25 35 -58q23 -34 63 -81q40 -48 102 -113q39 -47 59 -99q20 -53 16 -110q-5 -58 -41 -121q-37 -63 -111 -131l-30 30q42 37 80 91q37 54 43 118q6 65 -47 134q-53 70 -191 139v-554q-10 -45 -55 -76q-44 -31 -101 -42t-104 2
q-48 13 -64 56q-11 39 2 76q14 38 50 65q37 27 94 35q58 9 135 -10z" />
    <glyph glyph-name="uni266C" unicode="&#x266c;" 
d="M392 900l452 81v-743q-8 -37 -43 -64t-81 -39q-45 -12 -83 -2q-39 10 -53 46q-13 40 5 73t55 52q36 20 79 21t79 -23v419l-363 -64v-483q-11 -54 -49 -86q-37 -32 -83 -41q-47 -8 -84 6q-38 15 -49 53q-8 42 11 73q19 32 55 49t76 16q41 -1 76 -23v679zM802 878l-363 -68
v-55l363 68v55z" />
    <glyph glyph-name="uni327F" unicode="&#x327f;" 
d="M25 516q1 91 36 176q36 84 102 153q65 68 154 108t195 41q103 -1 190 -40q88 -38 153 -101q66 -64 102 -138q36 -75 37 -148h-39q-1 70 -36 139q-35 70 -96 128q-62 58 -141 94q-80 35 -170 36q-83 -1 -161 -33q-79 -33 -143 -91q-63 -57 -101 -132q-38 -74 -39 -158h183
v-34h-226zM320 234v546h76v-247l244 247h106l-243 -243l260 -303h-102l-209 248l-56 -52v-196h-76zM755 477v39h239q-1 -111 -42 -201q-42 -89 -111 -153q-70 -64 -155 -98q-85 -35 -174 -35q-105 1 -193 39q-89 39 -155 104q-66 64 -102 143q-36 80 -37 162h34
q0 -68 34 -139q33 -72 93 -133q61 -61 143 -98q83 -38 183 -39q88 1 167 36t140 94q61 58 96 131q35 72 36 148h-196z" />
    <glyph glyph-name="uni321C" unicode="&#x321c;" 
d="M21 482q-2 48 3 105q4 57 19 120q14 63 42 129t72 132l17 -9q-46 -116 -71 -222q-26 -107 -27 -212q-1 -106 24 -218t79 -239l-17 -9q-26 37 -49 83q-24 47 -42 101q-19 54 -32 115q-13 60 -18 124zM849 955l17 13q30 -44 55 -91q24 -48 42 -104q17 -56 27 -128
q10 -71 12 -163q-5 -54 -15 -107q-10 -54 -26 -106t-40 -105q-23 -52 -55 -105l-17 9q51 129 74 243t22 220q-2 105 -27 210q-24 104 -69 214zM213 827v68h584v-68h-243q1 -33 12 -62q12 -29 42 -57t87 -57t149 -63l-51 -51q-57 21 -100 41q-43 19 -76 40q-33 20 -60 42
q-26 22 -50 48q-22 -22 -44 -41t-51 -39q-30 -19 -75 -42q-44 -23 -111 -53l-56 51q87 33 143 63q55 29 86 57q30 28 44 58q13 30 17 65h-247zM128 443v68h772v-68h-346v-341h-81v341h-345z" />
    <glyph glyph-name="uni2116" unicode="&#x2116;" 
d="M25 166v747h103l243 -598v598h81v-747h-103l-239 584v-584h-85zM512 435q3 125 65 187q61 62 142 62q80 0 141 -62q62 -62 65 -187q-3 -136 -65 -204q-61 -68 -141 -68q-81 0 -142 68q-62 68 -65 204zM716 597q-61 -4 -91 -56q-30 -53 -30 -120q0 -68 30 -120
q30 -51 91 -54q64 3 96 54q32 52 32 120q0 67 -32 120q-32 52 -96 56zM934 166v68h81v-68h-81z" />
    <glyph glyph-name="uni33C7" unicode="&#x33c7;" 
d="M81 814q36 61 94 88q57 27 118 19q60 -9 107 -53q46 -45 60 -126l-85 -34q-9 56 -33 88t-56 42t-63 1q-31 -10 -53 -37q-32 -45 -50 -108q-17 -63 -21 -132t7 -133q10 -64 34 -110q33 -51 73 -68q39 -17 76 -5q38 11 63 47q26 35 32 90l85 -38q-15 -58 -42 -98
q-28 -40 -64 -62q-37 -22 -80 -27q-42 -5 -87 8q-42 16 -73 46q-31 29 -53 68t-34 84q-12 46 -15 96q-4 40 -3 86q1 45 7 91q6 47 20 92t36 85zM934 166v68h81v-68h-81zM512 435q3 125 65 187q61 62 142 62q80 0 141 -62q62 -62 65 -187q-3 -136 -65 -204q-61 -68 -141 -68
q-81 0 -142 68q-62 68 -65 204zM716 597q-61 -4 -91 -56q-30 -53 -30 -120q0 -68 30 -120q30 -51 91 -54q64 3 96 54q32 52 32 120q0 67 -32 120q-32 52 -96 56z" />
    <glyph glyph-name="trademark" unicode="&#x2122;" 
d="M29 831v82h465v-82h-187v-665h-86v665h-192zM558 166v747h128l86 -508h8l86 508h136v-747h-85v610h-9l-94 -610h-64l-102 623h-8v-623h-82z" />
    <glyph glyph-name="uni33C2" unicode="&#x33c2;" 
d="M192 682q48 0 81 -7q33 -6 53 -26q21 -20 31 -59q11 -38 14 -100v-101t1 -94t2 -78q2 -33 5 -51h-72q-9 34 -13 68q-28 -29 -56 -47q-29 -18 -58 -25q-28 -7 -55 -2q-26 5 -49 23q-22 18 -35 43q-13 26 -17 55t1 58q4 29 17 53t34 42q21 17 52 29q31 11 72 16t94 3
q8 59 -17 106q-15 18 -40 25q-26 8 -54 3t-54 -23q-25 -18 -40 -52l-68 30q8 19 24 38t39 35q22 16 50 26q27 10 58 12zM567 639q30 39 77 43q47 0 81 -60q21 34 49 49q27 15 55 11q27 -4 48 -28q20 -23 27 -66v-422h-72v418q-4 21 -16 32q-13 10 -29 6q-16 -5 -31 -30
q-14 -25 -23 -76v-350h-72v414q-2 21 -13 29t-26 1t-30 -32q-15 -24 -25 -67v-345h-73v508h73v-35zM298 418q-49 5 -87 1t-64 -16q-26 -13 -40 -36q-15 -22 -18 -56q1 -42 21 -65q21 -22 53 -20t68 34q36 31 67 98v60zM401 166v64h72v-64h-72zM938 166v64h73v-64h-73z" />
    <glyph glyph-name="uni33D8" unicode="&#x33d8;" 
d="M76 618q43 56 124 64q75 -1 120 -51q45 -51 61 -127t2 -154q-13 -78 -55 -133q-27 -27 -59 -40q-33 -13 -67 -12q-34 2 -66 19t-60 50v-217h-72v657h72v-56zM204 618q-64 -5 -96 -63q-31 -58 -31 -134q0 -77 31 -134q32 -58 96 -61q58 3 87 61q29 57 29 134q0 76 -29 134
t-87 63zM401 166v64h72v-64h-72zM938 166v64h73v-64h-73zM567 639q30 39 77 43q47 0 81 -60q21 34 49 49q27 15 55 11q27 -4 48 -28q20 -23 27 -66v-422h-72v418q-4 21 -16 32q-13 10 -29 6q-16 -5 -31 -30q-14 -25 -23 -76v-350h-72v414q-2 21 -13 29t-26 1t-30 -32
q-15 -24 -25 -67v-345h-73v508h73v-35z" />
    <glyph glyph-name="uni2121" unicode="&#x2121;" 
d="M46 831v82h410v-82h-158v-665h-85v665h-167zM896 166v747h85v-747h-85zM473 639q43 39 97 51q55 12 107 -9q51 -21 85 -81t35 -165h-320q0 -87 32 -135q33 -48 78 -58q46 -10 86 18t56 94l68 -26q-8 -43 -30 -78q-21 -34 -55 -56q-35 -21 -80 -26t-99 11q-58 25 -91 82
t-41 127q-8 71 10 138q17 67 62 113zM721 511q-1 55 -32 85q-30 29 -73 31q-42 2 -79 -27q-37 -28 -51 -89h235z" />
    <glyph glyph-name="glyph292" unicode="&#x20ac;" 
d="M96 912h864v-768h-864v768zM240 864l288 -288l288 288h-576zM864 816l-288 -288l288 -288v576zM240 192h576l-288 288zM192 816v-576l288 288z" />
    <glyph glyph-name="glyph293" unicode="&#xae;" 
d="M96 912h864v-768h-864v768zM240 864l288 -288l288 288h-576zM864 816l-288 -288l288 -288v576zM240 192h576l-288 288zM192 816v-576l288 288z" />
    <glyph glyph-name="glyph294" unicode="&#x327e;" 
d="M96 912h864v-768h-864v768zM240 864l288 -288l288 288h-576zM864 816l-288 -288l288 -288v576zM240 192h576l-288 288zM192 816v-576l288 288z" />
    <glyph glyph-name="glyph295" 
d="M96 912h864v-768h-864v768zM240 864l288 -288l288 288h-576zM864 816l-288 -288l288 -288v576zM240 192h576l-288 288zM192 816v-576l288 288z" />
    <glyph glyph-name="glyph296" 
d="M96 912h864v-768h-864v768zM240 864l288 -288l288 288h-576zM864 816l-288 -288l288 -288v576zM240 192h576l-288 288zM192 816v-576l288 288z" />
    <glyph glyph-name="glyph297" 
d="M96 912h864v-768h-864v768zM240 864l288 -288l288 288h-576zM864 816l-288 -288l288 -288v576zM240 192h576l-288 288zM192 816v-576l288 288z" />
    <glyph glyph-name="glyph298" 
d="M96 912h864v-768h-864v768zM240 864l288 -288l288 288h-576zM864 816l-288 -288l288 -288v576zM240 192h576l-288 288zM192 816v-576l288 288z" />
    <glyph glyph-name="glyph299" 
d="M96 912h864v-768h-864v768zM240 864l288 -288l288 288h-576zM864 816l-288 -288l288 -288v576zM240 192h576l-288 288zM192 816v-576l288 288z" />
    <glyph glyph-name="glyph300" 
d="M96 912h864v-768h-864v768zM240 864l288 -288l288 288h-576zM864 816l-288 -288l288 -288v576zM240 192h576l-288 288zM192 816v-576l288 288z" />
    <glyph glyph-name="glyph301" 
d="M96 912h864v-768h-864v768zM240 864l288 -288l288 288h-576zM864 816l-288 -288l288 -288v576zM240 192h576l-288 288zM192 816v-576l288 288z" />
    <glyph glyph-name="glyph302" 
d="M96 912h864v-768h-864v768zM240 864l288 -288l288 288h-576zM864 816l-288 -288l288 -288v576zM240 192h576l-288 288zM192 816v-576l288 288z" />
    <glyph glyph-name="glyph303" 
d="M96 912h864v-768h-864v768zM240 864l288 -288l288 288h-576zM864 816l-288 -288l288 -288v576zM240 192h576l-288 288zM192 816v-576l288 288z" />
    <glyph glyph-name="glyph304" 
d="M96 912h864v-768h-864v768zM240 864l288 -288l288 288h-576zM864 816l-288 -288l288 -288v576zM240 192h576l-288 288zM192 816v-576l288 288z" />
    <glyph glyph-name="glyph305" 
d="M96 912h864v-768h-864v768zM240 864l288 -288l288 288h-576zM864 816l-288 -288l288 -288v576zM240 192h576l-288 288zM192 816v-576l288 288z" />
    <glyph glyph-name="glyph306" 
d="M96 912h864v-768h-864v768zM240 864l288 -288l288 288h-576zM864 816l-288 -288l288 -288v576zM240 192h576l-288 288zM192 816v-576l288 288z" />
    <glyph glyph-name="glyph307" 
d="M96 912h864v-768h-864v768zM240 864l288 -288l288 288h-576zM864 816l-288 -288l288 -288v576zM240 192h576l-288 288zM192 816v-576l288 288z" />
    <glyph glyph-name="glyph308" 
d="M96 912h864v-768h-864v768zM240 864l288 -288l288 288h-576zM864 816l-288 -288l288 -288v576zM240 192h576l-288 288zM192 816v-576l288 288z" />
    <glyph glyph-name="glyph309" 
d="M96 912h864v-768h-864v768zM240 864l288 -288l288 288h-576zM864 816l-288 -288l288 -288v576zM240 192h576l-288 288zM192 816v-576l288 288z" />
    <glyph glyph-name="glyph310" 
d="M96 912h864v-768h-864v768zM240 864l288 -288l288 288h-576zM864 816l-288 -288l288 -288v576zM240 192h576l-288 288zM192 816v-576l288 288z" />
    <glyph glyph-name="glyph311" 
d="M96 912h864v-768h-864v768zM240 864l288 -288l288 288h-576zM864 816l-288 -288l288 -288v576zM240 192h576l-288 288zM192 816v-576l288 288z" />
    <glyph glyph-name="glyph312" 
d="M96 912h864v-768h-864v768zM240 864l288 -288l288 288h-576zM864 816l-288 -288l288 -288v576zM240 192h576l-288 288zM192 816v-576l288 288z" />
    <glyph glyph-name="glyph313" 
d="M96 912h864v-768h-864v768zM240 864l288 -288l288 288h-576zM864 816l-288 -288l288 -288v576zM240 192h576l-288 288zM192 816v-576l288 288z" />
    <glyph glyph-name="glyph314" 
d="M96 912h864v-768h-864v768zM240 864l288 -288l288 288h-576zM864 816l-288 -288l288 -288v576zM240 192h576l-288 288zM192 816v-576l288 288z" />
    <glyph glyph-name="glyph315" 
d="M96 912h864v-768h-864v768zM240 864l288 -288l288 288h-576zM864 816l-288 -288l288 -288v576zM240 192h576l-288 288zM192 816v-576l288 288z" />
    <glyph glyph-name="glyph316" 
d="M96 912h864v-768h-864v768zM240 864l288 -288l288 288h-576zM864 816l-288 -288l288 -288v576zM240 192h576l-288 288zM192 816v-576l288 288z" />
    <glyph glyph-name="uniFF01" unicode="&#xff01;" 
d="M448 575v342h128v-342l-39 -256h-47zM452 106v107h119v-107h-119z" />
    <glyph glyph-name="uniFF02" unicode="&#xff02;" 
d="M358 712l102 273l94 -47l-162 -243zM503 712l102 273l94 -47l-162 -243z" />
    <glyph glyph-name="uniFF03" unicode="&#xff03;" 
d="M384 712l25 235h85l-25 -235h136l26 235h85l-25 -235h123l-4 -81h-128l-25 -243h123l-8 -86h-128l-22 -221h-85l21 221h-136l-26 -221h-85l26 221h-137l9 86h136l26 243h-128l8 81h133zM597 631h-141l-26 -243h141z" />
    <glyph glyph-name="uniFF04" unicode="&#xff04;" 
d="M469 900v64h85v-60q28 -3 60 -15q31 -12 63 -33q31 -21 58 -50q27 -30 45 -68l-89 -43q-19 29 -36 50q-16 21 -32 35q-16 15 -33 23t-36 11v-243q26 -13 53 -26t53 -27t48 -31q22 -16 38 -35q34 -44 44 -96q10 -51 -10 -99t-75 -82t-151 -43v-73h-85v73q-40 5 -75 21
q-34 16 -63 40q-29 25 -52 56t-41 66l82 34q55 -106 149 -132v282q-77 30 -149 81q-41 32 -55 81q-15 48 0 100q15 51 65 89q50 39 139 50zM469 814q-55 -4 -84 -29q-29 -24 -31 -58t26 -66t89 -51v204zM554 213q72 6 109 36t38 70q1 41 -35 79q-37 39 -112 62v-247z" />
    <glyph glyph-name="uniFF05" unicode="&#xff05;" 
d="M307 490q-75 3 -113 65q-37 61 -37 142t37 142q36 62 108 65q77 -3 112 -65q36 -61 35 -142q-2 -81 -38 -142q-37 -62 -104 -65zM136 200l700 683l42 -47l-695 -679zM302 831q-38 -2 -57 -42q-18 -40 -18 -92t19 -92t56 -42q37 2 56 42q18 40 18 92t-18 92q-19 40 -56 42
zM725 132q-75 3 -112 65q-38 61 -37 142q0 81 36 142q37 62 109 65q76 -3 112 -65q35 -61 34 -142q-2 -81 -38 -142q-37 -62 -104 -65zM721 473q-39 -2 -57 -42q-19 -40 -19 -92q1 -53 20 -93t56 -42q37 2 55 42q19 40 19 93q0 52 -19 92q-18 40 -55 42z" />
    <glyph glyph-name="uniFF06" unicode="&#xff06;" 
d="M439 900q80 -4 125 -44q45 -41 52 -99q6 -59 -28 -115q-35 -57 -115 -92l171 -171q21 34 38 196l90 -38q0 -32 -6 -67q-5 -34 -14 -67q-8 -33 -18 -60t-18 -45q60 -60 124 -55v-94q-30 -5 -57 -2t-50 12q-23 8 -41 22t-31 32q-39 -30 -85 -50t-94 -28q-49 -8 -95 -4
t-85 22q-58 22 -89 72q-32 50 -32 113q-1 63 35 124t112 105q-60 66 -77 125q-16 58 3 104q20 45 68 73q48 27 117 31zM443 819q-37 1 -65 -14q-27 -16 -36 -44q-10 -28 6 -66t65 -81h5q60 32 85 67q26 34 24 64q-3 30 -25 50q-23 20 -59 24zM392 503q-97 -61 -112 -129
q-16 -67 27 -115q43 -47 122 -48q78 -1 168 70z" />
    <glyph glyph-name="uniFF07" unicode="&#xff07;" 
d="M422 981h154v-158q-2 -23 -16 -40q-13 -17 -33 -29t-42 -17t-42 -4q24 13 39 27q15 15 22 29t7 26q1 13 -4 21h-85v145z" />
    <glyph glyph-name="uniFF08" unicode="&#xff08;" 
d="M913 42q-125 94 -187 214q-62 119 -61 245q1 127 64 244q63 116 188 206l64 -47q-114 -87 -170 -192t-56 -215q1 -110 57 -214q57 -104 169 -190z" />
    <glyph glyph-name="uniFF09" unicode="&#xff09;" 
d="M554 900l68 51q123 -95 186 -211q62 -115 61 -237q0 -123 -64 -241q-63 -118 -191 -220l-60 51q111 89 167 194q55 105 56 214q0 110 -55 212q-56 103 -168 187z" />
    <glyph glyph-name="uniFF0A" unicode="&#xff0a;" 
d="M473 588v231h77v-231l188 145l55 -64l-209 -158l205 -157l-51 -64l-188 145v-235h-77v235l-192 -145l-55 64l209 157l-205 158l51 64z" />
    <glyph glyph-name="uniFF0B" unicode="&#xff0b;" 
d="M477 546v290h69v-290h298v-69h-298v-281h-69v281h-307v69h307z" />
    <glyph glyph-name="uniFF0C" unicode="&#xff0c;" 
d="M42 149v128h128v-132q-6 -18 -17 -33q-10 -15 -26 -26t-37 -17t-48 -6q18 11 31 21q14 9 22 19q8 9 11 20q3 12 0 26h-64z" />
    <glyph glyph-name="uniFF0D" unicode="&#xff0d;" 
d="M170 477v69h674v-69h-674z" />
    <glyph glyph-name="uniFF0E" unicode="&#xff0e;" 
d="M42 149v128h128v-128h-128z" />
    <glyph glyph-name="uniFF0F" unicode="&#xff0f;" 
d="M46 110l862 862l56 -51l-862 -862z" />
    <glyph glyph-name="uniFF10" unicode="&#xff10;" 
d="M294 503q0 97 11 169q10 72 35 119q25 46 67 69q43 23 105 23t104 -20t67 -64q25 -45 35 -118q11 -73 11 -178q-2 -96 -18 -160t-44 -102q-28 -39 -68 -55q-39 -16 -87 -16q-62 1 -105 29q-42 29 -67 77t-35 107q-11 59 -11 120zM507 772q-39 -1 -60 -23t-29 -59t-9 -82
v-92q0 -31 2 -71q1 -40 10 -77t29 -62q21 -24 57 -25q41 1 63 25q22 25 31 62q8 37 10 77t3 71q-1 48 -3 93t-10 81q-9 36 -31 58t-63 24z" />
    <glyph glyph-name="uniFF11" unicode="&#xff11;" 
d="M337 793q32 5 53 11q20 7 33 15q12 8 18 19q5 10 7 23h119v-712h-115v567h-115v77z" />
    <glyph glyph-name="uniFF12" unicode="&#xff12;" 
d="M281 648q-2 140 85 199q86 59 192 45q105 -15 158 -96t-17 -221q-39 -58 -79 -96t-76 -68q-37 -31 -64 -66q-28 -36 -41 -90h307v-106h-469q1 92 25 152q24 61 61 103q38 42 79 76q42 35 78 74q80 87 76 140q-4 54 -49 69t-89 -12q-44 -28 -45 -103h-132z" />
    <glyph glyph-name="uniFF13" unicode="&#xff13;" 
d="M281 661q1 78 30 129q29 52 77 77q48 26 106 28q57 3 116 -17q56 -23 87 -77q30 -55 32 -117q1 -62 -30 -107q-31 -44 -98 -48q72 -8 106 -51q35 -43 35 -102t-31 -116q-32 -57 -93 -94q-41 -22 -95 -26q-55 -5 -108 13t-89 66q-36 47 -41 130h128q6 -43 28 -65t52 -24
q30 -3 59 10t49 41q16 26 18 56q1 29 -17 55q-17 25 -56 39t-103 8v111q35 -3 62 2q28 5 47 18t30 33q12 19 15 45q3 57 -28 83q-30 27 -72 23q-42 -3 -73 -34t-28 -89h-115z" />
    <glyph glyph-name="uniFF14" unicode="&#xff14;" 
d="M537 866h115v-512h86v-120h-86v-85h-115v85h-247v120zM537 661l-132 -307h132v307z" />
    <glyph glyph-name="uniFF15" unicode="&#xff15;" 
d="M285 490l30 384h410v-119h-299l-13 -145q68 30 132 27q63 -3 112 -36q49 -32 75 -90q25 -57 18 -136q-17 -115 -85 -174q-67 -59 -152 -62t-153 49q-68 51 -87 157l123 17q20 -53 54 -75q34 -23 71 -18q36 5 64 36q28 30 37 83q6 53 -16 86q-22 34 -58 47t-73 5
q-37 -7 -62 -36h-128z" />
    <glyph glyph-name="uniFF16" unicode="&#xff16;" 
d="M307 708q23 94 92 138q69 43 149 37t137 -61t57 -157h-115q-10 61 -45 85q-35 23 -76 7t-68 -75q-27 -58 -20 -162q46 51 106 62q60 12 114 -14q55 -27 84 -88q30 -62 16 -156q-20 -93 -80 -139q-59 -46 -133 -48q-74 -1 -136 40q-62 42 -87 125q-6 19 -11 66
q-4 47 -4 108q-1 61 4 123q5 61 16 109zM614 392q-9 52 -37 72q-28 21 -63 17t-63 -24q-29 -20 -38 -48q-6 -67 23 -105q28 -37 70 -41q41 -4 74 27q32 32 34 102z" />
    <glyph glyph-name="uniFF17" unicode="&#xff17;" 
d="M290 759v102h439v-102l-260 -610h-124l265 610h-320z" />
    <glyph glyph-name="uniFF18" unicode="&#xff18;" 
d="M435 550q-43 3 -71 18q-27 14 -43 37q-15 24 -21 54q-6 31 -6 66q2 32 16 62q15 30 43 54t68 38q40 13 91 12q96 -1 150 -50q53 -48 62 -114t-29 -118t-124 -59q96 -8 136 -70q40 -61 30 -140q-11 -79 -68 -138q-58 -59 -157 -62q-45 0 -84 13t-70 38q-31 24 -51 59
q-19 35 -26 78q-7 40 -3 76t21 65q17 30 50 50q33 21 86 31zM597 708q0 42 -26 62q-26 21 -61 21q-36 0 -62 -21q-26 -20 -26 -62q1 -42 26 -61q25 -20 58 -19t60 21q26 20 31 59zM610 366q-2 45 -32 68q-30 22 -70 22q-41 0 -71 -22q-30 -23 -32 -68q2 -49 32 -74t71 -25
q40 0 70 25t32 74z" />
    <glyph glyph-name="uniFF19" unicode="&#xff19;" 
d="M277 627q-4 79 24 135q27 56 75 88t106 38q58 7 115 -14q71 -28 105 -103q35 -75 43 -167q9 -92 3 -169q-6 -78 -15 -111q-25 -90 -91 -135t-144 -45t-139 46q-60 45 -74 138l124 26q9 -51 42 -75q33 -25 72 -16q39 10 67 61t28 153q-43 -37 -98 -44t-108 13t-90 66
t-45 115zM610 622q4 74 -27 110q-31 37 -74 38q-44 1 -77 -32q-32 -33 -31 -99q3 -40 31 -65q28 -24 65 -29q38 -5 70 13t43 64z" />
    <glyph glyph-name="uniFF1A" unicode="&#xff1a;" 
d="M448 639v128h128v-128h-128zM448 255v128h128v-128h-128z" />
    <glyph glyph-name="uniFF1B" unicode="&#xff1b;" 
d="M448 639v128h128v-128h-128zM448 255v128h128v-128q-5 -25 -14 -42q-8 -17 -23 -26t-37 -13t-54 -4q22 8 36 17q14 10 23 21q8 10 12 22t5 25h-76z" />
    <glyph glyph-name="uniFF1C" unicode="&#xff1c;" 
d="M853 874v-85l-538 -278l538 -277v-85l-687 362z" />
    <glyph glyph-name="uniFF1D" unicode="&#xff1d;" 
d="M170 575v86h674v-86h-674zM170 362v85h674v-85h-674z" />
    <glyph glyph-name="uniFF1E" unicode="&#xff1e;" 
d="M170 789v85l683 -363l-683 -341v85l529 256z" />
    <glyph glyph-name="uniFF1F" unicode="&#xff1f;" 
d="M281 708q-1 42 9 78q11 36 38 64q27 27 77 42q51 16 132 16q87 -7 137 -43t64 -88q14 -53 -6 -111q-21 -57 -75 -108q-26 -26 -46 -50q-20 -23 -33 -50q-14 -27 -21 -63t-7 -88h-102q1 63 7 105t19 74q14 31 37 60q23 30 60 68q43 44 54 82q11 39 -4 68q-16 28 -55 42
t-97 8q-77 -8 -90 -106h-98zM448 106v107h106v-107h-106z" />
    <glyph glyph-name="uniFF20" unicode="&#xff20;" 
d="M482 921q84 3 155 -14q72 -18 128 -56q56 -39 92 -98q35 -59 47 -139q3 -60 -7 -115q-11 -55 -36 -101q-26 -47 -67 -80q-41 -34 -99 -50q-30 -3 -53 1q-22 5 -36 15q-15 10 -21 25q-7 14 -5 32q-27 -24 -55 -39q-28 -16 -56 -22q-28 -7 -55 -6q-26 2 -52 11
q-48 26 -73 71q-24 45 -22 102q2 56 32 119q31 63 93 126q37 31 70 46q33 16 64 16q31 1 62 -14q30 -14 60 -43l4 30h69l-69 -346q2 -18 12 -31t28 -15q17 -1 40 16q24 17 53 60q42 69 45 144q3 76 -34 142q-38 65 -118 103q-80 37 -205 29q-105 -16 -172 -71
q-66 -55 -94 -134q-28 -78 -18 -162q10 -85 58 -158q43 -59 102 -93t129 -42q71 -7 151 12q79 20 164 68l56 -51q-106 -77 -224 -100q-119 -24 -228 6q-109 29 -187 112q-78 82 -104 216q-12 97 11 181q24 84 76 149t126 104t163 44zM588 661q-46 41 -95 18q-50 -24 -86 -82
q-37 -58 -46 -121q-8 -64 27 -105q48 -31 96 -5t83 83q35 56 43 116q9 60 -22 96z" />
    <glyph glyph-name="uniFF21" unicode="&#xff21;" 
d="M149 166l316 747h89l312 -747h-107l-85 205h-333l-85 -205h-107zM640 460l-128 337l-137 -337h265z" />
    <glyph glyph-name="uniFF22" unicode="&#xff22;" 
d="M238 166v747h325q88 -8 134 -52q47 -44 55 -104t-19 -115q-28 -56 -89 -88q68 -20 102 -76q35 -57 30 -124q-5 -68 -57 -121q-51 -54 -156 -67h-325zM524 823h-196v-226h196q67 6 101 40q33 34 32 76q0 43 -34 75q-33 32 -99 35zM524 507h-196v-247h196q80 2 119 39
q39 36 38 85q-1 48 -40 84q-40 37 -117 39z" />
    <glyph glyph-name="uniFF23" unicode="&#xff23;" 
d="M294 806q50 68 124 97q75 28 153 18q79 -11 141 -57q61 -46 85 -126l-93 -30q-17 48 -45 78q-29 30 -65 43q-36 12 -75 8q-39 -3 -76 -23q-53 -30 -88 -89t-48 -131t-2 -141q11 -70 49 -121q31 -42 78 -65q47 -22 99 -19q51 3 97 36q46 34 76 104l93 -26q-6 -56 -51 -105
q-46 -50 -116 -78q-70 -29 -149 -21q-80 8 -153 68q-48 36 -79 100q-31 65 -39 147q-8 81 12 167q20 87 72 166z" />
    <glyph glyph-name="uniFF24" unicode="&#xff24;" 
d="M200 166v747h235q105 -3 180 -30q74 -26 120 -76q46 -51 65 -128q19 -76 14 -180q-9 -78 -37 -140q-28 -61 -76 -103q-47 -43 -113 -66q-67 -22 -153 -24h-235zM494 823h-196v-563h196q112 17 168 100t56 188q0 104 -56 185q-56 80 -168 90z" />
    <glyph glyph-name="uniFF25" unicode="&#xff25;" 
d="M273 166v747h469v-90h-376v-235h333v-89h-333v-239h376v-94h-469z" />
    <glyph glyph-name="uniFF26" unicode="&#xff26;" 
d="M277 166v747h465v-90h-371v-230h324v-90h-324v-337h-94z" />
    <glyph glyph-name="uniFF27" unicode="&#xff27;" 
d="M307 840q59 51 134 70q76 19 151 8q76 -12 136 -53q59 -41 86 -110l-89 -30q-25 48 -63 76q-39 28 -85 38q-47 9 -93 -1q-47 -9 -88 -36q-62 -53 -91 -124q-30 -71 -28 -147t33 -143q32 -67 91 -111q58 -29 114 -28q57 0 103 28q46 27 72 79q27 52 26 126h-196v93h290
v-396h-94v59q-59 -42 -118 -59q-59 -18 -116 -14q-56 4 -107 29t-94 70q-47 52 -72 126t-24 156q0 81 30 158t92 136z" />
    <glyph glyph-name="uniFF28" unicode="&#xff28;" 
d="M217 166v747h94v-329h397v329h94v-747h-94v328h-397v-328h-94z" />
    <glyph glyph-name="uniFF29" unicode="&#xff29;" 
d="M465 166v747h93v-747h-93z" />
    <glyph glyph-name="uniFF2A" unicode="&#xff2a;" 
d="M665 375v538h94v-504q3 -121 -66 -185t-164 -72q-96 -9 -174 37q-79 45 -95 143l94 39q5 -69 50 -100q44 -32 102 -29q58 2 104 36q46 35 55 97z" />
    <glyph glyph-name="uniFF2B" unicode="&#xff2b;" 
d="M221 166v747h94v-359l371 359h124l-345 -338l362 -409h-123l-299 345l-90 -85v-260h-94z" />
    <glyph glyph-name="uniFF2C" unicode="&#xff2c;" 
d="M260 166v747h94v-653h405v-94h-499z" />
    <glyph glyph-name="uniFF2D" unicode="&#xff2d;" 
d="M123 166v747h141l243 -619h9l234 619h141v-747h-89v606h-9l-239 -606h-89l-239 606h-9v-606h-94z" />
    <glyph glyph-name="uniFF2E" unicode="&#xff2e;" 
d="M209 166v747h123l372 -602h8v602h94v-747h-124l-371 601h-9v-601h-93z" />
    <glyph glyph-name="uniFF2F" unicode="&#xff2f;" 
d="M499 921q170 -6 254 -119q85 -112 85 -260q0 -149 -85 -261q-84 -113 -254 -119q-165 6 -244 119q-80 112 -78 261q3 148 84 260q81 113 238 119zM499 840q-107 -5 -164 -92q-56 -88 -58 -203q-3 -115 52 -204q55 -88 170 -94q123 5 185 93q61 88 61 204q0 115 -61 203
q-62 88 -185 93z" />
    <glyph glyph-name="uniFF30" unicode="&#xff30;" 
d="M247 166v747h316q100 -6 155 -64q55 -57 60 -134q5 -76 -49 -138q-53 -63 -171 -78h-221v-333h-90zM533 823h-196v-235h196q73 5 108 40t34 79q-1 45 -37 79t-105 37z" />
    <glyph glyph-name="uniFF31" unicode="&#xff31;" 
d="M465 921q110 10 192 -40q82 -49 127 -140t44 -206q-2 -116 -60 -237l119 -107l-60 -59l-115 102q-74 -56 -152 -71q-77 -16 -149 4q-71 20 -126 73t-85 135q-26 94 -23 185q3 92 36 169q32 78 95 129t157 63zM494 836q-72 -4 -124 -41q-51 -37 -78 -99q-28 -61 -28 -141
q0 -79 30 -167q26 -56 66 -91t88 -47t99 0q50 11 97 48l-73 64l56 60l64 -56q44 71 49 152t-24 154q-29 72 -86 118t-136 46z" />
    <glyph glyph-name="uniFF32" unicode="&#xff32;" 
d="M213 166v747h380q98 -10 150 -65q52 -54 58 -126q5 -71 -37 -133q-42 -61 -133 -86l183 -337h-106l-175 333h-226v-333h-94zM563 823h-256v-235h269q61 11 92 45q31 35 31 76t-34 74q-34 32 -102 40z" />
    <glyph glyph-name="uniFF33" unicode="&#xff33;" 
d="M345 878q46 31 111 41t131 -3q67 -14 117 -53q50 -40 68 -108l-86 -39q-4 73 -63 103q-59 29 -131 20t-113 -52q-41 -42 -8 -113q15 -21 48 -37t79 -30q45 -15 96 -33q51 -17 101 -41q55 -30 79 -81q24 -52 16 -109q-9 -57 -55 -105q-45 -48 -130 -72q-64 -11 -123 -8
q-59 4 -107 26q-49 21 -83 64t-49 110l89 30q8 -34 25 -63t44 -50t64 -31t85 -6q50 7 85 30q35 24 51 56t8 66q-7 34 -42 62q-37 22 -77 39q-39 17 -78 32q-40 14 -76 29t-67 32q-44 21 -66 58q-22 36 -24 79q-1 43 19 85q20 41 62 72z" />
    <glyph glyph-name="uniFF34" unicode="&#xff34;" 
d="M213 823v90h593v-90h-248v-657h-93v657h-252z" />
    <glyph glyph-name="uniFF35" unicode="&#xff35;" 
d="M213 409v504h94v-508q11 -83 70 -125q59 -41 134 -41q74 0 132 41q57 42 65 125v508h94v-504q-3 -126 -90 -190q-88 -63 -203 -63t-203 63q-88 64 -93 190z" />
    <glyph glyph-name="uniFF36" unicode="&#xff36;" 
d="M465 166l-291 747h103l235 -628l234 628h98l-286 -747h-93z" />
    <glyph glyph-name="uniFF37" unicode="&#xff37;" 
d="M247 166l-201 747h99l153 -594l167 594h93l150 -594l166 594h103l-214 -747h-98l-153 580l-167 -580h-98z" />
    <glyph glyph-name="uniFF38" unicode="&#xff38;" 
d="M452 580l-235 333h115l180 -252l170 252h120l-235 -333l294 -414h-115l-234 328l-239 -328h-111z" />
    <glyph glyph-name="uniFF39" unicode="&#xff39;" 
d="M166 913h111l235 -308l230 308h111l-295 -402v-345h-93v345z" />
    <glyph glyph-name="uniFF3A" unicode="&#xff3a;" 
d="M268 823v90h512v-99l-409 -554h409v-94h-524v98l418 559h-406z" />
    <glyph glyph-name="uniFF3B" unicode="&#xff3b;" 
d="M746 63v896h235v-85h-107v-725h107v-86h-235z" />
    <glyph glyph-name="uniFFE6" unicode="&#xffe6;" 
d="M145 776l-30 137h85l30 -137h218l25 137h81l26 -137h209l34 137h85l-34 -137h68v-64h-85l-30 -128h115v-64h-132l-89 -354h-90l-68 354h-98l-77 -354h-90l-85 354h-132v64h111l-26 128h-85v64h64zM430 712h-183l26 -128h132zM512 712l-35 -128h69l-26 128h-8zM772 712
h-179l25 -128h124zM388 520h-98l47 -205h8zM725 520h-94l38 -205h9z" />
    <glyph glyph-name="uniFF3D" unicode="&#xff3d;" 
d="M42 874v85h235v-896h-235v86h107v725h-107z" />
    <glyph glyph-name="uniFF3E" unicode="&#xff3e;" 
d="M345 874l107 107h124l106 -107h-81l-85 51l-98 -51h-73z" />
    <glyph glyph-name="uniFF3F" unicode="&#xff3f;" 
d="M0 4v81h1019v-81h-1019z" />
    <glyph glyph-name="uniFF40" unicode="&#xff40;" 
d="M853 874v128h128v-128h-64q4 -60 64 -85q-35 0 -60 4q-24 4 -39 13t-22 26t-7 42z" />
    <glyph glyph-name="uniFF41" unicode="&#xff41;" 
d="M482 682q56 6 97 -4t69 -32q28 -23 44 -55q15 -32 20 -71q1 -53 1 -105v-99q1 -47 5 -86q4 -38 15 -64h-81q-21 30 -30 72q-56 -56 -122 -73q-66 -18 -122 0t-82 69q-26 50 -2 132q14 30 37 52q24 23 62 37q38 15 95 24q58 8 139 11q4 54 -22 85q-25 30 -65 37t-81 -10
q-40 -16 -67 -56l-77 34q7 15 22 31q15 17 38 33q22 15 49 26q27 10 58 12zM627 422q-106 11 -167 -14q-62 -25 -82 -65q-21 -41 -2 -77q20 -35 76 -45q47 2 81 14q34 13 56 37t31 62q10 37 7 88z" />
    <glyph glyph-name="uniFF42" unicode="&#xff42;" 
d="M277 166v747h89v-299q77 56 157 65q79 8 142 -30q62 -39 86 -126q25 -86 -9 -221q-28 -65 -73 -101t-99 -43q-53 -8 -107 12q-53 19 -97 64v-68h-89zM524 614q-78 -4 -119 -61q-40 -57 -41 -131q-1 -75 39 -133q40 -57 121 -63q77 6 116 64t39 133q1 75 -38 132
q-39 56 -117 59z" />
    <glyph glyph-name="uniFF43" unicode="&#xff43;" 
d="M388 644q42 27 92 37q49 9 97 -1t87 -41t61 -85l-81 -34q-18 60 -65 83q-48 23 -99 6q-52 -17 -83 -78q-32 -61 -18 -169q12 -54 46 -89q33 -36 75 -44q43 -8 82 20q38 27 62 100l81 -38q-24 -54 -59 -89q-35 -34 -77 -49q-43 -15 -91 -11q-47 5 -97 29q-56 34 -85 94
t-31 130q-1 69 24 131q26 61 79 98z" />
    <glyph glyph-name="uniFF44" unicode="&#xff44;" 
d="M669 610v303h90v-747h-90v68q-48 -53 -115 -69q-66 -17 -132 5q-65 21 -109 80q-43 60 -45 159q0 112 41 176q42 64 106 86q63 22 132 5q68 -16 122 -66zM516 614q-80 0 -121 -57q-41 -58 -41 -135t40 -136q40 -60 122 -65q77 8 115 67q39 59 39 134q0 76 -39 132
q-38 57 -115 60z" />
    <glyph glyph-name="uniFF45" unicode="&#xff45;" 
d="M486 682q61 2 108 -15q47 -16 79 -49q33 -34 50 -86q17 -53 19 -123h-371q4 -80 37 -125q33 -46 80 -56t93 16t76 88l64 -25q-6 -28 -23 -54q-17 -27 -43 -48q-26 -22 -61 -35t-78 -13q-115 6 -175 82t-64 176t48 179q52 78 161 88zM652 486q-2 64 -42 95q-40 32 -94 31
q-53 0 -96 -32q-42 -32 -49 -94h281z" />
    <glyph glyph-name="uniFF46" unicode="&#xff46;" 
d="M533 913h145v-77h-51q-32 2 -49 -3q-17 -6 -24 -17q-6 -12 -7 -32q-1 -19 -1 -46v-60h132v-90h-132v-422h-90v422h-115v90h115v107q0 29 5 51t14 38q10 16 24 26q15 10 34 13z" />
    <glyph glyph-name="uniFF47" unicode="&#xff47;" 
d="M290 413q-13 89 16 151q28 63 85 93q56 30 125 23t136 -58v52h86v-495q-5 -31 -21 -58t-40 -48q-24 -22 -55 -35q-30 -14 -64 -17q-43 -3 -80 2q-38 5 -69 19q-31 13 -56 33q-24 21 -42 48l77 43q31 -37 69 -57t76 -20q38 1 69 25q32 25 50 77v99q-55 -43 -113 -57
q-58 -13 -110 3q-51 16 -88 60q-38 45 -51 117zM512 614q-74 -6 -109 -51q-36 -45 -35 -104q0 -60 33 -107q34 -48 98 -58q78 2 117 49q38 46 38 108q0 61 -36 109t-106 54z" />
    <glyph glyph-name="uniFF48" unicode="&#xff48;" 
d="M281 166v747h90v-325q57 58 122 81t122 10q58 -13 93 -64q36 -51 34 -142v-307h-90v324q-7 61 -40 93q-32 32 -76 32q-45 -1 -89 -37q-45 -37 -76 -113v-299h-90z" />
    <glyph glyph-name="uniFF49" unicode="&#xff49;" 
d="M465 823v90h89v-90h-89zM465 166v508h89v-508h-89z" />
    <glyph glyph-name="uniFF4A" unicode="&#xff4a;" 
d="M499 823v90h85v-90h-85zM499 196v478h85v-529q-1 -23 -8 -45q-6 -22 -23 -39q-17 -18 -47 -29q-31 -11 -80 -11h-72v77h38q32 1 53 7q20 6 32 18q12 11 17 29t5 44z" />
    <glyph glyph-name="uniFF4B" unicode="&#xff4b;" 
d="M302 166v747h86v-440l205 201h119l-188 -184l209 -324h-106l-167 256l-72 -68v-188h-86z" />
    <glyph glyph-name="uniFF4C" unicode="&#xff4c;" 
d="M465 166v747h89v-747h-89z" />
    <glyph glyph-name="uniFF4D" unicode="&#xff4d;" 
d="M209 593q44 43 90 67q47 23 92 26q44 2 82 -18t64 -63q51 47 110 67t113 8q53 -12 88 -61q34 -48 35 -137v-316h-90v350q-4 49 -32 75q-27 26 -66 28q-40 2 -78 -20q-38 -21 -63 -66v-367h-89v354q-9 45 -32 71q-23 25 -58 29q-35 3 -77 -20q-43 -23 -89 -76v-358h-86
v508h86v-81z" />
    <glyph glyph-name="uniFF4E" unicode="&#xff4e;" 
d="M366 580q65 65 129 91q64 25 118 12q53 -13 87 -62q34 -50 38 -135v-320h-90v333q-9 56 -41 86t-76 31q-43 0 -88 -31q-44 -32 -77 -99v-320h-89v508h89v-94z" />
    <glyph glyph-name="uniFF4F" unicode="&#xff4f;" 
d="M516 682q133 -4 199 -82q67 -78 67 -180q0 -103 -67 -181q-66 -78 -199 -82q-126 4 -190 82q-63 78 -63 181q0 102 63 180q64 78 190 82zM516 614q-79 -3 -121 -61q-42 -57 -44 -133t38 -133q41 -58 127 -61q91 3 137 61q45 57 45 133t-45 133q-46 58 -137 61z" />
    <glyph glyph-name="uniFF50" unicode="&#xff50;" 
d="M366 601q57 56 122 72t125 -3q59 -20 100 -73q41 -54 50 -137q5 -118 -33 -189t-101 -98t-134 -11q-70 16 -129 72v-217h-89v657h89v-73zM537 614q-56 1 -92 -20q-36 -22 -55 -59t-23 -84t4 -97q6 -26 19 -48t32 -39q18 -17 43 -27q25 -11 55 -14q83 6 121 62
q38 57 36 130q-1 74 -38 131q-36 57 -102 65z" />
    <glyph glyph-name="uniFF51" unicode="&#xff51;" 
d="M260 443q9 96 52 154q43 57 105 76q61 20 125 0q64 -19 115 -76v77h89v-657h-89v221q-56 -57 -124 -74q-69 -16 -132 9t-103 92q-40 68 -38 178zM499 614q-69 -2 -109 -58q-39 -57 -42 -133q-2 -76 37 -134t127 -63q75 15 112 74q36 59 35 131q-2 72 -42 125
q-40 54 -118 58z" />
    <glyph glyph-name="uniFF52" unicode="&#xff52;" 
d="M388 166v508h89v-94q14 19 31 35q16 16 36 28t46 20q27 8 62 11v-86q-52 -2 -86 -16q-35 -14 -54 -45q-19 -32 -27 -87q-8 -56 -8 -142v-132h-89z" />
    <glyph glyph-name="uniFF53" unicode="&#xff53;" 
d="M311 575q18 55 70 83t116 29q65 0 120 -26q56 -27 82 -81l-77 -34q-21 37 -54 54t-68 17q-36 0 -64 -16t-40 -47q-2 -16 5 -28q8 -12 33 -24q26 -13 77 -30q51 -16 137 -42q32 -11 52 -36q19 -24 25 -55q7 -31 -2 -62q-8 -31 -32 -56q-41 -38 -95 -55q-54 -16 -110 -9
q-55 7 -102 37q-47 31 -73 87l77 26q25 -40 60 -59t71 -20q37 -1 67 13t45 40q7 21 4 39q-3 17 -18 32q-15 14 -45 25t-78 19q-59 16 -97 33t-58 38q-21 20 -27 47q-6 26 -1 61z" />
    <glyph glyph-name="uniFF54" unicode="&#xff54;" 
d="M443 678v136h90v-136h128v-90h-128v-286q0 -13 1 -22t4 -14q3 -6 9 -8q6 -3 16 -3h94v-89h-60q-52 0 -84 5q-31 6 -46 23q-15 18 -20 53q-4 35 -4 94v247h-94v90h94z" />
    <glyph glyph-name="uniFF55" unicode="&#xff55;" 
d="M273 379v295h89v-316q4 -66 36 -98q31 -33 76 -33q45 -1 91 29t79 89v329h89v-508h-89v77q-60 -52 -124 -73q-64 -20 -119 -6q-56 14 -91 66q-34 53 -37 149z" />
    <glyph glyph-name="uniFF56" unicode="&#xff56;" 
d="M465 166l-218 508h98l167 -406l166 406h98l-222 -508h-89z" />
    <glyph glyph-name="uniFF57" unicode="&#xff57;" 
d="M277 166l-184 508h94l141 -393l128 393h111l128 -393l137 393h98l-188 -508h-102l-128 392l-133 -392h-102z" />
    <glyph glyph-name="uniFF58" unicode="&#xff58;" 
d="M452 443l-175 231h107l123 -154l120 154h111l-175 -231l213 -277h-102l-167 209l-162 -209h-102z" />
    <glyph glyph-name="uniFF59" unicode="&#xff59;" 
d="M460 200l-183 474h89l146 -350l136 350h94l-205 -529q-16 -43 -34 -69q-19 -26 -41 -38q-23 -13 -52 -17q-28 -4 -65 -4v76q24 0 43 5q18 5 32 17t24 32q10 21 16 53z" />
    <glyph glyph-name="uniFF5A" unicode="&#xff5a;" 
d="M324 584v90h380v-94l-274 -325h274v-89h-389v89l278 329h-269z" />
    <glyph glyph-name="uniFF5B" unicode="&#xff5b;" 
d="M832 716q-4 70 3 117q6 46 23 73q18 27 48 38t75 11v-34q-23 0 -39 -7q-17 -8 -27 -29q-11 -21 -15 -61q-3 -40 0 -103q2 -52 -1 -88t-12 -60q-10 -24 -28 -41q-19 -18 -49 -33q19 -6 34 -15q16 -9 27 -21t18 -28q8 -15 11 -34v-231q0 -24 5 -40q6 -17 16 -27
q11 -10 26 -15q15 -6 34 -7v-35q-32 0 -59 8t-47 23q-21 15 -32 38q-11 22 -11 51v230q-3 15 -9 27q-6 13 -16 22t-25 15q-15 5 -36 5v68q30 3 48 13q17 10 25 31q9 20 11 54t2 85z" />
    <glyph glyph-name="uniFF5C" unicode="&#xff5c;" 
d="M477 59v909h69v-909h-69z" />
    <glyph glyph-name="uniFF5D" unicode="&#xff5d;" 
d="M42 921v34q40 0 68 -8t46 -25q18 -16 29 -42q10 -26 15 -61v-222q3 -15 10 -26q6 -11 16 -19t24 -13q13 -5 31 -6v-68q-18 0 -32 -5t-25 -14q-10 -9 -16 -23q-6 -13 -8 -31v-111q1 -65 -4 -109q-4 -43 -19 -69t-47 -39t-88 -18v35q19 0 34 6q16 6 27 17q11 12 18 27
q8 16 11 35v230q3 18 9 32q6 15 15 27q10 13 24 24q14 10 33 20q-39 17 -64 47q-6 10 -10 24q-3 14 -5 42q-1 28 -2 80v139q-3 23 -11 40q-7 17 -18 29t-27 17q-15 5 -34 4z" />
    <glyph glyph-name="uniFFE3" unicode="&#xffe3;" 
d="M0 938v85h1019v-85h-1019z" />
    <glyph glyph-name="uni3131" unicode="&#x3131;" 
d="M166 652v81h631v-503h-89v422h-542z" />
    <glyph glyph-name="uni3132" unicode="&#x3132;" 
d="M512 669v81h337v-520h-81v439h-256zM153 665v81h324v-512h-81v431h-243z" />
    <glyph glyph-name="uni3133" unicode="&#x3133;" 
d="M465 302q56 43 92 90q36 48 57 103q20 55 30 121t13 147l106 -8q-15 -92 -15 -152q-1 -60 18 -104q18 -44 60 -87t112 -101l-72 -73q-26 16 -50 37t-46 45q-22 25 -42 54q-19 29 -37 61q-12 -26 -31 -57q-20 -31 -45 -61q-24 -31 -49 -56t-46 -40zM128 674v81h311v-525
h-81v444h-230z" />
    <glyph glyph-name="uni3134" unicode="&#x3134;" 
d="M234 298v482h98v-409h525v-73h-623z" />
    <glyph glyph-name="uni3135" unicode="&#x3135;" 
d="M490 669v81h406v-81h-141q-13 -49 -14 -95q-1 -45 17 -88t61 -86q42 -42 115 -85l-64 -68q-23 11 -46 27q-24 16 -47 37q-24 21 -47 46q-23 26 -44 56q-16 -26 -36 -51q-21 -26 -44 -49q-22 -23 -44 -42q-23 -20 -42 -33l-51 73q49 35 83 70q33 35 55 76q22 40 35 92
q14 52 23 120h-175zM162 260v469h98v-384q19 0 44 4q24 5 50 12q25 7 50 16q24 10 44 19v-77q-18 -10 -54 -20t-80 -19q-43 -9 -84 -14q-40 -6 -68 -6z" />
    <glyph glyph-name="uni3136" unicode="&#x3136;" 
d="M546 763v77h264v-77h-264zM179 290v524h98v-439q13 0 31 3q19 2 44 8q24 5 56 14q31 9 69 22v-77q-27 -8 -55 -15q-29 -7 -64 -14q-34 -7 -78 -13q-44 -7 -101 -13zM435 631v77h482v-77h-482zM682 230q-94 3 -142 55q-47 52 -47 120t47 120q48 52 142 55q88 -3 132 -55
t44 -120t-44 -120t-132 -55zM678 302q50 2 74 33q25 31 25 72q0 40 -25 71q-24 31 -74 33q-51 -2 -77 -33t-26 -71q0 -41 26 -72t77 -33z" />
    <glyph glyph-name="uni3137" unicode="&#x3137;" 
d="M234 290v443h572v-81h-482v-281h503v-81h-593z" />
    <glyph glyph-name="uni3138" unicode="&#x3138;" 
d="M196 273v465h324v-81h-243v-299q51 -9 256 25l13 -81q-44 -6 -89 -12q-45 -5 -90 -9t-88 -6t-83 -2zM584 273v465h324v-81h-243v-303h269v-81h-350z" />
    <glyph glyph-name="uni3139" unicode="&#x3139;" 
d="M230 678v81h555v-282h-470v-132h499v-81h-580v294h470v120h-474z" />
    <glyph glyph-name="uni313A" unicode="&#x313a;" 
d="M162 669v81h315v-277h-221v-141q23 0 59 3q36 2 79 7l84 8q42 5 76 8l9 -81q-141 -22 -384 -30v307h217v115h-234zM524 665v81h312v-529h-77v448h-235z" />
    <glyph glyph-name="uni313B" unicode="&#x313b;" 
d="M162 682v81h307v-290h-218v-136q77 0 235 21l8 -81q-28 -5 -60 -8q-33 -4 -71 -6q-39 -2 -86 -4q-48 -2 -107 -4v299h218v128h-226zM546 234v529h311v-529h-85v21h-145v-21h-81zM772 682h-145v-345h145v345z" />
    <glyph glyph-name="uni313C" unicode="&#x313c;" 
d="M567 251v525h77v-162h141v162h76v-529h-76v26h-141v-22h-77zM162 682v81h303v-273h-209v-132q10 0 32 1q23 2 55 5q32 2 69 6q38 4 78 9l9 -81q-158 -21 -325 -25v298h210v111h-222zM785 533h-141v-179h141v179z" />
    <glyph glyph-name="uni313D" unicode="&#x313d;" 
d="M183 669v81h307v-264h-213v-137q107 9 230 39l9 -77q-40 -8 -80 -14q-39 -7 -79 -12q-40 -6 -81 -11t-84 -10v303h217v102h-226zM546 324q35 39 63 79t47 88q20 47 31 110q10 63 12 149h103q-10 -84 -13 -143q-2 -59 12 -104q14 -44 51 -83q38 -39 108 -83l-69 -69
q-29 19 -50 35q-21 17 -38 34q-18 17 -34 37q-17 21 -36 48q-13 -24 -25 -45q-13 -21 -29 -41q-15 -20 -35 -42t-47 -47z" />
    <glyph glyph-name="uni313E" unicode="&#x313e;" 
d="M179 682v81h294v-281h-217v-133q115 5 260 34l8 -76q-40 -10 -79 -16q-39 -7 -80 -12q-42 -5 -88 -8q-45 -4 -98 -7v299h213v119h-213zM567 273v490h311v-81h-234v-119h226v-81h-226v-128h243v-81h-320z" />
    <glyph glyph-name="uni313F" unicode="&#x313f;" 
d="M166 674v81h303v-269h-213v-149q27 4 53 9q27 5 53 11q26 5 51 12q26 6 52 14l12 -76q-18 -7 -55 -15t-82 -16t-89 -15q-44 -6 -77 -10v316h214v107h-222zM516 669v81h380v-81h-380zM597 349l-26 290h86l21 -290h64l17 290h85l-21 -290h85v-81h-396v81h85z" />
    <glyph glyph-name="uni3140" unicode="&#x3140;" 
d="M584 738v81h265v-81h-265zM166 699v77h316v-286h-226v-141q93 0 247 22l9 -81q-29 -5 -71 -9t-89 -7q-47 -4 -92 -6t-81 -4v307h222v128h-235zM512 610v81h413v-81h-413zM725 230q-94 3 -142 55q-47 52 -47 120t47 120q48 52 142 55q88 -3 132 -55t44 -120t-44 -120
t-132 -55zM721 311q50 1 74 29q25 28 25 65t-25 65q-24 28 -74 29q-51 -1 -77 -29t-26 -65t26 -65t77 -29z" />
    <glyph glyph-name="uni3141" unicode="&#x3141;" 
d="M226 243v482h567v-482h-89v17h-393v-17h-85zM704 644h-393v-303h393v303z" />
    <glyph glyph-name="uni3142" unicode="&#x3142;" 
d="M251 243v507h81v-153h384v145h81v-499h-81v12h-384v-12h-81zM716 516h-384v-179h384v179z" />
    <glyph glyph-name="uni3143" unicode="&#x3143;" 
d="M196 260v482h77v-145h145v145h76v-478h-76v13h-145v-17h-77zM576 260v482h76v-141h154v141h77v-482h-77v21h-154v-21h-76zM806 520h-154v-158h154v158zM418 516h-145v-158h145v158z" />
    <glyph glyph-name="uni3144" unicode="&#x3144;" 
d="M183 238v529h81v-157h128v157h85v-533h-85v21h-128v-17h-81zM494 298q46 57 77 107t50 102t29 113q10 62 15 143h98q-15 -75 -13 -136q1 -61 21 -113t62 -100q42 -47 109 -95l-81 -64q-22 15 -45 36q-22 21 -43 46q-22 25 -41 53q-18 28 -33 57q-6 -19 -18 -42
q-11 -23 -27 -50q-17 -27 -40 -57q-22 -30 -51 -64zM392 529h-128v-197h128v197z" />
    <glyph glyph-name="uni3145" unicode="&#x3145;" 
d="M166 294q66 32 121 74q56 43 97 101q42 58 66 136t27 180h103q-15 -86 -3 -157q12 -70 49 -128q37 -57 98 -106t146 -92l-68 -68q-48 26 -94 59t-85 70t-68 75q-28 38 -43 73q-22 -41 -48 -78t-59 -72q-33 -36 -78 -72t-106 -76z" />
    <glyph glyph-name="uni3146" unicode="&#x3146;" 
d="M128 332q46 32 81 75q34 43 58 96q23 54 37 120q13 66 16 144h106q-13 -72 -12 -126q1 -53 15 -95q14 -41 41 -74t67 -63l-68 -72q-11 9 -25 23q-13 13 -27 30t-28 37q-14 19 -27 42q-16 -27 -34 -55q-18 -27 -39 -53q-21 -27 -46 -54q-26 -26 -56 -52zM499 324
q34 25 62 64q29 40 51 94q23 54 36 125q14 71 17 160h103q-11 -93 -8 -161t22 -118q18 -50 55 -89t93 -75l-64 -69q-27 15 -50 33q-23 19 -43 41q-20 23 -38 49q-18 27 -36 57q-10 -21 -25 -46q-15 -26 -34 -51q-20 -26 -42 -50q-21 -23 -44 -41z" />
    <glyph glyph-name="uni3147" unicode="&#x3147;" 
d="M512 780q158 -4 237 -83q80 -78 80 -181q0 -104 -80 -182q-79 -79 -237 -83q-152 4 -228 83q-76 78 -76 182q0 103 76 181q76 79 228 83zM750 511q-4 98 -72 147t-158 49t-158 -49t-72 -147q4 -96 72 -144t158 -48t158 48t72 144z" />
    <glyph glyph-name="uni3148" unicode="&#x3148;" 
d="M192 686v81h622v-81h-251q-17 -38 -15 -79q3 -42 31 -87q29 -45 91 -96t166 -109l-68 -68q-56 30 -101 61q-44 30 -77 61t-56 62q-22 31 -35 63q-24 -37 -53 -70q-29 -34 -65 -65q-36 -30 -80 -58q-45 -29 -101 -54l-51 85q77 27 132 61t92 76q37 43 59 96q22 54 33 121
h-273z" />
    <glyph glyph-name="uni3149" unicode="&#x3149;" 
d="M170 699v77h333v-77h-107q-3 -40 0 -78q3 -39 16 -77q14 -39 41 -78q27 -38 71 -78l-55 -56q-15 10 -30 23q-16 14 -31 30t-29 34t-25 37q-8 -18 -26 -42q-17 -24 -40 -50q-23 -27 -49 -52t-52 -44l-59 56q41 33 74 72t57 85q23 46 36 100q12 54 12 118h-137zM537 699v77
h333v-77h-128q-1 -49 3 -96t21 -94q16 -47 53 -96q37 -50 102 -106l-55 -56q-24 15 -48 34q-24 20 -47 42q-22 23 -41 47q-18 24 -31 48q-9 -17 -24 -40q-15 -24 -34 -50q-20 -27 -43 -51q-22 -25 -48 -43l-64 52q46 46 79 93t53 97t30 104q9 54 9 115h-120z" />
    <glyph glyph-name="uni314A" unicode="&#x314a;" 
d="M362 776v81h316v-81h-316zM204 618v81h632v-81h-260q0 -40 13 -81q14 -41 46 -80t87 -74q54 -35 135 -64l-60 -72q-42 13 -83 36q-41 22 -77 51q-37 29 -66 62q-29 32 -47 64q-22 -29 -53 -60q-30 -30 -66 -59q-37 -29 -78 -53q-41 -25 -84 -41l-73 64q58 22 111 52
t95 68q41 38 66 85q25 46 27 102h-265z" />
    <glyph glyph-name="uni314B" unicode="&#x314b;" 
d="M196 686v81h597q-7 -82 -19 -157q-13 -76 -30 -142q-18 -67 -38 -122t-41 -95l-81 4q51 111 81 231l-452 -47l-26 85l495 51q13 47 22 111h-508z" />
    <glyph glyph-name="uni314C" unicode="&#x314c;" 
d="M221 273v494h564v-81h-465v-119h435v-81h-435v-132h494v-81h-593z" />
    <glyph glyph-name="uni314D" unicode="&#x314d;" 
d="M213 661v81h610v-81h-610zM349 371l-38 226h94l25 -226h175l17 226h94l-30 -226h184v-81h-700v81h179z" />
    <glyph glyph-name="uni314E" unicode="&#x314e;" 
d="M341 785v81h384v-81h-384zM166 622v81h730v-81h-730zM533 575q123 -3 185 -54q61 -51 61 -118q0 -68 -61 -119q-62 -51 -185 -54q-118 3 -178 54q-59 51 -59 119q0 67 59 118q60 51 178 54zM699 405q-3 50 -51 74q-48 25 -111 25t-111 -25q-48 -24 -51 -74q3 -53 51 -79
q48 -27 111 -27t111 27q48 26 51 79z" />
    <glyph glyph-name="uni314F" unicode="&#x314f;" 
d="M354 76v871h98v-414h252v-90h-252v-367h-98z" />
    <glyph glyph-name="uni3150" unicode="&#x3150;" 
d="M627 558v410h98v-892h-98v393h-201v-333h-102v794h102v-372h201z" />
    <glyph glyph-name="uni3151" unicode="&#x3151;" 
d="M358 81v866h98v-252h256v-81h-256v-205h256v-81h-256v-247h-98z" />
    <glyph glyph-name="uni3152" unicode="&#x3152;" 
d="M614 691v268h98v-878h-98v307h-205v-261h-98v820h98v-256h205zM614 601h-205v-124h205v124z" />
    <glyph glyph-name="uni3153" unicode="&#x3153;" 
d="M584 533v414h102v-875h-102v375h-260v86h260z" />
    <glyph glyph-name="uni3154" unicode="&#x3154;" 
d="M640 72v875h102v-875h-102zM426 567v367h98v-824h-98v376h-217v81h217z" />
    <glyph glyph-name="uni3155" unicode="&#x3155;" 
d="M576 686v261h98v-866h-98v243h-261v81h261v200h-261v81h261z" />
    <glyph glyph-name="uni3156" unicode="&#x3156;" 
d="M640 63v884h98v-884h-98zM426 682v252h98v-819h-98v256h-226v81h226v149h-226v81h226z" />
    <glyph glyph-name="uni3157" unicode="&#x3157;" 
d="M456 358v461h102v-461h384v-90h-874v90h388z" />
    <glyph glyph-name="uni3158" unicode="&#x3158;" 
d="M704 409v521h98v-384h153v-94h-153v-380h-98v252l-611 -30l-8 89l256 13v384h102v-379z" />
    <glyph glyph-name="uni3159" unicode="&#x3159;" 
d="M819 550v397h98v-866h-98v379h-115v-341h-99v226l-503 -38l-13 89l209 13v397h98v-388l209 12v504h99v-384h115z" />
    <glyph glyph-name="uni315A" unicode="&#x315a;" 
d="M763 413v529h98v-870h-98v252l-640 -47l-8 94l273 17v418h102v-410z" />
    <glyph glyph-name="uni315B" unicode="&#x315b;" 
d="M324 366v397h102v-397h192v397h103v-397h230v-89h-870v89h243z" />
    <glyph glyph-name="uni315C" unicode="&#x315c;" 
d="M89 652v90h866v-90h-379v-456h-103v456h-384z" />
    <glyph glyph-name="uni315D" unicode="&#x315d;" 
d="M746 447v495h98v-870h-98v290h-222v85h222zM81 639l593 22v-86l-239 -12v-401h-90v396l-256 -12z" />
    <glyph glyph-name="uni315E" unicode="&#x315e;" 
d="M785 68v887h85v-887h-85zM605 469v469h86v-823h-86v268h-217v86h217zM72 618l491 21v-81l-214 -17v-337h-89v333l-179 -13z" />
    <glyph glyph-name="uni315F" unicode="&#x315f;" 
d="M742 635v312h98v-875h-98v478l-277 -9v-332h-99v328l-251 -8l-5 93z" />
    <glyph glyph-name="uni3160" unicode="&#x3160;" 
d="M81 665v90h874v-90h-239v-410h-89v410h-214v-410h-89v410h-243z" />
    <glyph glyph-name="uni3161" unicode="&#x3161;" 
d="M81 469v89h870v-89h-870z" />
    <glyph glyph-name="uni3162" unicode="&#x3162;" 
d="M776 503v465h102v-892h-102v337l-644 -12l-4 89z" />
    <glyph glyph-name="uni3163" unicode="&#x3163;" 
d="M486 68v874h98v-874h-98z" />
    <glyph glyph-name="glyph462" unicode="&#x3164;" 
d="M96 912h864v-768h-864v768zM240 864l288 -288l288 288h-576zM864 816l-288 -288l288 -288v576zM240 192h576l-288 288zM192 816v-576l288 288z" />
    <glyph glyph-name="uni3165" unicode="&#x3165;" 
d="M529 255v538h85v-452q12 1 26 4q14 2 33 6q19 5 47 14t69 23v-81q-27 -8 -56 -16q-28 -8 -60 -15q-31 -7 -67 -12q-35 -6 -77 -9zM183 260v529h81v-440q8 0 27 3q18 3 44 9q26 5 55 13t58 18v-81q-42 -13 -81 -22q-39 -10 -74 -16q-35 -7 -63 -10t-47 -3z" />
    <glyph glyph-name="uni3166" unicode="&#x3166;" 
d="M507 307v537h299v-85h-213v-367h243v-85h-329zM145 277v529h102v-440q19 2 42 7t48 13q25 7 48 15q24 9 45 17v-86q-19 -6 -49 -14q-30 -7 -68 -15t-80 -14q-43 -7 -88 -12z" />
    <glyph glyph-name="uni3167" unicode="&#x3167;" 
d="M426 264q48 59 80 119q33 61 52 125q19 65 29 136q9 72 10 153h98q0 -84 11 -154q11 -69 34 -129q23 -61 59 -117q37 -57 88 -116l-64 -55q-32 29 -58 59t-47 62q-20 32 -37 66q-16 34 -29 69q-11 -34 -28 -69q-16 -35 -37 -70t-45 -68q-25 -33 -52 -62zM157 255v530h99
v-444q13 2 35 7q21 5 47 12t54 16q27 8 51 16v-77q-18 -8 -54 -18t-79 -20q-43 -9 -84 -16q-41 -6 -69 -6z" />
    <glyph glyph-name="uni3168" unicode="&#x3168;" 
d="M469 247l200 631l201 -631h-401zM166 243v580h85v-504q23 2 47 7q25 6 51 14t53 18t54 21v-72q-31 -10 -68 -20t-77 -19t-77 -15q-37 -7 -68 -10zM669 695l-119 -384h235z" />
    <glyph glyph-name="uni3169" unicode="&#x3169;" 
d="M166 703v90h252v-311h-167v-171q77 0 205 34l17 -90q-132 -25 -311 -34v350h166v132h-162zM435 703v90h209v-580h-86v490h-123zM661 260q30 51 53 103q22 53 38 113q16 61 25 134q9 74 12 166h85q-2 -76 3 -140t19 -124q14 -61 39 -125t63 -140l-56 -47q-15 21 -32 56
q-18 35 -34 73q-17 38 -29 68t-15 42q-11 -32 -24 -62q-13 -31 -28 -59q-14 -29 -30 -56t-34 -53z" />
    <glyph glyph-name="uni316A" unicode="&#x316a;" 
d="M533 268v559h316v-89h-227v-380h248v-90h-337zM162 733v90h286v-294h-192v-171q10 0 31 3q22 3 52 8q29 5 64 12q34 7 70 15l13 -85q-35 -8 -71 -14q-35 -7 -73 -13t-82 -12q-43 -6 -94 -12v358h196v115h-200z" />
    <glyph glyph-name="uni316B" unicode="&#x316b;" 
d="M149 721v89h226v-299h-141v-179q7 0 21 2t34 6t43 8q23 5 47 10l9 -90q-90 -21 -243 -34v363h140v124h-136zM401 230v580h81v-175h64v175h81v-448q25 42 43 82q17 40 28 88q10 48 16 114q5 67 7 164h93q0 -81 5 -147q5 -67 19 -127q13 -61 38 -124q24 -62 62 -135
l-64 -47q-13 13 -26 34q-12 21 -25 50q-14 28 -27 63q-14 35 -28 75q-5 -18 -14 -42t-21 -53q-13 -29 -30 -61t-38 -66l-38 21v-21h-81v30h-64v-30h-81zM546 546h-64v-197h64v197z" />
    <glyph glyph-name="uni316C" unicode="&#x316c;" 
d="M503 375l166 503l201 -631h-410l13 30q-23 -3 -58 -9t-75 -12q-40 -7 -78 -13q-39 -5 -70 -9v367h209v111h-209v90h298v-291h-213v-179q15 0 41 4q26 5 59 11q32 7 65 14t61 14zM669 695l-123 -384h239z" />
    <glyph glyph-name="uni316D" unicode="&#x316d;" 
d="M469 742v89h405v-89h-405zM157 738v89h278v-286h-192v-158q13 0 34 3t46 8q25 4 51 9q25 5 48 10l13 -89q-30 -8 -64 -15q-34 -6 -71 -11q-36 -5 -73 -8t-74 -5v346h192v107h-188zM657 260q-96 3 -144 56t-48 123t48 123t144 56q90 -3 134 -56q45 -53 45 -123t-45 -123
q-44 -53 -134 -56zM652 341q48 2 72 30q24 29 24 66q0 38 -24 66q-24 29 -72 30q-49 -1 -74 -30q-25 -28 -25 -66q0 -37 25 -66q25 -28 74 -30z" />
    <glyph glyph-name="uni316E" unicode="&#x316e;" 
d="M516 268v559h81v-166h132v166h81v-559h-81v13h-132v-13h-81zM174 290v537h303v-529h-89v39h-124v-47h-90zM388 738h-124v-312h124v312zM729 575h-132v-204h132v204z" />
    <glyph glyph-name="uni316F" unicode="&#x316f;" 
d="M494 324q41 61 69 122q27 61 43 124t23 129q6 67 6 137h90q1 -88 13 -159q11 -71 32 -131q22 -60 53 -114t73 -108l-64 -51q-23 22 -45 53q-22 30 -42 63q-20 34 -35 67q-16 32 -24 60q-8 -26 -20 -57q-13 -31 -29 -64q-17 -33 -37 -65q-19 -33 -42 -62zM166 281v538h320
v-538h-90v56h-140v-56h-90zM396 729h-140v-303h140v303z" />
    <glyph glyph-name="uni3170" unicode="&#x3170;" 
d="M512 413l157 465l201 -631h-405l21 68h-60v51h-153v-51h-86v534h325v-436zM426 763h-153v-311h153v311zM669 695l-123 -384h239z" />
    <glyph glyph-name="uni3171" unicode="&#x3171;" 
d="M256 541v354h529v-345h-90v8h-350v-17h-89zM695 810h-350v-166h350v166zM512 511q146 -3 218 -62q73 -59 73 -136t-73 -136q-72 -59 -218 -62q-141 3 -211 62q-71 59 -71 136t71 136q70 59 211 62zM712 311q-3 64 -61 96q-57 32 -133 33q-76 0 -133 -31q-58 -31 -61 -94
q3 -66 61 -98q57 -32 133 -32t133 32q58 32 61 94z" />
    <glyph glyph-name="uni3172" unicode="&#x3172;" 
d="M392 610v192h81v-576h-81v12h-132v-12h-81v567h81v-183h132zM529 708v89h311v-584h-85v495h-226zM392 520h-132v-196h132v196z" />
    <glyph glyph-name="uni3173" unicode="&#x3173;" 
d="M170 226v563h81v-179h128v179h81v-563h-81v17h-128v-17h-81zM541 217v563h312v-85h-222v-388h235v-90h-325zM379 520h-128v-192h128v192z" />
    <glyph glyph-name="uni3174" unicode="&#x3174;" 
d="M426 315q15 25 28 61q13 35 24 88q10 53 17 131q6 77 8 185h90q-2 -84 2 -152q4 -67 16 -127q13 -59 35 -120q23 -60 58 -130l-64 -55q-15 21 -29 51q-14 29 -26 62t-21 63q-9 31 -14 54q-8 -30 -17 -60t-19 -58q-10 -29 -21 -57t-24 -55l-43 38v-17h-81v13h-68v-13h-81
v559h81v-171h68v171h81v-461zM661 695v85h256v-589h-85v504h-171zM277 516v-201h68v201h-68z" />
    <glyph glyph-name="uni3175" unicode="&#x3175;" 
d="M674 226v567h230v-90h-141v-388h154v-89h-243zM392 332q14 25 28 61q13 36 23 89q11 53 18 130q6 77 8 185h89q-2 -79 3 -146q4 -67 16 -128t35 -123q22 -62 57 -132l-64 -55q-14 21 -28 51q-14 29 -26 62t-21 63q-9 31 -14 54q-8 -30 -17 -60t-19 -58q-10 -29 -21 -57
t-24 -55l-43 38v-17h-81v13h-68v-13h-81v559h81v-171h68v171h81v-461zM243 533v-201h68v201h-68z" />
    <glyph glyph-name="uni3176" unicode="&#x3176;" 
d="M157 209v563h81v-171h137v171h81v-521q42 32 74 78q33 45 55 102q22 56 33 120q10 65 9 135h-124v86h346v-86h-133q-2 -62 6 -122q8 -61 28 -117t52 -106q33 -51 81 -94l-60 -60q-25 21 -47 45q-21 23 -39 51t-33 62q-16 33 -30 73q-8 -24 -24 -56q-15 -31 -35 -64
t-44 -62q-23 -29 -47 -49l-68 47v-25h-81v17h-137v-17h-81zM375 511h-137v-196h137v196z" />
    <glyph glyph-name="uni3177" unicode="&#x3177;" 
d="M388 631v162h77v-567h-77v12h-128v-12h-77v567h77v-162h128zM558 234v555h303v-86h-217v-123h209v-86h-209v-175h230v-85h-316zM388 541h-128v-217h128v217z" />
    <glyph glyph-name="uni3178" unicode="&#x3178;" 
d="M273 571v376h102v-290h316v290h98v-376h-516zM401 746v85h273v-85h-273zM541 529q146 -3 219 -61q73 -59 73 -135q0 -77 -73 -136q-73 -58 -219 -61q-141 3 -211 61q-70 59 -70 136q0 76 70 135q70 58 211 61zM746 328q-3 64 -63 96q-59 32 -137 33q-79 0 -138 -31
q-60 -31 -63 -94q3 -64 63 -95q59 -32 138 -31q78 0 137 30q60 31 63 92z" />
    <glyph glyph-name="uni3179" unicode="&#x3179;" 
d="M413 797v73h81v-350h-81v21h-93v-21h-82v350h82v-73h93zM554 520v350h81v-64h81v64h81v-350h-81v17h-81v-17h-81zM635 716v-89h81v89h-81zM413 708h-93v-77h93v77zM512 477q144 -3 216 -64t72 -140q0 -80 -72 -141t-216 -64q-139 3 -209 64t-70 141q0 79 70 140t209 64z
M708 268q-3 63 -61 94q-57 31 -133 32q-76 0 -133 -30q-58 -30 -61 -91q3 -63 61 -93q57 -31 133 -31t133 30q58 30 61 89z" />
    <glyph glyph-name="uni317A" unicode="&#x317a;" 
d="M533 721v89h303v-601h-86v512h-217zM123 260q43 49 75 107q31 58 52 124q20 66 30 140q10 75 10 158h98q-2 -84 3 -152q5 -69 22 -130t50 -123t87 -133l-64 -55q-29 34 -53 69q-24 36 -42 73q-19 36 -33 70q-13 34 -21 65q-9 -26 -25 -62t-37 -75q-21 -40 -44 -74
q-23 -35 -44 -58z" />
    <glyph glyph-name="uni317B" unicode="&#x317b;" 
d="M102 290q44 63 76 115q31 52 50 108q19 55 27 128q9 73 9 178h102q0 -100 7 -169q8 -69 22 -118q15 -50 36 -91q22 -42 51 -87l-73 -64q-11 13 -23 32t-23 43t-21 52q-10 27 -18 56q-8 -21 -20 -45q-12 -25 -29 -54q-17 -30 -41 -67q-23 -36 -55 -81zM558 243v571h99
v-495h192v-76h-291z" />
    <glyph glyph-name="uni317C" unicode="&#x317c;" 
d="M584 264v559h307v-90h-217v-379h230v-90h-320zM89 277q37 39 70 84q34 44 60 105q27 60 44 146t22 207h99q0 -91 7 -159q6 -69 21 -124q15 -54 38 -104q24 -50 57 -104l-72 -64q-18 21 -34 49t-30 59q-14 30 -24 56q-10 27 -15 45q-10 -26 -26 -58q-17 -32 -39 -67
q-22 -34 -47 -68q-24 -34 -50 -63z" />
    <glyph glyph-name="uni317D" unicode="&#x317d;" 
d="M610 209v597h81v-196h132v196h81v-597h-81v17h-132v-17h-81zM93 281q45 51 76 111q31 59 51 126q20 66 29 137q10 72 11 147h98q0 -101 10 -176q11 -74 31 -132q21 -58 52 -110q31 -53 73 -111l-72 -60q-19 20 -40 51q-20 31 -39 67q-19 37 -34 73q-16 36 -24 65
q-11 -31 -27 -63q-16 -33 -35 -65q-19 -33 -41 -64q-22 -30 -46 -56zM823 520h-132v-205h132v205z" />
    <glyph glyph-name="uni317E" unicode="&#x317e;" 
d="M558 755v85h316v-85h-124q0 -72 9 -135q10 -63 31 -120q20 -57 54 -109q33 -52 81 -101l-59 -60q-23 16 -46 41q-23 24 -44 54q-22 30 -39 62q-18 33 -29 65q-11 -35 -25 -68t-30 -62t-32 -52q-17 -24 -33 -40l-68 55q34 44 61 97q26 52 45 113q18 60 27 125q9 66 8 135
h-103zM153 285q45 54 79 113q35 59 59 125q23 66 36 143q12 76 14 165h98q0 -90 8 -155q9 -64 25 -112q15 -48 37 -87q22 -40 49 -81l-72 -59q-13 13 -26 34q-13 22 -25 47q-13 26 -23 51q-10 26 -16 47q-8 -25 -25 -60q-17 -36 -41 -77q-23 -41 -50 -81t-54 -72z" />
    <glyph glyph-name="uni317F" unicode="&#x317f;" 
d="M187 247l320 631l320 -631h-640zM507 733l-205 -422h406z" />
    <glyph glyph-name="uni3180" unicode="&#x3180;" 
d="M110 494q3 126 59 190q57 63 131 63t131 -63q56 -64 59 -190q-3 -124 -59 -187q-57 -62 -131 -62t-131 62q-56 63 -59 187zM302 652q-51 -3 -77 -51q-25 -49 -25 -113q-1 -64 24 -113q24 -48 74 -51q53 3 79 51q27 49 27 113q1 64 -25 113q-26 48 -77 51zM524 469
q3 125 61 187q59 63 136 63q76 0 135 -63q58 -62 61 -187q-3 -123 -61 -185q-59 -62 -135 -62q-77 0 -136 62q-58 62 -61 185zM721 627q-53 -2 -79 -49q-27 -47 -27 -109q-1 -62 25 -109q25 -47 76 -49q54 2 82 49q27 47 27 109q1 62 -25 109t-79 49z" />
    <glyph glyph-name="uni3181" unicode="&#x3181;" 
d="M494 785q167 -5 250 -99t83 -217t-83 -217t-250 -99q-160 5 -240 99q-79 94 -79 217t79 217q80 94 240 99zM494 703q-107 -4 -163 -73q-57 -70 -59 -161q-2 -92 52 -162q55 -69 170 -73q120 4 180 73q60 70 60 162q0 91 -60 161q-60 69 -180 73z" />
    <glyph glyph-name="uni3182" unicode="&#x3182;" 
d="M494 315q26 35 48 82q22 48 40 109q17 62 28 139q12 78 17 174h94q-13 -99 -11 -169q2 -71 20 -123q18 -53 54 -98t90 -92l-68 -73q-13 8 -31 27q-18 20 -38 47q-20 26 -40 57q-20 30 -36 61q-7 -16 -18 -41t-25 -53q-14 -29 -30 -56q-15 -28 -30 -51zM179 533
q3 136 52 204t115 68q65 0 114 -68t52 -204q-3 -135 -52 -202t-114 -67q-66 0 -115 67t-52 202zM345 712q-42 -3 -62 -55q-21 -53 -22 -122q0 -69 20 -122q20 -52 60 -55q43 3 65 55q21 53 22 122q0 69 -21 122q-20 52 -62 55z" />
    <glyph glyph-name="uni3183" unicode="&#x3183;" 
d="M469 247l200 631l201 -631h-401zM669 691l-123 -380h239zM132 541q3 143 52 214t115 71q65 0 114 -71t52 -214q-3 -141 -52 -211t-114 -70q-66 0 -115 70t-52 211zM302 738q-40 -3 -60 -61q-20 -59 -20 -135q0 -77 19 -136q19 -58 57 -61q42 3 63 61q20 59 21 136
q0 76 -20 135q-20 58 -60 61z" />
    <glyph glyph-name="uni3184" unicode="&#x3184;" 
d="M251 827v86h525v-86h-525zM315 550l-34 230h98l26 -230h192l34 230h98l-38 -230h94v-90h-559v90h89zM494 422q144 -3 216 -57q72 -55 72 -126q0 -72 -72 -127q-72 -54 -216 -57q-139 3 -209 57q-69 55 -69 127q0 71 69 126q70 54 209 57zM691 238q-3 58 -60 87t-132 29
q-75 1 -132 -27t-60 -84q3 -58 60 -86q57 -29 132 -29t132 28t60 82z" />
    <glyph glyph-name="uni3185" unicode="&#x3185;" 
d="M601 738v89h222v-89h-222zM192 729v90h213v-90h-213zM123 593v89h359v-89h-359zM537 593v89h363v-89h-363zM302 558q83 -4 125 -55t42 -117q1 -66 -40 -116t-122 -53q-83 3 -125 53t-42 116q-1 66 40 117t122 55zM721 558q86 -4 129 -55q44 -51 44 -117t-42 -116
t-127 -53q-87 3 -130 53t-44 116q0 66 42 117q43 51 128 55zM302 486q-40 -2 -60 -31q-19 -29 -19 -67t19 -67q20 -29 60 -31q40 2 60 31t20 67t-20 67t-60 31zM725 486q-42 -2 -62 -31q-21 -29 -21 -67t21 -67q20 -29 62 -31q42 2 62 31q21 29 21 67t-21 67q-20 29 -62 31z
" />
    <glyph glyph-name="uni3186" unicode="&#x3186;" 
d="M209 759v85h576v-85h-576zM490 652q138 -4 206 -72q69 -68 69 -158q0 -91 -69 -159q-68 -68 -206 -72q-131 4 -197 72q-65 68 -65 159q0 90 65 158q66 68 197 72zM490 584q-86 -2 -129 -50q-43 -47 -43 -110q0 -62 43 -110q43 -47 129 -50q91 3 137 50q45 48 45 110
q0 63 -45 110q-46 48 -137 50z" />
    <glyph glyph-name="uni3187" unicode="&#x3187;" 
d="M644 85v845h81v-239h200v-90h-200v-145h200v-85h-200v-286h-81zM183 332v529h77v-529h124v529h76v-529h111v-85h-486v85h98z" />
    <glyph glyph-name="uni3188" unicode="&#x3188;" 
d="M576 98v866h76v-188h103v188h77v-879h-77v328h-103v-315h-76zM388 349v538h81v-538h94v-89h-491v89h124v538h81v-538h111zM755 691h-103v-188h103v188z" />
    <glyph glyph-name="uni3189" unicode="&#x3189;" 
d="M733 98v840h81v-840h-81zM238 332v529h82v-529h110v529h82v-529h115v-85h-487v85h98z" />
    <glyph glyph-name="uni318A" unicode="&#x318a;" 
d="M806 558v380h81v-828h-81v145h-162v90h162v124h-162v89h162zM51 584v90h653v-90h-141v-393h-90v393h-166v-388h-90v388h-166z" />
    <glyph glyph-name="uni318B" unicode="&#x318b;" 
d="M780 76v862h81v-862h-81zM622 703v227h82v-832h-82v285h-162v86h162v145h-162v89h162zM72 780v90h474v-90h-103v-589h-85v589h-102v-589h-86v589h-98z" />
    <glyph glyph-name="uni318C" unicode="&#x318c;" 
d="M802 110v832h81v-832h-81zM51 588v90h665v-90h-72v-397h-90v397h-196v-388h-90v388h-217z" />
    <glyph glyph-name="uni318D" unicode="&#x318d;" 
d="M512 580q32 -1 48 -20t16 -45q0 -25 -16 -45t-48 -23q-34 1 -51 21q-16 20 -16 46q0 25 16 45q17 20 51 21z" />
    <glyph glyph-name="uni318E" unicode="&#x318e;" 
d="M529 51v879h102v-879h-102zM354 635q32 -1 48 -20t16 -44q0 -26 -16 -46t-48 -22q-34 1 -51 21q-16 19 -16 45t16 45q17 20 51 21z" />
    <glyph glyph-name="uni2170" unicode="&#x2170;" 
d="M465 179v465h89v-465h-89zM512 853q27 -1 41 -17q13 -17 13 -38q0 -22 -13 -39q-14 -16 -41 -17q-27 1 -41 17q-14 17 -14 39q0 21 14 38q14 16 41 17z" />
    <glyph glyph-name="uni2171" unicode="&#x2171;" 
d="M315 179v465h90v-465h-90zM618 179v465h90v-465h-90zM362 853q27 -1 41 -17q14 -17 14 -38q0 -22 -14 -39q-14 -16 -41 -17q-27 1 -40 17q-14 17 -14 39q0 21 14 38q13 16 40 17zM665 853q27 -1 41 -17q14 -17 14 -38q0 -22 -14 -39q-14 -16 -41 -17q-27 1 -40 17
q-14 17 -14 39q0 21 14 38q13 16 40 17z" />
    <glyph glyph-name="uni2172" unicode="&#x2172;" 
d="M260 179v465h89v-465h-89zM469 179v465h89v-465h-89zM691 179v465h89v-465h-89zM512 853q27 -1 41 -17q13 -17 13 -38q0 -22 -13 -39q-14 -16 -41 -17q-27 1 -41 17q-14 17 -14 39q0 21 14 38q14 16 41 17zM307 853q27 -1 41 -17q13 -17 13 -38q0 -22 -13 -39
q-14 -16 -41 -17q-27 1 -41 17q-14 17 -14 39q0 21 14 38q14 16 41 17zM738 853q27 -1 41 -17q13 -17 13 -38q0 -22 -13 -39q-14 -16 -41 -17q-27 1 -41 17q-14 17 -14 39q0 21 14 38q14 16 41 17z" />
    <glyph glyph-name="uni2173" unicode="&#x2173;" 
d="M584 179l-205 465h90l141 -320l128 320h89l-183 -465h-60zM209 179v465h89v-465h-89zM256 853q27 -1 41 -17q13 -17 13 -38q0 -22 -13 -39q-14 -16 -41 -17q-27 1 -41 17q-14 17 -14 39q0 21 14 38q14 16 41 17z" />
    <glyph glyph-name="uni2174" unicode="&#x2174;" 
d="M473 179l-222 465h98l167 -346l158 346h102l-222 -465h-81z" />
    <glyph glyph-name="uni2175" unicode="&#x2175;" 
d="M396 179l-204 465h93l137 -320l128 320h90l-184 -465h-60zM729 179v465h90v-465h-90zM772 853q27 -1 41 -17q13 -17 13 -38q0 -22 -13 -39q-14 -16 -41 -17q-27 1 -41 17q-14 17 -14 39q0 21 14 38q14 16 41 17z" />
    <glyph glyph-name="uni2176" unicode="&#x2176;" 
d="M320 179l-188 465h85l128 -333l111 333h85l-170 -465h-51zM789 179v465h89v-465h-89zM601 179v465h90v-465h-90zM836 853q27 -1 41 -17q13 -17 13 -38q0 -22 -13 -39q-14 -16 -41 -17q-27 1 -41 17q-14 17 -14 39q0 21 14 38q14 16 41 17zM644 853q27 -1 41 -17
q13 -17 13 -38q0 -22 -13 -39q-14 -16 -41 -17q-27 1 -41 17q-14 17 -14 39q0 21 14 38q14 16 41 17z" />
    <glyph glyph-name="uni2177" unicode="&#x2177;" 
d="M247 179l-132 465h77l89 -316l90 316h77l-128 -465h-73zM806 179v465h90v-465h-90zM516 179v465h89v-465h-89zM661 179v465h89v-465h-89zM558 853q27 -1 41 -17q14 -17 14 -38q0 -22 -14 -39q-14 -16 -41 -17q-27 1 -40 17q-14 17 -14 39q0 21 14 38q13 16 40 17z
M849 853q27 -1 41 -17q13 -17 13 -38q0 -22 -13 -39q-14 -16 -41 -17q-27 1 -41 17q-14 17 -14 39q0 21 14 38q14 16 41 17zM704 853q27 -1 41 -17q13 -17 13 -38q0 -22 -13 -39q-14 -16 -41 -17q-27 1 -41 17q-14 17 -14 39q0 21 14 38q14 16 41 17z" />
    <glyph glyph-name="uni2178" unicode="&#x2178;" 
d="M388 644h98l119 -162l111 162h94l-158 -231l167 -234h-98l-116 166l-119 -166h-98l166 234zM209 179v465h89v-465h-89zM256 853q27 -1 41 -17q13 -17 13 -38q0 -22 -13 -39q-14 -16 -41 -17q-27 1 -41 17q-14 17 -14 39q0 21 14 38q14 16 41 17z" />
    <glyph glyph-name="uni2179" unicode="&#x2179;" 
d="M264 644h115l133 -162l128 162h110l-183 -231l183 -234h-115l-123 158l-128 -158h-116l184 230z" />
    <glyph glyph-name="glyph515" 
d="M96 912h864v-768h-864v768zM240 864l288 -288l288 288h-576zM864 816l-288 -288l288 -288v576zM240 192h576l-288 288zM192 816v-576l288 288z" />
    <glyph glyph-name="glyph516" 
d="M96 912h864v-768h-864v768zM240 864l288 -288l288 288h-576zM864 816l-288 -288l288 -288v576zM240 192h576l-288 288zM192 816v-576l288 288z" />
    <glyph glyph-name="glyph517" 
d="M96 912h864v-768h-864v768zM240 864l288 -288l288 288h-576zM864 816l-288 -288l288 -288v576zM240 192h576l-288 288zM192 816v-576l288 288z" />
    <glyph glyph-name="glyph518" 
d="M96 912h864v-768h-864v768zM240 864l288 -288l288 288h-576zM864 816l-288 -288l288 -288v576zM240 192h576l-288 288zM192 816v-576l288 288z" />
    <glyph glyph-name="glyph519" 
d="M96 912h864v-768h-864v768zM240 864l288 -288l288 288h-576zM864 816l-288 -288l288 -288v576zM240 192h576l-288 288zM192 816v-576l288 288z" />
    <glyph glyph-name="uni2160" unicode="&#x2160;" 
d="M465 179v670h93v-670h-93z" />
    <glyph glyph-name="uni2161" unicode="&#x2161;" 
d="M307 179v670h89v-670h-89zM618 179v670h90v-670h-90z" />
    <glyph glyph-name="uni2162" unicode="&#x2162;" 
d="M217 179v670h94v-670h-94zM456 179v670h94v-670h-94zM691 179v670h89v-670h-89z" />
    <glyph glyph-name="uni2163" unicode="&#x2163;" 
d="M162 179v670h89v-670h-89zM384 849h98l149 -483l141 483h102l-213 -670h-64z" />
    <glyph glyph-name="uni2164" unicode="&#x2164;" 
d="M473 179l-273 670h102l205 -517l205 517h102l-268 -670h-73z" />
    <glyph glyph-name="uni2165" unicode="&#x2165;" 
d="M375 179l-218 670h103l162 -508l128 508h98l-183 -670h-90zM768 179v670h93v-670h-93z" />
    <glyph glyph-name="uni2166" unicode="&#x2166;" 
d="M285 179l-196 670h98l137 -487l132 487h98l-188 -670h-81zM635 179v670h90v-670h-90zM827 179v670h90v-670h-90z" />
    <glyph glyph-name="uni2167" unicode="&#x2167;" 
d="M217 179l-188 670h90l137 -470l102 470h85l-145 -670h-81zM507 179v670h90v-670h-90zM695 179v670h90v-670h-90zM874 179v670h90v-670h-90z" />
    <glyph glyph-name="uni2168" unicode="&#x2168;" 
d="M145 179v670h93v-670h-93zM546 541l-171 308h102l124 -214l124 214h98l-166 -308l204 -362h-102l-158 268l-158 -268h-102z" />
    <glyph glyph-name="uni2169" unicode="&#x2169;" 
d="M448 541l-227 308h111l171 -222l166 222h111l-222 -299l269 -371h-106l-218 290l-218 -290h-106z" />
    <glyph glyph-name="glyph530" 
d="M96 912h864v-768h-864v768zM240 864l288 -288l288 288h-576zM864 816l-288 -288l288 -288v576zM240 192h576l-288 288zM192 816v-576l288 288z" />
    <glyph glyph-name="glyph531" 
d="M96 912h864v-768h-864v768zM240 864l288 -288l288 288h-576zM864 816l-288 -288l288 -288v576zM240 192h576l-288 288zM192 816v-576l288 288z" />
    <glyph glyph-name="glyph532" 
d="M96 912h864v-768h-864v768zM240 864l288 -288l288 288h-576zM864 816l-288 -288l288 -288v576zM240 192h576l-288 288zM192 816v-576l288 288z" />
    <glyph glyph-name="glyph533" 
d="M96 912h864v-768h-864v768zM240 864l288 -288l288 288h-576zM864 816l-288 -288l288 -288v576zM240 192h576l-288 288zM192 816v-576l288 288z" />
    <glyph glyph-name="glyph534" 
d="M96 912h864v-768h-864v768zM240 864l288 -288l288 288h-576zM864 816l-288 -288l288 -288v576zM240 192h576l-288 288zM192 816v-576l288 288z" />
    <glyph glyph-name="glyph535" 
d="M96 912h864v-768h-864v768zM240 864l288 -288l288 288h-576zM864 816l-288 -288l288 -288v576zM240 192h576l-288 288zM192 816v-576l288 288z" />
    <glyph glyph-name="glyph536" 
d="M96 912h864v-768h-864v768zM240 864l288 -288l288 288h-576zM864 816l-288 -288l288 -288v576zM240 192h576l-288 288zM192 816v-576l288 288z" />
    <glyph glyph-name="Alpha" unicode="&#x391;" 
d="M192 234l264 683h85l265 -683h-81l-90 218h-269l-85 -218h-89zM499 793l-98 -252h196z" />
    <glyph glyph-name="Beta" unicode="&#x392;" 
d="M277 238v679h281q77 -8 122 -45t57 -88q11 -52 -13 -104q-23 -51 -84 -87q67 -21 98 -74q30 -53 21 -115q-9 -61 -58 -109q-50 -47 -143 -57h-281zM494 831h-128v-192h128q71 -1 110 28t42 68q3 40 -34 69t-118 27zM541 550h-175v-226h175q61 8 90 42t27 76q-1 42 -31 73
q-30 32 -86 35z" />
    <glyph glyph-name="Gamma" unicode="&#x393;" 
d="M302 238v679h440v-86h-354v-593h-86z" />
    <glyph glyph-name="uni0394" unicode="&#x394;" 
d="M187 238l325 679l315 -679h-640zM512 712l-192 -388h371z" />
    <glyph glyph-name="Epsilon" unicode="&#x395;" 
d="M315 238v679h393v-86h-303v-196h256v-89h-256v-222h328v-86h-418z" />
    <glyph glyph-name="Zeta" unicode="&#x396;" 
d="M268 831v86h465v-56l-362 -537h379v-86h-499v64l359 529h-342z" />
    <glyph glyph-name="Eta" unicode="&#x397;" 
d="M247 238v679h85v-278h350v278h86v-679h-86v312h-350v-312h-85z" />
    <glyph glyph-name="Theta" unicode="&#x398;" 
d="M362 465v221h86v-64h128v64h85v-221h-85v68h-128v-68h-86zM499 840q-103 -4 -157 -82t-56 -180q-2 -103 50 -181q53 -78 163 -82q118 4 177 82t59 181q0 102 -59 180t-177 82zM499 930q165 -5 247 -110q82 -104 82 -242q0 -137 -82 -242q-82 -104 -247 -110
q-160 6 -237 110q-78 105 -75 242q2 138 81 242q79 105 231 110z" />
    <glyph glyph-name="Iota" unicode="&#x399;" 
d="M465 238v679h89v-679h-89z" />
    <glyph glyph-name="Kappa" unicode="&#x39a;" 
d="M277 238v679h89v-316l252 316h111l-239 -299l265 -380h-111l-214 312l-64 -81v-231h-89z" />
    <glyph glyph-name="Lambda" unicode="&#x39b;" 
d="M234 238l218 679h89l265 -679h-85l-218 551l-179 -551h-90z" />
    <glyph glyph-name="Mu" unicode="&#x39c;" 
d="M187 238v679h133l192 -555l179 555h132v-679h-90v534h-8l-175 -534h-77l-188 534h-8v-534h-90z" />
    <glyph glyph-name="Nu" unicode="&#x39d;" 
d="M243 238v679h85l350 -516v516h85v-679h-85l-350 517v-517h-85z" />
    <glyph glyph-name="Xi" unicode="&#x39e;" 
d="M268 831v86h478v-86h-478zM307 541v90h401v-90h-401zM268 238v86h478v-86h-478z" />
    <glyph glyph-name="Omicron" unicode="&#x39f;" 
d="M499 840q-103 -4 -157 -82t-56 -180q-2 -103 50 -181q53 -78 163 -82q118 4 177 82t59 181q0 102 -59 180t-177 82zM499 930q165 -5 247 -110q82 -104 82 -242q0 -137 -82 -242q-82 -104 -247 -110q-160 6 -237 110q-78 105 -75 242q2 138 81 242q79 105 231 110z" />
    <glyph glyph-name="Pi" unicode="&#x3a0;" 
d="M256 238v679h503v-679h-90v593h-324v-593h-89z" />
    <glyph glyph-name="Rho" unicode="&#x3a1;" 
d="M302 238v679h218q100 0 155 -56q55 -55 60 -132q4 -76 -48 -137t-167 -72h-132v-282h-86zM494 831h-106v-221h106q72 0 107 34q36 33 36 78q-1 45 -37 78q-35 32 -106 31z" />
    <glyph glyph-name="Sigma" unicode="&#x3a3;" 
d="M256 844v73h499v-81h-367l264 -248l-268 -269h379v-81h-507v73l277 277z" />
    <glyph glyph-name="Tau" unicode="&#x3a4;" 
d="M221 831v86h568v-86h-235v-593h-89v593h-244z" />
    <glyph glyph-name="Upsilon" unicode="&#x3a5;" 
d="M456 537l-252 380h107l188 -295l192 295h106l-251 -380v-299h-90v299z" />
    <glyph glyph-name="Phi" unicode="&#x3a6;" 
d="M465 853v64h89v-60q138 -6 206 -88q69 -82 69 -189q0 -108 -69 -190q-68 -82 -206 -88v-64h-89v64q-138 6 -206 88q-69 82 -69 189t69 189q68 81 206 85zM465 763q-88 -4 -132 -57q-43 -53 -43 -123q1 -70 45 -125q43 -54 130 -62v367zM554 396q88 5 133 59q45 55 46 126
q1 72 -43 125q-45 54 -136 57v-367z" />
    <glyph glyph-name="Chi" unicode="&#x3a7;" 
d="M460 593l-230 324h107l175 -248l183 248h111l-235 -324l252 -355h-111l-200 273l-201 -273h-111z" />
    <glyph glyph-name="Psi" unicode="&#x3a8;" 
d="M196 691v226h89v-243q3 -40 16 -73q13 -32 36 -56q23 -23 56 -37q33 -15 76 -18v427h89v-427q48 6 81 19q34 14 55 45q20 31 30 89q9 59 9 154v120h90v-98q1 -107 -9 -180q-11 -73 -38 -119q-28 -47 -81 -73q-52 -26 -137 -38v-171h-89v171q-44 3 -91 18q-47 16 -89 48
q-41 32 -67 85q-25 53 -26 131z" />
    <glyph glyph-name="uni03A9" unicode="&#x3a9;" 
d="M477 930q143 7 228 -58q86 -64 111 -165q26 -101 -10 -204q-36 -104 -137 -175v-4h111v-86h-226v116q103 50 144 131t29 163q-13 83 -69 138t-146 54q-113 -3 -168 -65q-54 -62 -56 -149q-1 -87 44 -162q46 -76 133 -106v-120h-227v86h116v4q-72 26 -116 113t-41 193
q2 106 67 191q66 84 213 105z" />
    <glyph glyph-name="glyph561" 
d="M96 912h864v-768h-864v768zM240 864l288 -288l288 288h-576zM864 816l-288 -288l288 -288v576zM240 192h576l-288 288zM192 816v-576l288 288z" />
    <glyph glyph-name="glyph562" 
d="M96 912h864v-768h-864v768zM240 864l288 -288l288 288h-576zM864 816l-288 -288l288 -288v576zM240 192h576l-288 288zM192 816v-576l288 288z" />
    <glyph glyph-name="glyph563" 
d="M96 912h864v-768h-864v768zM240 864l288 -288l288 288h-576zM864 816l-288 -288l288 -288v576zM240 192h576l-288 288zM192 816v-576l288 288z" />
    <glyph glyph-name="glyph564" 
d="M96 912h864v-768h-864v768zM240 864l288 -288l288 288h-576zM864 816l-288 -288l288 -288v576zM240 192h576l-288 288zM192 816v-576l288 288z" />
    <glyph glyph-name="glyph565" 
d="M96 912h864v-768h-864v768zM240 864l288 -288l288 288h-576zM864 816l-288 -288l288 -288v576zM240 192h576l-288 288zM192 816v-576l288 288z" />
    <glyph glyph-name="glyph566" 
d="M96 912h864v-768h-864v768zM240 864l288 -288l288 288h-576zM864 816l-288 -288l288 -288v576zM240 192h576l-288 288zM192 816v-576l288 288z" />
    <glyph glyph-name="glyph567" 
d="M96 912h864v-768h-864v768zM240 864l288 -288l288 288h-576zM864 816l-288 -288l288 -288v576zM240 192h576l-288 288zM192 816v-576l288 288z" />
    <glyph glyph-name="glyph568" 
d="M96 912h864v-768h-864v768zM240 864l288 -288l288 288h-576zM864 816l-288 -288l288 -288v576zM240 192h576l-288 288zM192 816v-576l288 288z" />
    <glyph glyph-name="alpha" unicode="&#x3b1;" 
d="M354 648q32 18 65 25t65 3t62 -18q29 -15 55 -40v60h73v-354q17 -22 81 -17v-69h-47q-29 0 -48 3t-31 9q-13 7 -20 19q-7 11 -12 29q-16 -19 -39 -34q-22 -14 -50 -21q-27 -8 -58 -6q-30 1 -62 14q-56 27 -89 76q-33 50 -39 110q-6 59 17 116q23 56 77 95zM465 610
q-60 -2 -93 -43q-34 -40 -39 -96q-6 -55 21 -102t89 -62q74 -1 114 42q40 44 44 103q5 59 -29 106q-34 46 -107 52z" />
    <glyph glyph-name="beta" unicode="&#x3b2;" 
d="M298 772q5 37 21 66t40 50q24 20 54 31t64 11q61 -2 104 -27q42 -24 61 -66q18 -41 9 -95t-50 -115q64 -30 95 -76t32 -99t-25 -102q-26 -50 -76 -86q-39 -19 -75 -25q-37 -7 -69 -3q-33 4 -62 17q-28 13 -50 32v-260h-73v747zM580 772q-9 43 -38 65q-30 22 -65 23
q-36 0 -66 -22q-30 -21 -40 -66v-397q27 -31 57 -50q30 -18 62 -23q31 -5 64 8q32 12 64 44q32 45 37 86t-16 72q-21 30 -68 46q-47 15 -119 9v72q30 0 55 6q24 7 41 22t25 41t7 64z" />
    <glyph glyph-name="gamma" unicode="&#x3b3;" 
d="M273 614v64h43q19 -1 34 -4q15 -2 25 -9q11 -6 17 -17l132 -294l120 324h77l-158 -418v-235h-73v226l-149 333q-17 34 -68 30z" />
    <glyph glyph-name="delta" unicode="&#x3b4;" 
d="M315 853v68h337v-68h-230l256 -218q56 -61 64 -136t-27 -140t-108 -97t-181 -7q-81 31 -118 96q-36 65 -28 139q8 73 60 131q51 58 146 74zM512 631q-80 -3 -120 -51t-40 -111t40 -111t120 -51q75 3 113 51q37 48 37 111t-37 111q-38 48 -113 51z" />
    <glyph glyph-name="epsilon" unicode="&#x3b5;" 
d="M392 644q16 11 37 20q22 8 51 11q28 3 66 0q37 -3 85 -14l-34 -60q-37 8 -66 9q-30 2 -51 -3t-34 -17q-13 -13 -16 -32q0 -14 6 -26t19 -20q12 -9 33 -13q20 -5 49 -5h43v-59q-43 2 -73 0q-31 -2 -50 -10t-28 -24q-10 -16 -11 -43q3 -16 14 -28q12 -12 36 -18t64 -3
q40 2 99 15l26 -56q-29 -16 -63 -25t-69 -10q-36 -1 -70 8q-34 8 -63 27q-24 19 -36 43t-11 51q2 26 18 52q17 27 50 51q-26 15 -40 36q-14 22 -17 47q-2 25 7 50q8 25 29 46z" />
    <glyph glyph-name="zeta" unicode="&#x3b6;" 
d="M341 844v73h337v-73q-56 -26 -108 -69q-52 -44 -93 -100q-41 -57 -65 -121q-23 -64 -24 -132q4 -30 15 -51t36 -35t71 -23t121 -15q30 -11 46 -29q16 -19 19 -49q2 -31 -7 -77q-9 -47 -28 -114h-73q23 62 31 104q8 41 2 65q-7 24 -30 33q-22 9 -62 7q-42 0 -80 8
q-37 9 -67 29q-29 20 -47 55t-20 88q3 69 26 132q23 64 58 119q36 56 75 100q40 44 76 75h-209z" />
    <glyph glyph-name="eta" unicode="&#x3b7;" 
d="M482 622q42 37 88 50q45 12 85 2t67 -41q27 -32 33 -83v-525h-73v504q-4 38 -28 58t-58 21q-35 0 -68 -20q-33 -21 -55 -64v-298h-72v362q-6 7 -14 9t-18 -3q-11 -4 -25 -18t-33 -39l-51 34q48 59 83 83q35 25 60 24q25 0 44 -16q19 -17 35 -40z" />
    <glyph glyph-name="theta" unicode="&#x3b8;" 
d="M516 857q-35 -3 -62 -22q-26 -19 -44 -50t-28 -71q-10 -41 -11 -87h298q0 40 -10 81q-10 40 -30 74q-19 33 -48 54q-28 20 -65 21zM669 558h-298q0 -42 7 -86q7 -43 24 -81q16 -37 45 -62q28 -26 69 -31q37 0 64 22q28 21 46 57q19 36 30 83q10 47 13 98zM507 917
q117 -5 176 -106q58 -101 58 -233q0 -133 -58 -234q-59 -101 -176 -106q-109 7 -160 108q-52 101 -50 233q3 132 56 233q53 100 154 105z" />
    <glyph glyph-name="iota" unicode="&#x3b9;" 
d="M448 302v376h72v-350q13 -26 77 -17v-73h-56q-30 0 -49 3q-18 3 -28 10q-9 7 -13 19q-3 13 -3 32z" />
    <glyph glyph-name="kappa" unicode="&#x3ba;" 
d="M320 238v440h72v-205l209 205h94l-196 -192l192 -248h-94l-149 197l-56 -52v-145h-72z" />
    <glyph glyph-name="lambda" unicode="&#x3bb;" 
d="M324 849v68h47q29 1 49 -1t33 -7q13 -6 22 -13q9 -8 15 -18l179 -537q22 -43 111 -34v-69h-85q-18 0 -31 4q-14 4 -25 12q-11 7 -19 19q-9 11 -15 25l-102 295l-128 -355h-85l175 461q-13 60 -25 92q-13 32 -25 44q-13 12 -27 13q-14 2 -30 1h-34z" />
    <glyph glyph-name="uni03BC" unicode="&#x3bc;" 
d="M328 25v653h73v-269q9 -45 37 -70q29 -25 64 -28q36 -4 66 18t42 72v277h72v-337q3 -8 7 -14t11 -9q7 -4 19 -5q12 -2 31 -2v-68q-28 -2 -48 0q-20 1 -34 7t-24 16q-9 9 -17 24q-29 -26 -58 -39q-28 -13 -57 -13q-28 1 -56 17q-28 15 -55 47v-277h-73z" />
    <glyph glyph-name="nu" unicode="&#x3bd;" 
d="M473 238l-158 440h81l116 -333l115 333h81l-158 -440h-77z" />
    <glyph glyph-name="xi" unicode="&#x3be;" 
d="M328 849v68h358v-68h-157q-42 -11 -63 -39t-19 -64q1 -36 26 -68q26 -32 77 -51h102v-69h-115q-66 -11 -102 -45q-37 -35 -41 -78q-4 -44 27 -82t99 -55q84 -16 127 -40q43 -25 53 -58q10 -34 -6 -77q-16 -44 -50 -98h-77q30 57 42 93q11 36 3 58q-7 21 -34 33
q-26 12 -71 21q-97 28 -142 78q-45 49 -45 106q-1 56 35 107q36 50 101 80q-32 25 -51 52t-26 57t-1 65q5 34 23 74h-73z" />
    <glyph glyph-name="omicron" unicode="&#x3bf;" 
d="M503 678q115 -3 173 -69q57 -65 57 -151t-57 -151q-58 -66 -173 -69q-110 3 -165 69q-55 65 -55 151t55 151q55 66 165 69zM661 452q-2 85 -48 127q-46 43 -105 43q-60 0 -106 -41q-46 -42 -48 -125q2 -80 48 -119q46 -40 106 -40q59 0 105 39t48 116z" />
    <glyph glyph-name="pi" unicode="&#x3c0;" 
d="M247 614v64h521v-64h-69v-299q5 -13 39 -13h30v-64h-107q-34 9 -34 43v333h-226v-376h-73v376h-81z" />
    <glyph glyph-name="rho" unicode="&#x3c1;" 
d="M503 678q71 4 124 -21t82 -73q30 -47 31 -111q1 -63 -32 -136q-26 -43 -62 -68q-36 -24 -78 -29q-43 -6 -88 7t-88 43v-265h-72v422q2 48 15 88q14 40 38 71q24 30 57 48q33 19 73 24zM529 614q-68 -4 -101 -50q-34 -47 -33 -107q0 -61 34 -107q35 -46 104 -48
q67 2 101 48q33 46 33 107q-1 60 -35 107q-34 46 -103 50z" />
    <glyph glyph-name="sigma" unicode="&#x3c3;" 
d="M277 439q-3 67 18 117q20 51 61 81t98 38q57 7 126 -10h188v-60h-111q27 -42 40 -88q14 -46 10 -91q-3 -45 -26 -85q-23 -39 -67 -68q-55 -29 -111 -34t-104 15q-48 19 -81 66q-32 46 -41 119zM490 618q-71 -4 -106 -52q-35 -47 -34 -109q0 -63 36 -110t108 -49
q71 2 106 49t35 110q-1 62 -37 109q-36 48 -108 52z" />
    <glyph glyph-name="tau" unicode="&#x3c4;" 
d="M302 605v73h410v-73h-149v-290q4 -8 42 -8h30v-69h-47q-28 0 -47 2q-18 2 -29 8q-11 5 -16 16q-5 10 -6 26v315h-188z" />
    <glyph glyph-name="upsilon" unicode="&#x3c5;" 
d="M311 375v303h68v-256q-3 -63 36 -94q39 -32 92 -33q53 0 92 31q39 32 36 96v256h69v-303q-12 -64 -67 -100q-55 -35 -125 -38q-70 -2 -127 31q-57 34 -74 107z" />
    <glyph glyph-name="phi" unicode="&#x3c6;" 
d="M490 298v371q71 2 125 -10q54 -11 91 -37q36 -26 55 -67t19 -99q0 -42 -14 -80q-13 -38 -40 -69q-27 -32 -68 -54t-95 -32v-196h-73v196q-39 2 -76 13q-38 12 -70 32q-33 19 -57 46t-36 59q-14 45 -12 95q3 50 24 94q22 44 64 72q43 29 108 33v-72q-60 -4 -93 -45
q-34 -42 -33 -96q1 -55 44 -100q43 -44 137 -54zM563 302q70 10 106 56q37 46 38 101q1 56 -35 97q-36 40 -109 41v-295z" />
    <glyph glyph-name="chi" unicode="&#x3c7;" 
d="M256 614v64h38q19 0 34 -1t26 -4q12 -3 21 -8t17 -13l120 -209l140 235h81l-179 -307l145 -265q5 -5 11 -8q7 -3 15 -5t17 -3q10 -1 21 -1v-64h-59q-11 0 -19 1q-9 1 -14 3q-6 2 -9 5q-4 3 -5 8l-145 248l-158 -265h-81l196 346l-128 226q-8 5 -15 8q-6 3 -13 5t-15 3
q-7 1 -17 1h-25z" />
    <glyph glyph-name="psi" unicode="&#x3c8;" 
d="M473 307v537h73v-533q29 1 55 11t47 30q20 20 33 53q12 33 14 81v192h68v-252q-8 -46 -24 -80q-17 -33 -43 -56t-63 -36q-38 -14 -87 -20v-209h-73v209q-56 8 -97 23q-41 16 -70 40q-28 25 -45 59q-16 34 -23 79v243h73v-196q0 -51 10 -83q9 -33 29 -51q20 -19 51 -28
q30 -9 72 -13z" />
    <glyph glyph-name="omega" unicode="&#x3c9;" 
d="M247 298q-32 42 -43 88q-11 47 -4 96t30 98q23 50 60 98l64 -34q-26 -29 -44 -58q-18 -30 -28 -61q-9 -31 -10 -65q0 -34 9 -72q15 -39 44 -59t60 -20q32 -1 56 17q25 19 32 57v154h73v-154q10 -35 33 -54q22 -20 50 -22q28 -3 55 13t45 51q11 27 15 56t-2 63
q-6 33 -25 71q-18 38 -52 83l68 30q31 -39 52 -85q22 -46 30 -95q8 -50 -2 -99q-9 -50 -41 -97q-29 -32 -65 -47q-35 -15 -72 -14t-70 19q-34 17 -58 51q-16 -30 -48 -48q-31 -17 -69 -19t-76 12q-37 14 -67 46z" />
    <glyph glyph-name="glyph593" 
d="M96 912h864v-768h-864v768zM240 864l288 -288l288 288h-576zM864 816l-288 -288l288 -288v576zM240 192h576l-288 288zM192 816v-576l288 288z" />
    <glyph glyph-name="glyph594" 
d="M96 912h864v-768h-864v768zM240 864l288 -288l288 288h-576zM864 816l-288 -288l288 -288v576zM240 192h576l-288 288zM192 816v-576l288 288z" />
    <glyph glyph-name="glyph595" 
d="M96 912h864v-768h-864v768zM240 864l288 -288l288 288h-576zM864 816l-288 -288l288 -288v576zM240 192h576l-288 288zM192 816v-576l288 288z" />
    <glyph glyph-name="glyph596" 
d="M96 912h864v-768h-864v768zM240 864l288 -288l288 288h-576zM864 816l-288 -288l288 -288v576zM240 192h576l-288 288zM192 816v-576l288 288z" />
    <glyph glyph-name="glyph597" 
d="M96 912h864v-768h-864v768zM240 864l288 -288l288 288h-576zM864 816l-288 -288l288 -288v576zM240 192h576l-288 288zM192 816v-576l288 288z" />
    <glyph glyph-name="glyph598" 
d="M96 912h864v-768h-864v768zM240 864l288 -288l288 288h-576zM864 816l-288 -288l288 -288v576zM240 192h576l-288 288zM192 816v-576l288 288z" />
    <glyph glyph-name="SF100000" unicode="&#x2500;" 
d="M0 490v43h1019v-43h-1019z" />
    <glyph glyph-name="SF110000" unicode="&#x2502;" 
d="M490 4v1019h43v-1019h-43z" />
    <glyph glyph-name="SF010000" unicode="&#x250c;" 
d="M490 4v529h529v-43h-486v-486h-43z" />
    <glyph glyph-name="SF030000" unicode="&#x2510;" 
d="M0 490v43h533v-529h-43v486h-490z" />
    <glyph glyph-name="SF040000" unicode="&#x2518;" 
d="M490 533v490h43v-533h-533v43h490z" />
    <glyph glyph-name="SF020000" unicode="&#x2514;" 
d="M490 490v533h43v-490h486v-43h-529z" />
    <glyph glyph-name="SF080000" unicode="&#x251c;" 
d="M490 4v1019h43v-490h486v-43h-486v-486h-43z" />
    <glyph glyph-name="SF060000" unicode="&#x252c;" 
d="M0 490v43h1019v-43h-486v-486h-43v486h-490z" />
    <glyph glyph-name="SF090000" unicode="&#x2524;" 
d="M490 533v490h43v-1019h-43v486h-490v43h490z" />
    <glyph glyph-name="SF070000" unicode="&#x2534;" 
d="M490 533v490h43v-490h486v-43h-1019v43h490z" />
    <glyph glyph-name="SF050000" unicode="&#x253c;" 
d="M490 533v490h43v-490h486v-43h-486v-486h-43v486h-490v43h490z" />
    <glyph glyph-name="uni2501" unicode="&#x2501;" 
d="M0 469v85h1019v-85h-1019z" />
    <glyph glyph-name="uni2503" unicode="&#x2503;" 
d="M469 4v1019h85v-1019h-85z" />
    <glyph glyph-name="uni250F" unicode="&#x250f;" 
d="M469 4v550h550v-85h-465v-465h-85z" />
    <glyph glyph-name="uni2513" unicode="&#x2513;" 
d="M0 469v85h554v-550h-85v465h-469z" />
    <glyph glyph-name="uni251B" unicode="&#x251b;" 
d="M469 554v469h85v-554h-554v85h469z" />
    <glyph glyph-name="uni2517" unicode="&#x2517;" 
d="M469 469v554h85v-469h465v-85h-550z" />
    <glyph glyph-name="uni2523" unicode="&#x2523;" 
d="M469 4v1019h85v-469h465v-85h-465v-465h-85z" />
    <glyph glyph-name="uni2533" unicode="&#x2533;" 
d="M0 469v85h1019v-85h-465v-465h-85v465h-469z" />
    <glyph glyph-name="uni252B" unicode="&#x252b;" 
d="M469 554v469h85v-1019h-85v465h-469v85h469z" />
    <glyph glyph-name="uni253B" unicode="&#x253b;" 
d="M469 554v469h85v-469h465v-85h-1019v85h469z" />
    <glyph glyph-name="uni254B" unicode="&#x254b;" 
d="M469 554v469h85v-469h465v-85h-465v-465h-85v465h-469v85h469z" />
    <glyph glyph-name="uni2520" unicode="&#x2520;" 
d="M469 4v1019h85v-490h465v-43h-465v-486h-85z" />
    <glyph glyph-name="uni252F" unicode="&#x252f;" 
d="M0 469v85h1019v-85h-486v-465h-43v465h-490z" />
    <glyph glyph-name="uni2528" unicode="&#x2528;" 
d="M469 533v490h85v-1019h-85v486h-469v43h469z" />
    <glyph glyph-name="uni2537" unicode="&#x2537;" 
d="M490 554v469h43v-469h486v-85h-1019v85h490z" />
    <glyph glyph-name="uni253F" unicode="&#x253f;" 
d="M490 554v469h43v-469h486v-85h-486v-465h-43v465h-490v85h490z" />
    <glyph glyph-name="uni251D" unicode="&#x251d;" 
d="M490 4v1019h43v-469h486v-85h-486v-465h-43z" />
    <glyph glyph-name="uni2530" unicode="&#x2530;" 
d="M0 490v43h1019v-43h-465v-486h-85v486h-469z" />
    <glyph glyph-name="uni2525" unicode="&#x2525;" 
d="M490 554v469h43v-1019h-43v465h-490v85h490z" />
    <glyph glyph-name="uni2538" unicode="&#x2538;" 
d="M469 533v490h85v-490h465v-43h-1019v43h469z" />
    <glyph glyph-name="uni2542" unicode="&#x2542;" 
d="M469 533v490h85v-490h465v-43h-465v-486h-85v486h-469v43h469z" />
    <glyph glyph-name="uni2512" unicode="&#x2512;" 
d="M0 490v43h554v-529h-85v486h-469z" />
    <glyph glyph-name="uni2511" unicode="&#x2511;" 
d="M0 469v85h533v-550h-43v465h-490z" />
    <glyph glyph-name="uni251A" unicode="&#x251a;" 
d="M469 533v490h85v-533h-554v43h469z" />
    <glyph glyph-name="uni2519" unicode="&#x2519;" 
d="M490 554v469h43v-554h-533v85h490z" />
    <glyph glyph-name="uni2516" unicode="&#x2516;" 
d="M469 490v533h85v-490h465v-43h-550z" />
    <glyph glyph-name="uni2515" unicode="&#x2515;" 
d="M490 469v554h43v-469h486v-85h-529z" />
    <glyph glyph-name="uni250E" unicode="&#x250e;" 
d="M469 4v529h550v-43h-465v-486h-85z" />
    <glyph glyph-name="uni250D" unicode="&#x250d;" 
d="M490 4v550h529v-85h-486v-465h-43z" />
    <glyph glyph-name="uni251E" unicode="&#x251e;" 
d="M469 511v512h85v-490h465v-43h-486v-486h-43v507h-21z" />
    <glyph glyph-name="uni251F" unicode="&#x251f;" 
d="M490 511v512h43v-490h486v-43h-465v-486h-85v507h21z" />
    <glyph glyph-name="uni2521" unicode="&#x2521;" 
d="M469 511v512h85v-469h465v-85h-486v-465h-43v507h-21z" />
    <glyph glyph-name="uni2522" unicode="&#x2522;" 
d="M490 511v512h43v-469h486v-85h-465v-465h-85v507h21z" />
    <glyph glyph-name="uni2526" unicode="&#x2526;" 
d="M469 533v490h85v-512h-21v-507h-43v486h-490v43h469z" />
    <glyph glyph-name="uni2527" unicode="&#x2527;" 
d="M490 533v490h43v-512h21v-507h-85v486h-469v43h490z" />
    <glyph glyph-name="uni2529" unicode="&#x2529;" 
d="M469 554v469h85v-512h-21v-507h-43v465h-490v85h469z" />
    <glyph glyph-name="uni252A" unicode="&#x252a;" 
d="M490 554v469h43v-512h21v-507h-85v465h-469v85h490z" />
    <glyph glyph-name="uni252D" unicode="&#x252d;" 
d="M0 469v85h512v-21h507v-43h-486v-486h-43v465h-490z" />
    <glyph glyph-name="uni252E" unicode="&#x252e;" 
d="M512 533v21h507v-85h-486v-465h-43v486h-490v43h512z" />
    <glyph glyph-name="uni2531" unicode="&#x2531;" 
d="M0 469v85h512v-21h507v-43h-465v-486h-85v465h-469z" />
    <glyph glyph-name="uni2532" unicode="&#x2532;" 
d="M512 533v21h507v-85h-465v-465h-85v486h-469v43h512z" />
    <glyph glyph-name="uni2535" unicode="&#x2535;" 
d="M490 554v469h43v-490h486v-43h-507v-21h-512v85h490z" />
    <glyph glyph-name="uni2536" unicode="&#x2536;" 
d="M490 533v490h43v-469h486v-85h-507v21h-512v43h490z" />
    <glyph glyph-name="uni2539" unicode="&#x2539;" 
d="M469 554v469h85v-490h465v-43h-507v-21h-512v85h469z" />
    <glyph glyph-name="uni253A" unicode="&#x253a;" 
d="M469 533v490h85v-469h465v-85h-507v21h-512v43h469z" />
    <glyph glyph-name="uni253D" unicode="&#x253d;" 
d="M490 554v469h43v-490h486v-43h-486v-486h-43v465h-490v85h490z" />
    <glyph glyph-name="uni253E" unicode="&#x253e;" 
d="M490 533v490h43v-469h486v-85h-486v-465h-43v486h-490v43h490z" />
    <glyph glyph-name="uni2540" unicode="&#x2540;" 
d="M469 533v490h85v-490h465v-43h-486v-486h-43v486h-490v43h469z" />
    <glyph glyph-name="uni2541" unicode="&#x2541;" 
d="M490 533v490h43v-490h486v-43h-465v-486h-85v486h-469v43h490z" />
    <glyph glyph-name="uni2543" unicode="&#x2543;" 
d="M469 554v469h85v-490h465v-43h-486v-486h-43v465h-490v85h469z" />
    <glyph glyph-name="uni2544" unicode="&#x2544;" 
d="M469 533v490h85v-469h465v-85h-486v-465h-43v486h-490v43h469z" />
    <glyph glyph-name="uni2545" unicode="&#x2545;" 
d="M490 554v469h43v-490h486v-43h-465v-486h-85v465h-469v85h490z" />
    <glyph glyph-name="uni2546" unicode="&#x2546;" 
d="M490 533v490h43v-469h486v-85h-465v-465h-85v486h-469v43h490z" />
    <glyph glyph-name="uni2547" unicode="&#x2547;" 
d="M469 554v469h85v-469h465v-85h-486v-465h-43v465h-490v85h469z" />
    <glyph glyph-name="uni2548" unicode="&#x2548;" 
d="M490 554v469h43v-469h486v-85h-465v-465h-85v465h-469v85h490z" />
    <glyph glyph-name="uni2549" unicode="&#x2549;" 
d="M469 554v469h85v-490h465v-43h-465v-486h-85v465h-469v85h469z" />
    <glyph glyph-name="uni254A" unicode="&#x254a;" 
d="M469 533v490h85v-469h465v-85h-465v-465h-85v486h-469v43h469z" />
    <glyph glyph-name="glyph667" 
d="M96 912h864v-768h-864v768zM240 864l288 -288l288 288h-576zM864 816l-288 -288l288 -288v576zM240 192h576l-288 288zM192 816v-576l288 288z" />
    <glyph glyph-name="glyph668" 
d="M96 912h864v-768h-864v768zM240 864l288 -288l288 288h-576zM864 816l-288 -288l288 -288v576zM240 192h576l-288 288zM192 816v-576l288 288z" />
    <glyph glyph-name="glyph669" 
d="M96 912h864v-768h-864v768zM240 864l288 -288l288 288h-576zM864 816l-288 -288l288 -288v576zM240 192h576l-288 288zM192 816v-576l288 288z" />
    <glyph glyph-name="glyph670" 
d="M96 912h864v-768h-864v768zM240 864l288 -288l288 288h-576zM864 816l-288 -288l288 -288v576zM240 192h576l-288 288zM192 816v-576l288 288z" />
    <glyph glyph-name="glyph671" 
d="M96 912h864v-768h-864v768zM240 864l288 -288l288 288h-576zM864 816l-288 -288l288 -288v576zM240 192h576l-288 288zM192 816v-576l288 288z" />
    <glyph glyph-name="glyph672" 
d="M96 912h864v-768h-864v768zM240 864l288 -288l288 288h-576zM864 816l-288 -288l288 -288v576zM240 192h576l-288 288zM192 816v-576l288 288z" />
    <glyph glyph-name="glyph673" 
d="M96 912h864v-768h-864v768zM240 864l288 -288l288 288h-576zM864 816l-288 -288l288 -288v576zM240 192h576l-288 288zM192 816v-576l288 288z" />
    <glyph glyph-name="glyph674" 
d="M96 912h864v-768h-864v768zM240 864l288 -288l288 288h-576zM864 816l-288 -288l288 -288v576zM240 192h576l-288 288zM192 816v-576l288 288z" />
    <glyph glyph-name="glyph675" 
d="M96 912h864v-768h-864v768zM240 864l288 -288l288 288h-576zM864 816l-288 -288l288 -288v576zM240 192h576l-288 288zM192 816v-576l288 288z" />
    <glyph glyph-name="glyph676" 
d="M96 912h864v-768h-864v768zM240 864l288 -288l288 288h-576zM864 816l-288 -288l288 -288v576zM240 192h576l-288 288zM192 816v-576l288 288z" />
    <glyph glyph-name="glyph677" 
d="M96 912h864v-768h-864v768zM240 864l288 -288l288 288h-576zM864 816l-288 -288l288 -288v576zM240 192h576l-288 288zM192 816v-576l288 288z" />
    <glyph glyph-name="glyph678" 
d="M96 912h864v-768h-864v768zM240 864l288 -288l288 288h-576zM864 816l-288 -288l288 -288v576zM240 192h576l-288 288zM192 816v-576l288 288z" />
    <glyph glyph-name="glyph679" 
d="M96 912h864v-768h-864v768zM240 864l288 -288l288 288h-576zM864 816l-288 -288l288 -288v576zM240 192h576l-288 288zM192 816v-576l288 288z" />
    <glyph glyph-name="glyph680" 
d="M96 912h864v-768h-864v768zM240 864l288 -288l288 288h-576zM864 816l-288 -288l288 -288v576zM240 192h576l-288 288zM192 816v-576l288 288z" />
    <glyph glyph-name="glyph681" 
d="M96 912h864v-768h-864v768zM240 864l288 -288l288 288h-576zM864 816l-288 -288l288 -288v576zM240 192h576l-288 288zM192 816v-576l288 288z" />
    <glyph glyph-name="glyph682" 
d="M96 912h864v-768h-864v768zM240 864l288 -288l288 288h-576zM864 816l-288 -288l288 -288v576zM240 192h576l-288 288zM192 816v-576l288 288z" />
    <glyph glyph-name="glyph683" 
d="M96 912h864v-768h-864v768zM240 864l288 -288l288 288h-576zM864 816l-288 -288l288 -288v576zM240 192h576l-288 288zM192 816v-576l288 288z" />
    <glyph glyph-name="glyph684" 
d="M96 912h864v-768h-864v768zM240 864l288 -288l288 288h-576zM864 816l-288 -288l288 -288v576zM240 192h576l-288 288zM192 816v-576l288 288z" />
    <glyph glyph-name="glyph685" 
d="M96 912h864v-768h-864v768zM240 864l288 -288l288 288h-576zM864 816l-288 -288l288 -288v576zM240 192h576l-288 288zM192 816v-576l288 288z" />
    <glyph glyph-name="glyph686" 
d="M96 912h864v-768h-864v768zM240 864l288 -288l288 288h-576zM864 816l-288 -288l288 -288v576zM240 192h576l-288 288zM192 816v-576l288 288z" />
    <glyph glyph-name="glyph687" 
d="M96 912h864v-768h-864v768zM240 864l288 -288l288 288h-576zM864 816l-288 -288l288 -288v576zM240 192h576l-288 288zM192 816v-576l288 288z" />
    <glyph glyph-name="glyph688" 
d="M96 912h864v-768h-864v768zM240 864l288 -288l288 288h-576zM864 816l-288 -288l288 -288v576zM240 192h576l-288 288zM192 816v-576l288 288z" />
    <glyph glyph-name="glyph689" 
d="M96 912h864v-768h-864v768zM240 864l288 -288l288 288h-576zM864 816l-288 -288l288 -288v576zM240 192h576l-288 288zM192 816v-576l288 288z" />
    <glyph glyph-name="glyph690" 
d="M96 912h864v-768h-864v768zM240 864l288 -288l288 288h-576zM864 816l-288 -288l288 -288v576zM240 192h576l-288 288zM192 816v-576l288 288z" />
    <glyph glyph-name="glyph691" 
d="M96 912h864v-768h-864v768zM240 864l288 -288l288 288h-576zM864 816l-288 -288l288 -288v576zM240 192h576l-288 288zM192 816v-576l288 288z" />
    <glyph glyph-name="glyph692" 
d="M96 912h864v-768h-864v768zM240 864l288 -288l288 288h-576zM864 816l-288 -288l288 -288v576zM240 192h576l-288 288zM192 816v-576l288 288z" />
    <glyph glyph-name="uni3395" unicode="&#x3395;" 
d="M648 345q-19 98 -19 200t21 189q22 87 67 138q45 52 115 49q62 -7 86 -67q23 -60 10 -152q-14 -92 -64 -193q-50 -102 -135 -190q8 -34 22 -54q15 -20 34 -24t41 12q21 16 44 54l64 -39q-8 -18 -18 -33q-10 -16 -22 -30q-13 -13 -30 -24q-16 -11 -37 -19q-27 -6 -50 -2
q-23 5 -43 19q-19 13 -36 34q-16 21 -29 47l-93 -86l-56 60zM840 661q17 80 11 124t-25 54q-20 9 -44 -15q-24 -25 -44 -82q-52 -171 -30 -324q85 102 132 243zM59 17v657h86v-303q5 -64 37 -96t74 -32q41 0 73 32t37 96v303h82v-401q1 -8 4 -14q2 -6 6 -9q3 -4 8 -5
q5 -2 11 -2v-86h-38q-10 0 -19 3t-18 10q-8 6 -15 16t-12 23q-23 -24 -50 -37t-57 -13q-30 -1 -61 10t-62 35v-187h-86z" />
    <glyph glyph-name="uni3396" unicode="&#x3396;" 
d="M132 614q23 38 48 54q25 17 49 15q25 -2 45 -19t33 -46q31 40 64 55q33 14 62 7q30 -8 51 -36t28 -73v-405h-82v371q-1 40 -15 60q-14 19 -33 13q-19 -5 -36 -40q-16 -34 -22 -101v-303h-81v367q1 42 -13 57q-14 16 -35 7q-20 -10 -38 -43t-25 -89v-299h-81v508h81v-60z
M674 349q-13 98 -12 200t20 189q20 87 62 138q43 52 113 49q62 -6 86 -67q24 -60 10 -152t-63 -193q-50 -101 -135 -189q8 -34 22 -54q15 -21 34 -24q19 -4 41 11q21 16 44 54l64 -38q-8 -18 -18 -34t-23 -29q-13 -14 -29 -25t-37 -19q-27 -6 -51 -1q-23 4 -43 18
q-19 14 -35 35q-16 20 -29 46l-102 -90l-52 60zM866 661q17 80 11 124t-26 54q-19 9 -44 -15q-24 -25 -44 -82q-51 -171 -30 -324q86 102 133 243z" />
    <glyph glyph-name="uni3397" unicode="&#x3397;" 
d="M405 618v295h85v-747h-85v55q-25 -22 -53 -37q-27 -15 -57 -21q-29 -6 -62 0q-32 5 -67 24q-34 19 -59 56q-24 37 -37 86q-12 49 -10 106q2 58 21 119q25 61 63 93q39 32 84 38q46 7 92 -11q46 -17 85 -56zM648 345q-13 98 -12 200t21 189q19 87 62 138q43 52 113 49
q62 -7 86 -67q23 -60 10 -152q-14 -92 -64 -193q-50 -102 -135 -190q8 -34 22 -54q15 -20 34 -24t41 12q21 16 44 54l64 -39q-8 -18 -18 -33q-10 -16 -22 -30q-13 -13 -30 -24q-16 -11 -37 -19q-27 -6 -50 -2q-23 5 -43 19q-19 13 -36 34q-16 21 -29 47l-102 -90l-51 60z
M840 661q17 80 11 124t-25 54q-20 9 -44 -15q-24 -25 -44 -82q-52 -171 -30 -324q85 102 132 243zM277 601q-67 0 -101 -52q-35 -53 -35 -124q-1 -72 33 -127t103 -60q64 8 96 62q32 55 32 124q0 70 -32 122t-96 55z" />
    <glyph glyph-name="uni2113" unicode="&#x2113;" 
d="M418 341q-18 78 -18 179q1 102 21 197q21 95 65 152q45 58 115 48q63 -7 86 -67q24 -60 10 -152q-13 -92 -63 -193q-50 -102 -135 -190q10 -36 28 -55t41 -19q23 1 46 25t43 75l68 -51q-16 -27 -30 -48q-15 -22 -29 -38q-15 -16 -32 -27q-17 -12 -37 -20q-27 -6 -51 -1
q-23 4 -43 18q-19 14 -35 35q-16 20 -29 46l-77 -76l-51 64zM614 661q17 80 11 124t-25 54q-20 9 -44 -15q-24 -25 -44 -82q-52 -171 -30 -324q85 102 132 243z" />
    <glyph glyph-name="uni3398" unicode="&#x3398;" 
d="M59 166v747h86v-431l204 192h107l-196 -188l217 -320h-106l-175 260l-51 -47v-213h-86zM840 661q17 80 11 124t-25 54q-20 9 -44 -15q-24 -25 -44 -82q-52 -171 -30 -324q85 102 132 243zM648 345q-13 98 -12 200t21 189q19 87 62 138q43 52 113 49q62 -7 86 -67
q23 -60 10 -152q-14 -92 -64 -193q-50 -102 -135 -190q8 -34 22 -54q15 -20 34 -24t41 12q21 16 44 54l64 -39q-8 -18 -18 -33q-10 -16 -22 -30q-13 -13 -30 -24q-16 -11 -37 -19q-27 -6 -50 -2q-23 5 -43 19q-19 13 -36 34q-16 21 -29 47l-102 -90l-51 60z" />
    <glyph glyph-name="uni33C4" unicode="&#x33c4;" 
d="M106 597q30 45 83 67q53 23 111 20q58 -4 105 -36q46 -33 64 -98l-73 -34q-11 26 -26 44q-14 18 -33 28q-20 11 -44 13t-55 -4q-41 -14 -63 -49q-23 -36 -29 -82t3 -92t30 -80q23 -35 57 -47t69 -4q34 9 59 36q24 27 28 70l77 -21q-4 -48 -28 -86q-25 -37 -65 -58
q-41 -22 -92 -23q-52 -2 -110 22q-43 22 -71 68q-28 47 -38 107t0 123q9 62 41 116zM597 597q30 45 83 67q53 23 111 20q58 -4 105 -36q46 -33 64 -98l-73 -34q-11 26 -26 44t-34 28q-19 11 -43 13q-25 2 -55 -4q-41 -14 -64 -49q-22 -36 -28 -82t3 -92q8 -46 29 -80
q23 -35 57 -47q35 -12 69 -4q35 9 59 36q25 27 29 70l77 -21q-4 -48 -28 -86q-25 -37 -65 -58q-41 -22 -92 -23q-52 -2 -110 22q-43 22 -71 68q-28 47 -38 107t0 123q9 62 41 116z" />
    <glyph glyph-name="uni33A3" unicode="&#x33a3;" 
d="M883 998q111 8 111 -68q-5 -39 -39 -56q15 -8 26 -22q10 -14 14 -31q3 -17 -4 -34q-7 -18 -27 -32q-23 -13 -46 -16q-24 -3 -45 2t-36 16q-16 12 -23 28l47 17q17 -39 64 -22q15 12 19 26t-1 27q-6 12 -21 18q-15 7 -39 2v38q16 -1 28 2q11 4 19 11q7 7 9 17t-1 21
q-7 11 -17 17q-10 5 -22 3q-12 -1 -23 -10t-19 -27l-43 17q9 43 69 56zM93 618q24 32 47 47q24 16 47 15q22 0 45 -16t45 -46q23 37 55 52q31 16 63 10q31 -7 52 -36q22 -29 26 -81v-397h-81v401q-4 29 -18 41q-15 12 -34 4q-18 -8 -34 -38t-21 -84v-324h-81v401
q-2 26 -16 35q-14 10 -33 1q-19 -10 -36 -39q-17 -30 -26 -82v-316h-81v508h81v-56zM610 627q21 28 42 42q22 14 44 12q22 -1 44 -17t45 -46q23 37 54 52q32 16 63 10q31 -7 53 -36t26 -81v-397h-81v401q-4 29 -19 41q-14 12 -33 4t-34 -38q-16 -30 -21 -84v-324h-81v401
q-2 26 -15 35q-13 10 -31 1q-18 -10 -33 -39q-16 -30 -23 -82v-316h-81v508h81v-47z" />
    <glyph glyph-name="uni33A4" unicode="&#x33a4;" 
d="M883 998q111 8 111 -68q-5 -39 -39 -56q15 -8 26 -23q10 -14 14 -32q3 -17 -4 -34t-27 -30q-23 -13 -46 -16q-24 -3 -45 2t-36 16q-16 12 -23 28l47 17q26 -35 64 -22q15 12 19 26t-1 27q-6 12 -21 18q-15 7 -39 2v38q16 -1 28 2q11 4 19 11q7 7 9 17t-1 21q-7 11 -17 17
q-10 5 -22 3q-12 -1 -23 -10t-19 -27l-43 17q9 43 69 56zM588 618q23 32 47 47q24 16 48 15q25 0 47 -16q23 -16 42 -46q21 37 54 52q33 16 66 10q34 -7 59 -36q24 -29 30 -81v-397h-85v401q-4 27 -19 38t-33 3q-19 -7 -36 -36q-16 -29 -23 -82v-324h-86v401q1 21 -12 29
t-33 0t-39 -36q-18 -27 -27 -78v-316h-81v508h81v-56zM85 597q30 45 83 67q53 23 111 20q58 -4 105 -36q46 -33 64 -98l-73 -34q-11 26 -26 44t-34 28q-19 11 -43 13q-25 2 -55 -4q-41 -14 -64 -49q-22 -36 -28 -82t3 -92q8 -46 29 -80q23 -35 57 -47q35 -12 69 -4
q35 9 59 36q25 27 29 70l77 -21q-4 -48 -28 -86q-25 -37 -65 -58q-41 -22 -92 -23q-52 -2 -110 22q-43 22 -71 68q-28 47 -38 107t0 123q9 62 41 116z" />
    <glyph glyph-name="uni33A5" unicode="&#x33a5;" 
d="M234 605q37 39 76 59q39 19 77 20q39 0 73 -19q35 -20 64 -60q51 50 106 68q56 18 105 7q49 -12 82 -52q32 -41 36 -108v-354h-90v354q-7 43 -33 67q-27 24 -62 25q-36 2 -71 -22q-35 -23 -60 -74v-350h-89v341q-9 54 -36 79q-26 24 -60 21q-34 -2 -66 -29t-52 -75v-337
h-89v508h89v-69zM844 998q111 8 111 -68q-4 -39 -38 -56q15 -8 25 -23q11 -14 14 -32q4 -17 -3 -34t-28 -30q-22 -13 -46 -16q-23 -3 -44 2t-37 16q-15 12 -22 28l47 17q26 -35 64 -22q14 12 18 26t-1 27q-6 12 -21 18q-15 7 -39 2v38q16 -1 28 2q12 4 19 11t10 17
q2 10 -1 21q-7 11 -17 17q-10 5 -22 3q-12 -1 -23 -10t-19 -27l-43 17q9 43 68 56z" />
    <glyph glyph-name="uni33A6" unicode="&#x33a6;" 
d="M59 166v747h81v-414l184 175h115l-196 -188l205 -320h-103l-166 260l-39 -38v-222h-81zM883 998q111 8 111 -68q-5 -39 -39 -56q15 -8 26 -23q10 -14 14 -32q3 -17 -4 -34t-27 -30q-23 -13 -46 -16q-24 -3 -45 2t-36 16q-16 12 -23 28l47 17q26 -35 64 -22q15 12 19 26
t-1 27q-6 12 -21 18q-15 7 -39 2v38q16 -1 28 2q11 4 19 11q7 7 9 17t-1 21q-7 11 -17 17q-10 5 -22 3q-12 -1 -23 -10t-19 -27l-43 17q9 43 69 56zM588 618q23 32 47 47q24 16 48 15q25 0 47 -16q23 -16 42 -46q21 37 54 52q33 16 66 10q34 -7 59 -36q24 -29 30 -81v-397
h-85v401q-4 27 -19 38t-33 3q-19 -7 -36 -36q-16 -29 -23 -82v-324h-86v401q1 21 -12 29t-33 0t-39 -36q-18 -27 -27 -78v-316h-81v508h81v-56z" />
    <glyph glyph-name="uni3399" unicode="&#x3399;" 
d="M328 913h73v-82h-86q-11 -1 -18 -7q-7 -5 -10 -17q-4 -12 -5 -32t-1 -50v-43h124v-85h-124v-431h-85v431h-124v85h124v47q0 56 6 92q5 36 20 56q14 20 40 28t66 8zM567 614q14 33 34 50q20 16 43 16t47 -16t47 -46q20 35 51 51q31 15 63 9q33 -6 56 -34q24 -29 30 -81
v-397h-85v401q-4 27 -19 38q-14 11 -32 3q-18 -7 -31 -36q-14 -29 -16 -82v-324h-86v401q-4 21 -18 29t-33 0q-18 -8 -32 -36q-15 -27 -19 -78v-316h-85v508h85v-60z" />
    <glyph glyph-name="uni339A" unicode="&#x339a;" 
d="M273 682q34 2 63 -6q30 -8 53 -29q23 -20 39 -54q15 -35 20 -86v-341h-82v299q-1 69 -28 103q-28 35 -68 34q-41 -1 -82 -38t-69 -112v-286h-85v503h85v-85q18 22 36 40q18 17 38 29q19 11 39 19q20 7 41 10zM601 618q19 32 40 47q20 16 42 15q22 0 44 -16t45 -46
q20 35 51 51q31 15 64 9q32 -6 56 -34q24 -29 29 -81v-397h-85v401q-4 27 -19 38q-14 11 -32 3q-18 -7 -31 -36q-14 -29 -16 -82v-324h-85v401q-4 21 -19 29q-14 8 -32 0q-19 -8 -33 -36q-15 -27 -19 -78v-316h-85v508h85v-56z" />
    <glyph glyph-name="uni339B" unicode="&#x339b;" 
d="M42 17v657h81v-316q0 -61 34 -91q33 -30 78 -30t80 32q35 31 39 93v312h85v-423q9 -8 26 -8v-86q-21 -2 -37 0q-17 2 -29 8q-13 6 -22 17t-15 27q-23 -24 -53 -37t-63 -13q-33 -1 -65 10t-58 35v-187h-81zM601 631q19 27 40 40q20 12 42 11q22 -2 44 -18t45 -46
q20 35 51 51q31 15 64 9q32 -6 56 -34q24 -29 29 -81v-397h-85v401q-4 27 -19 38q-14 11 -32 3q-18 -7 -31 -36q-14 -29 -16 -82v-324h-85v401q-4 21 -19 29q-14 8 -32 0q-19 -8 -33 -36q-15 -27 -19 -78v-316h-85v508h85v-43z" />
    <glyph glyph-name="uni339C" unicode="&#x339c;" 
d="M93 618q24 32 47 47q24 16 47 15q22 0 45 -16t45 -46q23 37 55 52q31 16 63 10q31 -7 52 -36q22 -29 26 -81v-397h-81v401q-4 29 -18 41q-15 12 -34 4q-18 -8 -34 -38t-21 -84v-324h-81v401q-2 26 -16 35q-14 10 -33 1q-19 -10 -36 -39q-17 -30 -26 -82v-316h-81v508h81
v-56zM610 627q25 28 48 42q22 14 43 12q20 -1 41 -17t43 -46q23 37 54 52q32 16 63 10q31 -7 53 -36t26 -81v-397h-81v401q-4 29 -19 41q-14 12 -33 4t-34 -38q-16 -30 -21 -84v-324h-81v401q-2 26 -15 35q-13 10 -31 1q-18 -10 -33 -39q-16 -30 -23 -82v-316h-81v508h81
v-47z" />
    <glyph glyph-name="uni339D" unicode="&#x339d;" 
d="M588 618q23 32 47 47q24 16 48 15q25 0 47 -16q23 -16 42 -46q21 37 54 52q33 16 66 10q34 -7 59 -36q24 -29 30 -81v-397h-85v401q-4 27 -19 38t-33 3q-19 -7 -36 -36q-16 -29 -23 -82v-324h-86v401q1 21 -12 29t-33 0t-39 -36q-18 -27 -27 -78v-316h-81v508h81v-56z
M85 597q30 45 83 67q53 23 111 20q58 -4 105 -36q46 -33 64 -98l-73 -34q-11 26 -26 44t-34 28q-19 11 -43 13q-25 2 -55 -4q-41 -14 -64 -49q-22 -36 -28 -82t3 -92q8 -46 29 -80q23 -35 57 -47q35 -12 69 -4q35 9 59 36q25 27 29 70l77 -21q-4 -48 -28 -86
q-25 -37 -65 -58q-41 -22 -92 -23q-52 -2 -110 22q-43 22 -71 68q-28 47 -38 107t0 123q9 62 41 116z" />
    <glyph glyph-name="uni339E" unicode="&#x339e;" 
d="M46 166v747h82v-431l204 192h111l-200 -188l209 -320h-103l-170 260l-51 -51v-209h-82zM588 618q23 32 47 47q24 16 48 15q25 0 47 -16q23 -16 42 -46q21 37 54 52q33 16 66 10q34 -7 59 -36q24 -29 30 -81v-397h-85v401q-4 27 -19 38t-33 3q-19 -7 -36 -36
q-16 -29 -23 -82v-324h-86v401q1 21 -12 29t-33 0t-39 -36q-18 -27 -27 -78v-316h-81v508h81v-56z" />
    <glyph glyph-name="uni339F" unicode="&#x339f;" 
d="M887 998q35 1 60 -9q24 -11 37 -28q12 -18 12 -40q-1 -22 -15 -43l-90 -76h98v-52h-183v52l128 102q6 19 -3 29t-25 11t-31 -8t-22 -28l-47 17q-9 52 81 73zM93 614q24 33 47 50q24 16 47 16q22 0 45 -16t45 -46q23 37 55 52q31 16 63 10q31 -7 52 -36q22 -29 26 -81
v-397h-81v401q-4 29 -18 41q-15 12 -34 4q-18 -8 -34 -38t-21 -84v-324h-81v401q-2 26 -16 35q-14 10 -33 1q-19 -10 -36 -39q-17 -30 -26 -82v-316h-81v508h81v-60zM610 618q21 32 42 47q22 16 44 15q22 0 44 -16t45 -46q23 37 54 52q32 16 63 10q31 -7 53 -36t26 -81v-397
h-81v401q-4 29 -19 41q-14 12 -33 4t-34 -38q-16 -30 -21 -84v-324h-81v401q-2 26 -15 35q-13 10 -31 1q-18 -10 -33 -39q-16 -30 -23 -82v-316h-81v508h81v-56z" />
    <glyph glyph-name="uni33A0" unicode="&#x33a0;" 
d="M588 618q23 32 47 47q24 16 48 15q25 0 47 -16q23 -16 42 -46q21 37 54 52q33 16 66 10q34 -7 59 -36q24 -29 30 -81v-397h-85v401q-4 27 -19 38t-33 3q-19 -7 -36 -36q-16 -29 -23 -82v-324h-86v401q1 21 -12 29t-33 0t-39 -36q-18 -27 -27 -78v-316h-81v508h81v-56z
M85 597q30 45 83 67q53 23 111 20q58 -4 105 -36q46 -33 64 -98l-73 -34q-11 26 -26 44t-34 28q-19 11 -43 13q-25 2 -55 -4q-41 -14 -64 -49q-22 -36 -28 -82t3 -92q8 -46 29 -80q23 -35 57 -47q35 -12 69 -4q35 9 59 36q25 27 29 70l77 -21q-4 -48 -32 -86
q-29 -37 -72 -58q-44 -22 -94 -23q-50 -2 -97 22q-43 22 -71 68q-28 47 -38 107t0 123q9 62 41 116zM887 998q35 1 60 -9q24 -9 37 -27q12 -18 12 -39q-1 -22 -15 -45l-90 -76h98v-52h-183v52l128 102q6 19 -3 29t-25 11t-31 -8t-22 -28l-47 17q-9 52 81 73z" />
    <glyph glyph-name="uni33A1" unicode="&#x33a1;" 
d="M234 618q37 31 76 47q39 17 77 17q39 0 73 -18q35 -19 64 -59q51 50 106 68q56 18 105 7q49 -12 82 -52q32 -41 36 -108v-354h-90v354q-7 43 -33 67q-27 24 -62 25q-36 2 -71 -22q-35 -23 -60 -74v-350h-89v341q-9 54 -36 79q-26 24 -60 21q-34 -2 -66 -29t-52 -75v-337
h-89v508h89v-56zM853 998q35 1 60 -9q24 -9 37 -27q12 -18 12 -39q-1 -22 -15 -45l-90 -76h98v-52h-183v52l128 102q6 19 -3 29t-25 11t-31 -8t-22 -28l-47 17q-9 52 81 73z" />
    <glyph glyph-name="uni33A2" unicode="&#x33a2;" 
d="M51 166v747h81v-414l183 175h115l-196 -188l205 -320h-102l-167 260l-38 -38v-222h-81zM588 618q23 32 47 47q24 16 48 15q25 0 47 -16q23 -16 42 -46q21 37 54 52q33 16 66 10q34 -7 59 -36q24 -29 30 -81v-397h-85v401q-4 27 -19 38t-33 3q-19 -7 -36 -36
q-16 -29 -23 -82v-324h-86v401q1 21 -12 29t-33 0t-39 -36q-18 -27 -27 -78v-316h-81v508h81v-56zM887 998q35 1 60 -9q24 -9 37 -27q12 -18 12 -39q-1 -22 -15 -45l-90 -76h98v-52h-183v52l128 102q6 19 -3 29t-25 11t-31 -8t-22 -28l-47 17q-9 52 81 73z" />
    <glyph glyph-name="uni33CA" unicode="&#x33ca;" 
d="M76 166v747h86v-346q44 70 99 99q54 28 105 17q50 -10 84 -57q33 -47 36 -127v-333h-85v350q-4 50 -31 76q-27 25 -65 21q-38 -5 -77 -45q-38 -40 -66 -121v-281h-86zM738 682q46 2 81 -6t60 -28q24 -20 38 -54q14 -33 17 -83v-285q4 -26 26 -69h-82q-25 26 -29 77
q-38 -35 -81 -54t-84 -19q-42 1 -76 24q-34 22 -54 70q-12 45 -4 87t41 75q33 32 96 50t162 15q2 59 -21 89q-22 30 -56 34q-33 5 -64 -13q-32 -18 -47 -55l-81 34q34 94 158 111zM844 409q-70 6 -118 -9t-73 -42q-24 -26 -24 -56q1 -30 28 -55q35 -12 71 -2q35 10 64 35
q28 25 43 59t9 70z" />
    <glyph glyph-name="uni338D" unicode="&#x338d;" 
d="M729 682q90 9 149 -64v56h82v-525q-5 -27 -21 -50q-17 -23 -41 -40q-24 -18 -53 -28q-29 -11 -60 -14q-37 -2 -71 4q-33 5 -62 17q-29 13 -53 32q-23 19 -41 45l64 34q46 -43 91 -57q46 -14 84 -1t60 49t21 94q-13 -13 -28 -25q-15 -13 -34 -23q-18 -10 -40 -14
q-22 -5 -47 -2q-91 19 -137 94q-45 75 -45 167t45 164q46 73 137 87zM68 17v657h85v-312q7 -64 41 -94q35 -30 78 -25q43 4 74 43q31 38 29 110v278h81v-414q4 -17 30 -17v-86h-38q-16 3 -27 8q-11 4 -18 10t-12 14q-4 9 -7 20q-23 -26 -55 -37q-32 -12 -65 -10
q-34 2 -64 17q-29 15 -47 42v-204h-85zM750 618q-59 -6 -88 -64q-29 -59 -28 -134t33 -130q32 -56 96 -56q61 18 90 75t27 125q-2 69 -35 121q-32 53 -95 63z" />
    <glyph glyph-name="uni338E" unicode="&#x338e;" 
d="M123 614q24 33 47 50q23 16 45 16t41 -16q20 -16 38 -46q23 37 55 52q31 16 63 10q31 -7 52 -36q22 -29 26 -81v-397h-85v401q-2 27 -16 39q-14 11 -31 4q-18 -7 -33 -37q-14 -29 -18 -83v-324h-86v401q-2 23 -15 32q-12 9 -29 1q-17 -9 -32 -37q-15 -29 -22 -81v-316
h-85v508h85v-60zM738 682q89 9 149 -64v56h81v-525q-5 -27 -21 -50q-17 -23 -41 -40q-24 -18 -53 -28q-29 -11 -60 -14q-35 -3 -68 2t-63 18q-29 13 -53 32q-24 20 -42 46l64 34q45 -43 91 -57q45 -14 83 -1t60 49q23 36 22 94q-13 -13 -28 -26t-34 -24q-18 -10 -40 -14
q-22 -5 -47 0q-91 19 -137 94t-46 167t46 164q46 73 137 87zM759 618q-59 -6 -89 -64q-29 -59 -28 -134t34 -130q32 -56 96 -56q61 18 90 75t27 125q-3 69 -35 121q-33 53 -95 63z" />
    <glyph glyph-name="uni338F" unicode="&#x338f;" 
d="M68 166v747h85v-436l205 197h111l-201 -192l231 -316h-111l-175 256h-4l-56 -51v-205h-85zM729 682q90 9 149 -64v56h82v-491q-5 -40 -21 -70q-17 -30 -41 -50t-53 -32q-29 -11 -60 -14q-34 -3 -67 2t-63 18t-54 32q-25 20 -43 46l64 34q46 -43 91 -57q46 -14 84 -1
t60 49t21 94q-13 -13 -28 -25q-15 -13 -34 -23q-18 -10 -40 -14q-22 -5 -47 -2q-91 19 -137 94q-45 75 -45 167t45 164q46 73 137 87zM750 618q-59 -6 -88 -64q-29 -59 -28 -134t33 -130q32 -56 96 -56q61 18 90 75t27 125q-2 69 -35 121q-32 53 -95 63z" />
    <glyph glyph-name="uni33CF" unicode="&#x33cf;" 
d="M119 166v747h81v-436l201 197h106l-192 -188l218 -320h-107l-175 260l-51 -51v-209h-81zM699 682v124h81v-124h124v-85h-124v-295q0 -47 22 -51h89v-85h-98q-32 0 -51 6q-18 7 -28 23q-9 16 -12 43q-3 28 -3 69v290h-115v85h115z" />
    <glyph glyph-name="uni3388" unicode="&#x3388;" 
d="M870 166v747h77v-747h-77zM238 682q31 3 57 -2q26 -6 46 -20q21 -15 35 -38t20 -55l-68 -17q-20 43 -56 52q-36 10 -70 -16q-35 -25 -52 -86q-17 -62 -1 -159q14 -53 39 -78q26 -26 55 -26q30 -1 53 21q23 23 32 66l68 -17q-14 -67 -47 -105q-34 -38 -77 -46
q-44 -8 -89 14t-81 73q-30 62 -36 133q-5 71 13 136t58 112q40 46 101 58zM610 682q37 2 63 -5q27 -7 45 -22q18 -16 28 -41t13 -60v-358l9 -30h-77q-5 25 -13 34q-13 -23 -37 -33q-24 -11 -52 -10q-28 2 -55 16q-26 15 -44 44q-23 41 -24 88q-2 47 20 89q22 43 69 70
q48 28 123 30q9 51 -5 79q-15 27 -40 33t-50 -8q-25 -13 -37 -44l-69 17q0 18 9 36q8 18 25 34t42 27t57 14zM682 413q-47 4 -79 -16q-33 -19 -48 -50q-15 -32 -11 -62q5 -30 32 -47q26 -8 45 -1q20 8 34 30q13 22 20 58q7 37 7 88z" />
    <glyph glyph-name="uni3389" unicode="&#x3389;" 
d="M8 166v747h77v-427l145 188h77l-141 -188l145 -320h-77l-115 252l-34 -39v-213h-77zM942 166v747h73v-747h-73zM439 682q25 2 47 -3q21 -5 38 -18q17 -12 31 -32t25 -49l-60 -22q-19 37 -49 46t-58 -15q-29 -25 -44 -87q-15 -61 -3 -165q10 -51 32 -76t46 -24q25 0 45 23
t27 68l64 -21q-10 -61 -39 -97q-28 -35 -66 -46q-37 -10 -75 5t-68 57q-35 54 -46 127q-10 74 4 146q13 72 51 123q37 50 98 60zM746 682q23 2 46 -2q22 -3 43 -15q20 -12 35 -35q14 -22 21 -59v-158q0 -213 9 -247h-77q-9 21 -9 38q-21 -27 -50 -39t-59 -6q-30 5 -55 30
q-24 25 -36 71q-10 46 -4 88q6 41 30 74q24 32 68 51t111 21q5 53 -11 79q-17 27 -42 31q-26 5 -49 -9q-23 -13 -31 -41l-64 21q2 21 11 39q10 18 26 33q16 14 38 23t49 12zM819 413q-45 5 -77 -16q-31 -21 -46 -54q-14 -34 -9 -64q5 -31 34 -45q27 -5 46 7q18 11 30 36
t17 59q5 35 5 77z" />
    <glyph glyph-name="uni33C8" unicode="&#x33c8;" 
d="M379 622v291h86v-747h-86v55q-15 -16 -38 -30t-52 -22t-61 -8q-31 1 -62 13q-42 23 -71 64t-44 92q-16 50 -16 103t16 100q23 64 61 100q37 35 84 45q46 10 93 -4q48 -15 90 -52zM554 166v747h214q37 -3 65 -13q29 -10 50 -25q21 -16 37 -38q16 -21 27 -48q12 -49 8 -88
q-5 -38 -22 -67q-17 -28 -42 -49q-26 -21 -55 -35q30 -6 54 -19q24 -12 42 -31t29 -46t16 -62q3 -47 -8 -85q-12 -39 -38 -68t-66 -48q-41 -19 -97 -25h-214zM243 601q-61 -6 -92 -58q-31 -53 -31 -122q-1 -68 30 -122q30 -54 93 -61q69 9 104 63q36 54 37 122t-34 120
t-107 58zM746 507h-111v-256h111q69 3 104 41t36 87q0 49 -35 87t-105 41zM746 831h-111v-243h111q64 4 97 40q32 35 33 82q0 46 -32 82t-98 39z" />
    <glyph glyph-name="uni33A7" unicode="&#x33a7;" 
d="M128 925q15 26 36 40t45 15q24 2 46 -11q23 -12 39 -39q25 30 54 42q30 11 58 4q27 -8 45 -33q17 -26 18 -69v-350h-73v354q-3 23 -14 32q-11 10 -26 6q-14 -3 -27 -20q-14 -17 -22 -47v-325h-73v333q-2 35 -17 48q-14 13 -33 7t-35 -29t-21 -60v-299h-69v453h69v-52z
M285 63l529 918l35 -22l-534 -917zM776 516q26 0 50 -6q25 -6 47 -17q22 -12 39 -31q16 -19 26 -44l-68 -35q-19 37 -53 51q-33 13 -66 8q-34 -5 -51 -25q-18 -20 -5 -51q9 -14 41 -28q33 -14 74 -28t77 -28q36 -15 51 -31q19 -16 26 -42q6 -25 2 -52q-5 -28 -21 -52
q-15 -24 -41 -37q-45 -22 -89 -26q-43 -3 -81 9q-38 13 -66 39t-41 63l72 30q17 -51 73 -68q33 -3 58 2q25 6 40 18t19 29q3 17 -6 36q-10 12 -36 23q-25 10 -60 22q-34 11 -72 28q-37 17 -71 42q-27 26 -30 59q-3 34 16 65q18 32 56 53q37 21 90 24z" />
    <glyph glyph-name="uni33A8" unicode="&#x33a8;" 
d="M891 806q28 5 50 -3t35 -24t14 -36t-13 -40l-69 -55l73 -4v-43h-154v43l115 85q1 18 -8 26q-10 9 -24 9t-26 -9q-13 -8 -18 -26l-43 13q0 51 68 64zM128 938q15 21 36 33q21 11 45 11t46 -12q23 -13 39 -40q25 30 54 42q30 11 58 4q27 -8 45 -33q17 -26 18 -69v-350h-73
v354q-3 23 -14 32t-26 4q-14 -6 -27 -27q-14 -21 -22 -60v-303h-73v333q-2 35 -17 48q-14 13 -33 8q-19 -6 -35 -28q-16 -23 -21 -58v-303h-69v453h69v-39zM285 63l529 918l35 -22l-534 -917zM776 516q26 0 50 -6q25 -6 47 -17q22 -12 39 -31q16 -19 26 -44l-68 -35
q-19 37 -53 51q-33 13 -66 8q-34 -5 -51 -25q-18 -20 -5 -51q9 -13 39 -26t70 -27q39 -14 76 -29q36 -15 58 -33q21 -16 27 -41q7 -25 1 -52t-22 -51t-40 -39q-37 -22 -80 -26q-42 -3 -82 9q-41 13 -71 39q-31 26 -44 63l72 30q17 -51 73 -68q33 -3 58 2q25 6 40 18t19 29
q3 17 -6 36q-1 13 -31 25t-73 25q-42 13 -80 29t-55 36q-27 26 -30 59q-3 34 16 65q18 32 56 53q37 21 90 24z" />
    <glyph glyph-name="uni33B0" unicode="&#x33b0;" 
d="M162 618q32 32 66 48q35 15 69 16t67 -11t62 -36q29 -30 48 -67q20 -37 28 -80t4 -93q-5 -49 -24 -105q-25 -58 -63 -89t-83 -37t-90 12t-84 58v-217h-86v657h86v-56zM733 682q37 2 69 -2t58 -16q26 -11 46 -32q19 -20 32 -52l-72 -43q-26 56 -86 64q-37 3 -65 -4
q-28 -8 -43 -22t-14 -32q2 -18 24 -36q25 -14 59 -26q34 -13 71 -26q37 -14 71 -31t59 -41q18 -21 22 -51q4 -29 -6 -60q-9 -31 -32 -56t-60 -37q-45 -13 -90 -12q-45 0 -84 14t-68 40t-44 64l77 30q38 -68 115 -68q40 -1 67 10q26 10 37 28t2 39q-8 20 -38 38
q-32 13 -64 25q-31 13 -60 25q-29 11 -52 21q-23 11 -37 19q-39 26 -50 62q-12 35 2 71q14 35 53 62q39 26 101 35zM298 605q-69 -6 -103 -61t-34 -125q0 -71 34 -125q34 -53 103 -56q66 3 98 56q33 54 33 125q0 70 -33 125q-32 55 -98 61z" />
    <glyph glyph-name="uni33B1" unicode="&#x33b1;" 
d="M328 682q35 0 66 -11q31 -12 55 -38q23 -27 37 -71q13 -45 13 -110v-286h-86v320q-5 62 -33 90q-28 29 -67 24q-40 -5 -78 -42q-39 -37 -65 -106v-286h-85v503h85v-85q68 85 158 98zM721 678q37 2 68 -2q32 -4 58 -16q26 -11 46 -32q19 -21 32 -53l-72 -42q-26 55 -85 64
q-37 3 -66 -5q-28 -7 -43 -21q-15 -15 -13 -32q1 -18 23 -36q23 -14 58 -26q35 -13 74 -26q39 -14 73 -31t56 -41q19 -24 24 -54t-5 -59q-10 -30 -34 -54t-62 -38q-45 -13 -90 -12t-84 15q-39 13 -68 39q-29 27 -44 65l77 30q38 -68 115 -68q40 -1 67 9q27 11 38 29
q10 18 2 39q-9 20 -39 38q-32 13 -64 25q-31 13 -60 24q-29 12 -52 22t-37 18q-38 27 -50 62q-11 36 3 72q14 35 52 62q39 26 102 35z" />
    <glyph glyph-name="uni33B2" unicode="&#x33b2;" 
d="M85 17v657h85v-329q8 -53 39 -78t70 -24q38 1 68 25q31 24 37 69v337h85v-414q4 -22 30 -17v-86q-24 0 -41 3t-28 10q-12 6 -20 16t-14 23q-22 -26 -51 -38t-60 -11q-31 0 -61 10q-30 11 -54 30v-183h-85zM721 678q37 2 68 -2q32 -4 58 -16q26 -11 46 -32q19 -21 32 -53
l-72 -42q-26 55 -85 64q-37 3 -66 -5q-28 -7 -43 -21q-15 -15 -13 -32q1 -18 23 -36q17 -13 51 -25t75 -26q40 -14 77 -31q36 -18 58 -42q21 -24 26 -55q4 -30 -6 -60t-34 -54q-25 -24 -63 -36q-45 -13 -90 -12t-84 15q-39 13 -68 39q-29 27 -44 65l77 30q38 -68 115 -68
q40 -1 67 9q27 11 38 29q10 18 2 39q-9 20 -39 38q-32 13 -64 25q-31 13 -60 24q-29 12 -52 22t-37 18q-38 27 -50 62q-11 36 3 72q14 35 52 62q39 26 102 35z" />
    <glyph glyph-name="uni33B3" unicode="&#x33b3;" 
d="M729 678q37 2 69 -2q31 -4 58 -16q26 -11 45 -32q20 -21 33 -53l-73 -42q-25 55 -85 64q-37 3 -65 -5q-28 -7 -43 -21q-15 -15 -14 -32q2 -18 24 -36q14 -13 48 -25q35 -13 77 -27q42 -15 79 -32q37 -18 56 -40q19 -24 24 -55q5 -30 -5 -60q-9 -30 -33 -54t-63 -36
q-45 -13 -89 -12q-45 1 -84 15q-39 13 -68 39q-29 27 -44 65l76 30q39 -68 116 -68q40 -1 67 9q26 11 37 29t2 39q-8 20 -38 38q-32 13 -64 25q-32 13 -61 24q-28 12 -51 22t-38 18q-38 27 -50 62q-11 36 3 72q14 35 53 62q39 26 101 35zM140 610q20 35 40 52q21 17 43 17
q21 1 43 -15t45 -46q23 37 55 52q31 16 63 10q31 -7 52 -36q22 -29 26 -81v-397h-85v401q-2 27 -16 39q-14 11 -31 4q-18 -7 -33 -37q-14 -29 -18 -83v-324h-86v401q-2 23 -15 32q-12 10 -29 5t-32 -27q-15 -21 -22 -61v-350h-85v508h85v-64z" />
    <glyph glyph-name="uni33B4" unicode="&#x33b4;" 
d="M674 166l-188 747h85l150 -602l140 602h81l-174 -747h-94zM157 618q32 32 67 48q34 15 69 16q34 1 67 -11t62 -36q29 -30 48 -67q20 -37 28 -80t3 -93q-5 -49 -24 -105q-25 -58 -63 -89q-37 -31 -82 -37t-91 12q-45 18 -84 58v-217h-85v657h85v-56zM294 605
q-69 -6 -103 -61q-35 -55 -35 -125q0 -71 35 -125q34 -53 103 -56q66 3 98 56q33 54 33 125q0 70 -33 125q-32 55 -98 61z" />
    <glyph glyph-name="uni33B5" unicode="&#x33b5;" 
d="M320 682q35 0 66 -11q30 -12 54 -38q23 -27 37 -71q13 -45 13 -110v-286h-85v320q-6 62 -34 90q-28 29 -67 24t-77 -42q-39 -37 -65 -106v-286h-86v503h86v-85q68 85 158 98zM674 166l-188 747h85l150 -602l140 602h81l-174 -747h-94z" />
    <glyph glyph-name="uni33B6" unicode="&#x33b6;" 
d="M76 17v657h86v-329q8 -53 39 -78t69 -24t69 25q30 24 36 69v337h85v-414q5 -22 30 -17v-86q-24 0 -41 3q-16 3 -28 10q-11 6 -19 16t-14 23q-23 -26 -52 -39q-28 -14 -59 -14q-32 -1 -61 13q-30 13 -54 40v-192h-86zM674 166l-188 747h85l150 -602l140 602h81l-174 -747
h-94z" />
    <glyph glyph-name="uni33B7" unicode="&#x33b7;" 
d="M132 605q24 37 47 55t45 19q22 0 43 -15q21 -16 40 -46q26 37 59 52q34 16 66 10q32 -7 54 -36t26 -81v-397h-82v401q-4 27 -18 39q-15 11 -34 4q-18 -7 -35 -37q-16 -29 -23 -83v-324h-82v401q0 23 -12 32q-12 10 -30 4q-17 -6 -35 -30q-17 -23 -29 -66v-341h-81v508h81
v-69zM699 166l-187 747h85l149 -602l141 602h81l-175 -747h-94z" />
    <glyph glyph-name="uni33B8" unicode="&#x33b8;" 
d="M72 166v747h85v-431l201 192h111l-201 -192l222 -316h-111l-170 260l-52 -47v-213h-85zM674 166l-188 747h85l150 -602l140 602h81l-174 -747h-94z" />
    <glyph glyph-name="uni33B9" unicode="&#x33b9;" 
d="M29 166v747h128l99 -504l89 504h132v-747h-85v606h-8l-94 -606h-69l-98 606h-8v-606h-86zM716 166l-187 747h85l149 -602l141 602h81l-175 -747h-94z" />
    <glyph glyph-name="uni3380" unicode="&#x3380;" 
d="M524 166l184 747h81l4 -5l184 -742h-86l-55 217h-171l-55 -217h-86zM750 725l-68 -260h128zM140 618q32 32 67 48q34 15 69 16q34 1 67 -11t62 -36q27 -29 46 -65q19 -37 28 -80q9 -44 4 -94q-4 -50 -23 -106q-25 -58 -63 -89q-37 -32 -82 -39q-45 -8 -91 5
q-45 14 -84 46v-196h-85v657h85v-56zM277 605q-69 -6 -103 -61q-35 -55 -35 -125q0 -71 35 -125q34 -53 103 -56q66 3 98 56q33 54 33 125q0 70 -33 125q-32 55 -98 61z" />
    <glyph glyph-name="uni3381" unicode="&#x3381;" 
d="M290 682q35 0 66 -11q31 -12 54 -38q24 -27 37 -71q13 -45 13 -110v-286h-85v320q-6 62 -34 90q-28 29 -67 24t-77 -42q-39 -37 -65 -106v-286h-86v503h86v-85q68 85 158 98zM524 166l184 747h81l4 -5l184 -742h-86l-55 217h-171l-55 -217h-86zM750 725l-68 -260h128z
" />
    <glyph glyph-name="uni3382" unicode="&#x3382;" 
d="M34 17v657h85v-329q8 -53 39 -78t69 -24q39 1 69 25t36 69v337h86v-414q4 -22 30 -17v-86q-24 0 -41 3t-28 10q-12 6 -20 16t-14 23q-23 -26 -52 -38q-28 -12 -59 -11q-32 0 -61 10q-30 11 -54 30v-183h-85zM524 166l184 747h81l4 -5l184 -742h-86l-55 217h-171l-55 -217
h-86zM750 725l-68 -260h128z" />
    <glyph glyph-name="uni3383" unicode="&#x3383;" 
d="M729 913h81l167 -747h-86l-51 217h-171l-59 -217h-86zM823 465l-55 260l-77 -260h132zM110 631q20 27 40 40q21 12 43 11q21 -2 43 -18t45 -46q23 37 55 52q31 16 63 10q31 -7 52 -36q22 -29 26 -81v-397h-85v401q-2 27 -16 39q-14 11 -31 4q-18 -7 -33 -37
q-14 -29 -18 -83v-324h-85v401q-2 23 -15 32t-30 1q-17 -9 -32 -37q-15 -29 -22 -81v-316h-85v508h85v-43z" />
    <glyph glyph-name="uni3384" unicode="&#x3384;" 
d="M46 166v747h77v-436l214 197h102l-201 -188l218 -320h-94l-183 260l-56 -51v-209h-77zM529 166l183 747h81l4 -5l184 -742h-85l-56 217h-171l-55 -217h-85zM755 725l-69 -260h128z" />
    <glyph glyph-name="uni33BA" unicode="&#x33ba;" 
d="M593 166l-94 747h77l46 -466h9l64 466h68l64 -466h9l47 466h77l-90 -747h-68l-73 478l-68 -478h-68zM140 618q32 32 67 48q34 15 69 16q34 1 67 -11t62 -36q29 -30 48 -67q20 -37 28 -80t3 -93q-5 -49 -24 -105q-25 -58 -63 -89q-37 -31 -82 -37t-91 12q-45 18 -84 58
v-217h-85v657h85v-56zM277 605q-69 -6 -103 -61q-35 -55 -35 -125q0 -71 35 -125q34 -53 103 -56q66 3 98 56q33 54 33 125q0 70 -33 125q-32 55 -98 61z" />
    <glyph glyph-name="uni33BB" unicode="&#x33bb;" 
d="M294 682q35 0 66 -11q31 -12 55 -38q23 -27 37 -71q13 -45 13 -110v-286h-86v320q-6 62 -34 90q-28 29 -67 24t-77 -42q-39 -37 -65 -106v-286h-85v503h85v-85q68 85 158 98zM593 166l-94 747h77l46 -466h9l64 466h68l64 -466h9l47 466h77l-90 -747h-68l-73 478l-68 -478
h-68z" />
    <glyph glyph-name="uni33BC" unicode="&#x33bc;" 
d="M59 17v657h86v-329q8 -53 39 -78t69 -24t69 25q30 24 36 69v337h85v-414q5 -22 30 -17v-86q-24 0 -41 3q-16 3 -28 10q-11 6 -19 16t-14 23q-23 -26 -52 -38q-28 -12 -59 -11q-32 0 -61 10q-30 11 -54 30v-183h-86zM593 166l-94 747h77l46 -466h9l64 466h68l64 -466h9
l47 466h77l-90 -747h-68l-73 478l-68 -478h-68z" />
    <glyph glyph-name="uni33BD" unicode="&#x33bd;" 
d="M119 631q24 27 47 40q23 12 45 11q22 -2 43 -18t40 -46q26 37 59 52q34 16 66 10q32 -7 54 -36t26 -81v-397h-81v401q-4 27 -19 39q-15 11 -33 4q-19 -7 -36 -37q-16 -29 -23 -83v-324h-81v401q0 23 -12 32q-13 9 -30 3q-18 -7 -36 -32q-17 -25 -29 -71v-333h-81v508h81
v-43zM610 166l-94 747h77l47 -466h8l64 466h68l64 -466h9l47 466h77l-90 -747h-68l-73 478l-68 -478h-68z" />
    <glyph glyph-name="uni33BE" unicode="&#x33be;" 
d="M59 166v747h81v-436l205 197h107l-201 -192l222 -316h-107l-174 256l-52 -51v-205h-81zM593 166l-94 747h77l46 -466h9l64 466h68l64 -466h9l47 466h77l-90 -747h-68l-73 478l-68 -478h-68z" />
    <glyph glyph-name="uni33BF" unicode="&#x33bf;" 
d="M21 166v747h132l90 -504l89 504h133v-747h-86v601h-8l-94 -601h-68l-94 606h-9v-606h-85zM618 166l-94 747h77l47 -466h9l64 466h68l64 -466h8l47 466h77l-89 -747h-69l-72 478l-69 -478h-68z" />
    <glyph glyph-name="uni3390" unicode="&#x3390;" 
d="M59 166v747h81v-329h299v329h81v-747h-81v337h-299v-337h-81zM584 588v86h388v-86l-268 -337h268v-85h-388v85l273 337h-273z" />
    <glyph glyph-name="uni3391" unicode="&#x3391;" 
d="M4 166v747h77v-423l175 184h89l-171 -205l197 -303h-86l-166 252l-38 -43v-209h-77zM396 166v747h77v-325h162v325h73v-747h-73v350h-162v-350h-77zM742 597v77h269v-86l-184 -345h184v-77h-269v89l179 342h-179z" />
    <glyph glyph-name="uni3392" unicode="&#x3392;" 
d="M0 166v747h123l56 -444l51 444h124v-747h-77v550h-9l-51 -550h-77l-59 567h-9v-567h-72zM396 166v747h77v-325h162v325h73v-747h-73v350h-162v-350h-77zM742 597v77h269v-86l-184 -345h184v-77h-269v89l179 342h-179z" />
    <glyph glyph-name="uni3393" unicode="&#x3393;" 
d="M174 921q37 3 65 -2q28 -6 49 -22q22 -16 37 -43q16 -27 29 -65l-56 -30q-13 34 -34 55q-20 21 -44 28t-47 -2t-41 -34q-25 -39 -38 -92t-16 -115t1 -128t14 -130q14 -64 45 -89q30 -25 63 -7q33 17 56 79q22 61 20 170h-81v77h158v-405h-77v51q-18 -23 -42 -37
q-24 -15 -51 -19q-28 -5 -54 2q-27 8 -49 28q-22 27 -38 64q-15 37 -24 87q-10 50 -13 117q-4 67 -2 155q5 66 17 119q11 53 32 92q20 40 50 64t71 32zM405 166v747h77v-325h153v325h73v-747h-73v350h-153v-350h-77zM742 597v77h269v-86l-184 -345h184v-77h-269v89l179 342
h-179z" />
    <glyph glyph-name="uni3394" unicode="&#x3394;" 
d="M17 836v77h337v-77h-128v-670h-77v670h-132zM396 166v747h77v-325h162v325h73v-747h-73v350h-162v-350h-77zM742 597v77h269v-86l-184 -345h184v-77h-269v89l179 342h-179z" />
    <glyph glyph-name="Omega" unicode="&#x2126;" 
d="M477 930q76 4 137 -13q62 -18 107 -54t72 -88q27 -53 34 -118q4 -70 -4 -126t-29 -100t-57 -80t-89 -66v-34h132v-85h-213v162q51 29 85 59q33 30 53 62q20 33 29 68q9 36 12 76q0 59 -14 107q-15 48 -47 82q-31 34 -83 50q-51 17 -125 12q-90 -9 -144 -68
q-53 -59 -62 -143q-9 -85 36 -167q44 -83 149 -138v-162h-218v85h137v34q-45 24 -79 56q-34 33 -58 73q-23 39 -36 85q-13 47 -15 98q-2 63 15 120q16 58 52 104t91 75q56 29 132 34z" />
    <glyph glyph-name="uni33C0" unicode="&#x33c0;" 
d="M712 921q69 4 118 -16q49 -21 81 -62q31 -40 48 -95q17 -54 22 -117q2 -46 -3 -91q-4 -44 -18 -87t-40 -85q-26 -41 -67 -83v-42h98v-77h-175v158q27 24 49 50t38 56q15 31 26 66q10 36 15 79q3 63 -7 114t-33 87q-23 35 -59 53t-84 15q-34 -8 -61 -29t-46 -52
q-19 -30 -30 -67q-11 -38 -13 -78q0 -32 6 -70t21 -77q14 -39 38 -77t59 -70v-158h-171v77h94v42q-24 20 -45 51q-21 30 -37 67q-16 36 -26 73q-9 37 -11 70q-6 71 3 134q10 63 36 114q27 51 70 84t104 43zM42 166v747h81v-431l201 192h102l-192 -184l209 -324h-106
l-163 260l-51 -47v-213h-81z" />
    <glyph glyph-name="uni33C1" unicode="&#x33c1;" 
d="M12 166v747h133l98 -504l85 504h132v-747h-81v627h-8l-98 -627h-69l-98 610h-8v-610h-86zM725 921q68 4 117 -16q49 -21 81 -62q32 -40 49 -95q17 -54 22 -117q2 -46 -3 -91q-4 -44 -18 -87t-40 -85q-26 -41 -67 -83v-42h98v-77h-175v158q27 24 49 50q21 26 37 56
q16 31 27 66q10 36 15 79q3 63 -7 114q-11 51 -34 87q-23 35 -59 53t-84 15q-33 -8 -60 -29t-46 -52q-20 -30 -31 -67q-10 -38 -12 -78q0 -32 6 -70t21 -77q14 -39 38 -77t59 -70v-158h-171v77h94v42q-24 20 -45 51q-21 30 -37 67q-16 36 -26 73q-9 37 -11 70q-7 71 3 134
t36 114t70 84q43 33 104 43z" />
    <glyph glyph-name="uni338A" unicode="&#x338a;" 
d="M533 166v747h439v-82h-354v-238h324v-82h-324v-345h-85zM140 618q32 32 67 47q34 16 68 17t64 -12q31 -13 57 -39q26 -29 44 -64q17 -35 25 -76q8 -42 4 -92t-21 -109q-20 -54 -57 -86q-36 -31 -81 -39t-90 7q-44 15 -80 54v-209h-85v657h85v-56zM268 605q-66 -6 -98 -61
q-33 -55 -33 -125q0 -71 33 -125q32 -53 98 -56q63 3 94 56q31 54 31 125q0 70 -31 125t-94 61z" />
    <glyph glyph-name="uni338B" unicode="&#x338b;" 
d="M550 166v747h422v-82h-337v-238h303v-82h-303v-345h-85zM298 682q35 0 66 -11q31 -12 55 -38q23 -27 37 -71q13 -45 13 -110v-286h-85v320q-6 62 -34 90q-28 29 -67 24t-78 -42q-38 -37 -65 -106v-286h-85v503h85v-85q69 85 158 98z" />
    <glyph glyph-name="uni338C" unicode="&#x338c;" 
d="M537 166v747h431v-82h-346v-238h303v-82h-303v-345h-85zM59 17v657h86v-329q8 -53 39 -78t69 -24t69 25q30 24 36 69v337h85v-414q5 -22 30 -17v-86q-24 0 -41 3q-16 3 -28 10q-11 6 -19 16t-14 23q-23 -26 -52 -38q-28 -12 -59 -11q-32 0 -61 10q-30 11 -54 30v-183h-86
z" />
    <glyph glyph-name="uni33D6" unicode="&#x33d6;" 
d="M938 166v747h73v-747h-73zM98 635q19 24 42 36q22 11 44 10q22 -2 40 -17q17 -16 27 -46q29 40 61 55t60 4q29 -11 47 -49t20 -104v-358h-85v388q-2 34 -14 47q-11 13 -26 5t-28 -39t-18 -85v-316h-81v345q0 54 -11 73q-10 20 -26 11q-15 -8 -29 -36q-15 -28 -23 -69
v-324h-86v508h86v-39zM682 157q-96 4 -143 82q-48 78 -47 181q0 102 48 180q47 78 142 82q101 -4 151 -82q51 -78 51 -180q0 -103 -51 -181q-50 -78 -151 -82zM686 614q-56 -3 -83 -61q-27 -57 -27 -133q1 -76 30 -133q29 -58 85 -61q51 4 76 62q26 58 25 134q0 75 -27 132
q-26 57 -79 60z" />
    <glyph glyph-name="uni33C5" unicode="&#x33c5;" 
d="M106 593q30 45 83 67q53 23 111 20q58 -4 105 -36q46 -33 64 -98l-73 -35q-11 26 -26 44q-14 19 -33 29q-20 11 -44 13t-55 -4q-41 -14 -63 -50q-23 -35 -29 -81t3 -92t30 -80q23 -35 57 -47t69 -4q34 9 59 36q24 27 28 70l77 -21q-4 -48 -29 -86q-26 -37 -67 -58
q-41 -22 -93 -23q-51 -2 -106 22q-43 23 -72 72q-28 48 -38 109q-11 61 -1 123q10 61 43 110zM878 622v291h86v-747h-86v55q-15 -16 -38 -30q-23 -15 -52 -23q-29 -9 -61 -9q-31 1 -62 15q-40 18 -68 53t-42 83q-15 48 -16 105q-2 57 11 118q23 64 61 100q38 35 84 45t94 -4
q47 -15 89 -52zM742 601q-61 -6 -92 -58q-31 -53 -31 -122q0 -68 30 -122q31 -54 93 -61q69 9 104 63q36 54 37 122t-34 120t-107 58z" />
    <glyph glyph-name="uni33AD" unicode="&#x33ad;" 
d="M917 631v282h77v-747h-77v43q-19 -24 -46 -37q-26 -13 -55 -14q-28 -1 -56 9q-27 11 -48 33q-22 31 -35 76q-13 44 -16 97t3 108q6 56 22 107q21 43 50 65q29 23 61 27q32 3 63 -9q31 -13 57 -40zM115 605q12 13 31 27t43 26q23 12 47 18q24 7 45 6v-85q-30 1 -56 -6
q-25 -6 -46 -21t-37 -36t-27 -48v-320h-86v508h86v-69zM460 682q35 1 62 -5q26 -6 45 -20q18 -14 29 -36q11 -21 14 -50v-354q4 -30 17 -51h-77q-13 17 -17 38q-25 -29 -57 -40q-32 -12 -64 -4t-57 37t-35 80q-7 51 5 91q11 39 39 67t70 43q43 14 99 16q4 50 -10 78
q-14 27 -37 34q-24 7 -49 -5q-24 -13 -41 -43l-64 17q0 16 9 34q10 18 27 34q16 16 40 27q23 10 52 12zM814 605q-38 -6 -60 -63q-21 -57 -21 -130q-1 -73 22 -127q23 -53 72 -51q48 18 71 75q22 57 20 124t-28 117t-76 55zM533 413q-32 8 -62 -5t-51 -39t-25 -57
q-5 -32 14 -61q30 -17 54 -14q23 3 38 25q16 22 24 60t8 91z" />
    <glyph glyph-name="uni33AE" unicode="&#x33ae;" 
d="M618 819v200h51v-520h-51v34q-13 -15 -29 -25t-33 -13q-17 -4 -34 0q-17 3 -32 16q-16 18 -27 43q-12 25 -17 59t-3 78t13 98q15 35 35 52q21 16 45 17q23 2 44 -9q22 -11 38 -30zM55 806q8 11 20 21t28 17q15 7 32 11q17 3 35 2v-51q-18 1 -36 -4t-34 -16
q-16 -12 -28 -28t-17 -37v-222h-55v354h55v-47zM277 857q26 3 46 0t34 -12t23 -21t12 -27v-256q0 -21 21 -42h-51q-17 12 -21 34q-13 -22 -34 -32q-21 -9 -43 -5q-22 3 -40 18q-17 14 -24 40q-8 32 -5 63q3 30 20 55q16 25 47 40t79 17q3 34 -7 52q-10 19 -25 24
q-16 5 -32 -4q-16 -8 -26 -29l-47 13q13 59 73 72zM516 21l371 836l34 -13l-375 -836zM546 806q-30 -8 -44 -48q-14 -39 -12 -88q1 -49 16 -86q14 -36 40 -38q32 8 50 46t20 86q2 47 -15 84t-55 44zM341 674q-35 2 -58 -12q-22 -14 -31 -36q-10 -22 -6 -43t22 -33
q15 -4 27 1q13 4 23 18q9 13 15 39t8 66zM861 379q27 0 49 -5q21 -6 37 -16q16 -11 29 -26q12 -15 22 -34l-56 -25q-12 31 -41 41q-29 11 -59 4q-29 -6 -42 -23q-14 -17 6 -40q72 -34 141 -59q14 -5 26 -11q12 -7 21 -15q9 -9 14 -19q5 -11 7 -24q0 -102 -102 -115
q-24 -3 -50 1q-26 5 -50 15q-24 11 -42 26q-19 16 -29 35l51 30q30 -56 85 -56q90 5 73 64q-10 11 -26 19q-17 9 -38 17q-22 7 -48 17q-25 10 -54 24q-37 25 -45 54q-8 30 6 58q14 27 44 45q31 17 71 18z" />
    </font>
</defs>
</svg>
